<?xml version="1.0" encoding="utf-8"?>
<!-- Generator: Adobe Illustrator 16.2.1, SVG Export Plug-In . SVG Version: 6.00 Build 0)  -->
<!DOCTYPE svg PUBLIC "-//W3C//DTD SVG 1.0//EN" "http://www.w3.org/TR/2001/REC-SVG-20010904/DTD/svg10.dtd">
<svg version="1.0" id="Layer_1" xmlns="http://www.w3.org/2000/svg" xmlns:xlink="http://www.w3.org/1999/xlink" x="0px" y="0px"
	 width="800px" height="450px" viewBox="0 0 800 450" enable-background="new 0 0 800 450" xml:space="preserve">
<g id="Layer_3">
	<g>
		<g>
			<path fill="#FFFFFF" d="M721.689,333.297c-0.273-0.527-6.767-13.229-7.679-41.957c-0.94-29.777,1.804-61.705,6.673-77.645
				l1.971,0.601c-4.812,15.749-7.521,47.403-6.58,76.979c0.895,28.182,7.375,40.938,7.438,41.063L721.689,333.297z"/>
			<path fill="#FFFFFF" d="M513.902,435.737c1.354,6.954,2.432,12.519,2.432,12.519l2.023-0.389c0,0-1.1-5.684-2.476-12.739
				C515.266,435.485,514.591,435.704,513.902,435.737z"/>
			<path fill="#FFFFFF" d="M735.279,123.177c-0.23-11.418-7.414-33.816-7.488-34.042c-5.973-21.722-32.824-62.946-61.832-87.44
				l1.328-1.572c29.293,24.734,56.438,66.453,62.477,88.425c0.287,0.887,7.336,22.871,7.574,34.587L735.279,123.177z"/>
			<path fill="#FFFFFF" d="M739.707,124.719c-5.346-6.496-13.041-9.125-22.238-7.604c-25.172,4.166-26.804,10.707-26.908,11.439
				l2.029,0.338c0.019-0.058,1.697-5.853,25.215-9.746c8.43-1.391,15.455,0.987,20.314,6.883
				c8.252,10.016,9.064,28.635,2.076,47.432c-13.15,35.352-28.812,57.27-46.551,65.146c-21.021,9.338-27.98,18.142-28.269,18.513
				l-0.178,0.354c-0.711,2.588-1.367,5.33-2.058,8.232c-5.145,21.656-12.196,51.309-59.655,92.473
				c-22.073,19.146-43.142,28.16-61.61,32.293c2.498,0.045,4.998,0.118,7.497,0.244c16.969-4.812,35.819-13.939,55.464-30.98
				c47.958-41.6,55.097-71.625,60.312-93.551c0.668-2.809,1.3-5.461,1.979-7.955c1.001-1.182,8.339-9.297,27.354-17.737
				c18.523-8.226,34.105-29.917,47.646-66.313C749.371,154.706,748.422,135.291,739.707,124.719z"/>
			<path fill="#FFFFFF" d="M476.5,392.5c0.694-0.002,1.389-0.016,2.082-0.021c-18.191-6.231-28.255-43.242-33.916-64.069
				c-1.393-5.132-2.598-9.562-3.625-12.496c-5.582-15.938-17.58-73.896-21.521-92.942l-0.323-1.58
				c-1.705-8.232-1.142-15.941-0.59-23.398c0.606-8.238,1.18-16.02-1.855-22.568c-5.67-12.227-11.807-43.027-10.08-56.602
				c1.767-13.901,9.758-35.58,9.812-35.724c0.237-0.523,24.846-52.644,78.34-81.284L493.846,0
				c-52.317,28.013-77.173,77.792-79.192,82.336l-0.072-0.026c-0.078,0.22-8.156,22.119-9.955,36.255
				c-1.762,13.867,4.485,45.276,10.256,57.728c2.816,6.063,2.283,13.239,1.672,21.551c-0.528,7.244-1.137,15.452,0.625,23.968
				l0.326,1.579c3.953,19.079,15.975,77.138,21.6,93.207c1.003,2.862,2.193,7.262,3.582,12.354
				c5.779,21.265,14.839,54.616,31.712,63.979C474.999,392.66,475.699,392.503,476.5,392.5z"/>
			<path fill="#FFFFFF" d="M503.773,149.211l-1.718-1.142c0.269-0.396,6.574-9.701,16.24-10.42
				c8.277-0.609,20.104,2.471,27.17,4.313c1.008,0.264,1.918,0.5,2.699,0.696l-0.498,1.996c-0.787-0.195-1.703-0.435-2.721-0.699
				c-6.945-1.81-18.56-4.837-26.498-4.254C509.779,140.348,503.832,149.122,503.773,149.211z"/>
			<path fill="#FFFFFF" d="M511.281,140.956c0,0-1.494,13.197,8.812,13.54c10.31,0.343,13.646-5.024,12.318-14.544
				C532.412,139.952,522.74,136.36,511.281,140.956z"/>
			<path fill="#FFFFFF" d="M516.938,155.892c-6.606,0-10.399-1.724-10.68-1.854l0.875-1.864c0.111,0.055,11.539,5.169,29.713-3.097
				l0.854,1.875C529.234,154.802,522.193,155.892,516.938,155.892z"/>
			<path fill="#FFFFFF" d="M418.326,164.89l-1.531-1.377c12.184-13.541,30.574-8.678,30.76-8.628l-0.547,1.985
				C446.836,156.821,429.646,152.305,418.326,164.89z"/>
			<path fill="#FFFFFF" d="M422.941,159.594c0,0-1.021,11.341,9.479,11.739c0,0,10.109-0.975,6.938-16.337
				C439.359,154.996,431.889,153.801,422.941,159.594z"/>
			<path fill="#FFFFFF" d="M426.402,172.645c-2.207,0-3.562-0.272-3.703-0.304l0.428-2.016c0.092,0.019,9.078,1.793,19.658-4.627
				l1.066,1.761C436.672,171.817,430.24,172.645,426.402,172.645z"/>
			<path fill="#FFFFFF" d="M446.949,248.367c-18.322-6.227-14.467-25.642-12.853-31.444c1.029-3.692,3.537-12.11,6.189-21.021
				c3.221-10.828,6.875-23.102,8.33-28.427c2.598-9.519,4.646-18.869,4.67-18.962l2.01,0.44c-0.02,0.093-2.08,9.493-4.688,19.065
				c-1.461,5.348-5.117,17.631-8.349,28.47c-2.646,8.903-5.147,17.312-6.178,20.987c-1.496,5.363-5.086,23.298,11.525,28.94
				L446.949,248.367z"/>
			<path fill="#FFFFFF" d="M494.836,242.795l-1.021-1.789c5.354-3.061,8.319-9.205,7.938-16.435
				c-0.412-7.859-16.014-12.284-16.172-12.328l0.551-1.984c0.703,0.195,17.191,4.881,17.685,14.203
				C504.236,232.486,500.881,239.338,494.836,242.795z"/>
			<path fill="#FFFFFF" d="M485.861,241.9c0,0-10.066-7.318-16.933-4.574C462.074,240.072,468.479,247.391,485.861,241.9z"/>
			<path fill="#FFFFFF" d="M456.584,246.984c0,0-4.803-6.16-9.254-3.498C442.877,246.148,446.133,251.25,456.584,246.984z"/>
			<path fill="#FFFFFF" d="M724.934,448.777l-1.479-1.438c31.42-32.342,42.104-66.155,41.707-85.284
				c-0.107-5.216-1.119-7.994-2.029-8.854c-3.879-3.678-5.68-6.371-9.625-12.279c-2.146-3.213-4.812-7.213-8.809-12.885
				c-6.229-8.854-8.666-14.146-10.279-17.654c-1.4-3.041-2.244-4.875-4.502-6.863c-3.812-3.367-10.598-3.723-13.268-3.723
				c-0.021,0-0.039,0-0.062,0c0.156,1.604,0.445,4.518,0.584,5.656c0.312,2.537,1.775,4.195,3.479,6.121
				c2.791,3.158,5.953,6.738,4.772,14.979c-1.871,13.077-23.959,49.159-40.75,66.563c-6.955,7.209-23.881,22.352-65.01,53.555
				c-0.98,0.746-1.631,1.236-1.889,1.438l-1.269-1.627c0.264-0.203,0.916-0.699,1.906-1.451
				c41.023-31.123,57.869-46.188,64.775-53.346c16.574-17.188,38.362-52.648,40.188-65.431c1.043-7.297-1.662-10.356-4.279-13.323
				c-1.768-2-3.592-4.062-3.975-7.232c-0.197-1.621-0.699-6.811-0.699-6.811l-0.102-1.062l1.062-0.062
				c0.421-0.022,10.439-0.602,15.884,4.204c2.584,2.278,3.553,4.374,5.014,7.55c1.676,3.646,3.971,8.633,10.094,17.328
				c4.004,5.693,6.688,9.703,8.834,12.93c3.979,5.945,5.619,8.41,9.33,11.929c1.617,1.53,2.566,5.192,2.672,10.307
				C767.625,381.539,756.797,415.98,724.934,448.777z"/>
			<path fill="#FFFFFF" d="M796.109,376.723c-9.111-1.774-23.188-18.215-27.017-23.678c-1.291-1.842-2.635-2.836-3.987-2.959
				c-1.535-0.125-2.672,0.93-2.685,0.941l-1.451-1.463c0.072-0.07,1.812-1.761,4.316-1.529c1.99,0.178,3.838,1.467,5.492,3.83
				c4.252,6.068,17.688,21.27,25.721,22.836L796.109,376.723z"/>
			<path fill="#FFFFFF" d="M758.584,449.422l-1.33-1.572c0.188-0.155,19.01-16.268,38.168-48.946l1.775,1.041
				C777.848,432.955,758.773,449.26,758.584,449.422z"/>
			<path fill="#FFFFFF" d="M682.098,227.979c-1.562,0-2.567-0.41-2.676-0.453l0.795-1.896c0.217,0.084,5.318,2.034,10.666-5.37
				c2.975-4.117,7.518-6.156,12.33-8.315c5.357-2.405,10.898-4.892,15.521-10.492c8.746-10.605,18.149-53.797,17.692-62.78
				c-0.147-3.049-1.498-5.377-3.887-6.734c-4.062-2.303-10.49-1.555-17.199,2.004c-7.84,4.156-16.813,21.266-21.873,32.058
				c2.021-2.292,4.148-4.164,5.957-4.083c0.699,0.02,1.672,0.312,2.351,1.588c0.512,0.963,1.312,2.223,2.242,3.682
				c4.112,6.444,10.332,16.185,5.436,22.299c-3.176,3.969-7.395,6.184-11.463,8.326c-3.188,1.674-6.479,3.406-9.23,5.967
				c-3.479,3.228-8.361,6.381-10.69,4.631c-1.582-1.184-1.312-3.844,0.838-8.133c4.842-9.686,4.928-20.192,1.975-23.566l1.552-1.355
				c3.454,3.947,3.604,15.273-1.685,25.843c-1.981,3.968-1.717,5.361-1.445,5.562c0.642,0.482,3.88-0.611,8.062-4.492
				c2.955-2.746,6.369-4.543,9.674-6.279c4.063-2.139,7.904-4.158,10.813-7.791c3.979-4.964-1.766-13.955-5.562-19.904
				c-0.957-1.496-1.781-2.789-2.33-3.825c-0.254-0.483-0.479-0.491-0.584-0.493c-2.056-0.033-7.211,6.657-9.976,11.22l-1.837-0.92
				c0.591-1.453,14.55-35.646,26.815-42.153c7.336-3.891,14.508-4.627,19.185-1.975c2.987,1.699,4.737,4.688,4.932,8.421
				c0.477,9.414-8.951,53.021-18.166,64.196c-4.932,5.972-10.951,8.675-16.271,11.06c-4.75,2.132-8.854,3.973-11.503,7.642
				C688.621,226.902,684.635,227.979,682.098,227.979z"/>
			<path fill="#FFFFFF" d="M498.701,93.103c0,0-6.961,4.888-4.359,7.709c2.596,2.822,5.066,6.35,6.125,5.998
				c1.062-0.354,10.324-3.177,14.863-7.057c4.541-3.881,20.062-8.819,25.707-9.879c5.645-1.057,22.932-6.35,28.928-3.881
				c5.996,2.471-4.234-8.466-17.287-6.35C539.625,81.761,507.971,85.993,498.701,93.103z"/>
			<path fill="#FFFFFF" d="M432.959,115.276c0,0,3.438,5.288,2.135,8.111c-1.305,2.824-6.244-3.527-15.414-2.468
				c-9.174,1.058-14.188,3.2-14.188,3.2s1.262-10.865,1.729-12.59C407.686,109.804,426.486,110.688,432.959,115.276z"/>
			<path fill="#FFFFFF" d="M501.814,279.252c-20.232-6.615-24.75,2.207-33.287,1.615c-8.539-0.592-12.084,9.975-12.084,9.975
				c-2.699,5.023-0.441,5.234,6.651,13.049c7.104,7.812,37.306,7.176,51.699-1.729c14.394-8.905,16.652-14.287,16.652-14.287
				S522.049,285.869,501.814,279.252z M508.729,283.305c-17.055,4.947-51.09,9.746-51.09,9.746s3.545-10.562,12.084-9.971
				c8.539,0.591,13.062-8.232,33.287-1.617c2.025,0.662,3.91,1.268,5.719,1.84V283.305z"/>
			<path fill="#FFFFFF" d="M489.156,324.096c-12.631,0-23.785-4.174-29.844-11.166c-4.5-5.191-6.229-11.707-5.125-19.354
				c0.646-3.428,4.139-20.346,9.868-21.34c1.425-0.244,2.688-0.736,4.148-1.312c2.945-1.146,6.609-2.572,13.348-2.572
				c1.816,0,3.808,0.104,5.906,0.312c14.723,1.453,43.289,17.623,44.498,18.312l0.688,0.394l-0.197,0.764
				c-0.238,0.914-6.025,22.479-23.496,31.724C503.852,322.547,496.637,324.096,489.156,324.096z M481.557,270.412
				c-6.35,0-9.67,1.291-12.602,2.434c-1.502,0.586-2.92,1.137-4.543,1.42c-3.184,0.553-6.707,11.822-8.193,19.648
				c-1.004,6.984,0.562,12.943,4.65,17.666c5.67,6.547,16.246,10.457,28.287,10.457c7.149,0,14.018-1.461,18.832-4.008
				c14.869-7.867,21.049-25.762,22.244-29.662c-4.562-2.535-29.937-16.367-42.978-17.654
				C485.225,270.514,483.307,270.412,481.557,270.412z"/>
			<path fill="#FFFFFF" d="M546.926,287.023c-0.062-0.248-6.699-25.004-19.729-38.933c-13.258-14.159-35.574-44.239-35.799-44.54
				l1.651-1.227c0.228,0.301,22.476,30.275,35.646,44.354c13.391,14.312,19.938,38.777,20.217,39.812L546.926,287.023z"/>
			<path fill="#FFFFFF" d="M444.504,296.738c-9.527-15.971,1.336-48.312,1.803-49.682l1.947,0.668
				c-0.109,0.321-11.021,32.805-1.98,47.957L444.504,296.738z"/>
			<path fill="#FFFFFF" d="M724.195,336.594"/>
		</g>
		<g>
			<rect x="264.8" y="144.207" fill="#FFFFFF" width="2.061" height="10.298"/>
			<rect x="264.8" y="123.612" fill="#FFFFFF" width="2.061" height="10.298"/>
			<rect x="264.8" y="103.018" fill="#FFFFFF" width="2.061" height="10.297"/>
			<rect x="264.8" y="164.802" fill="#FFFFFF" width="2.061" height="10.297"/>
			<rect x="264.8" y="41.233" fill="#FFFFFF" width="2.061" height="10.298"/>
			<rect x="264.8" y="185.397" fill="#FFFFFF" width="2.061" height="10.297"/>
			<rect x="264.8" y="82.423" fill="#FFFFFF" width="2.061" height="10.298"/>
			<rect x="264.8" y="0.045" fill="#FFFFFF" width="2.061" height="10.298"/>
			<rect x="264.8" y="61.829" fill="#FFFFFF" width="2.061" height="10.297"/>
			<rect x="264.8" y="20.64" fill="#FFFFFF" width="2.061" height="10.297"/>
			<rect x="264.8" y="350.154" fill="#FFFFFF" width="2.061" height="10.297"/>
			<rect x="264.8" y="329.555" fill="#FFFFFF" width="2.061" height="10.303"/>
			<rect x="264.8" y="370.748" fill="#FFFFFF" width="2.061" height="10.299"/>
			<path fill="#FFFFFF" d="M264.8,435.68v7.15h2.061v-6.908C266.15,435.988,265.444,435.913,264.8,435.68z"/>
			<rect x="264.8" y="308.965" fill="#FFFFFF" width="2.061" height="10.297"/>
			<rect x="264.8" y="205.991" fill="#FFFFFF" width="2.061" height="10.297"/>
			<rect x="264.8" y="226.586" fill="#FFFFFF" width="2.061" height="10.299"/>
			<rect x="264.8" y="288.369" fill="#FFFFFF" width="2.061" height="10.299"/>
			<rect x="264.8" y="247.182" fill="#FFFFFF" width="2.061" height="10.297"/>
			<rect x="264.8" y="267.775" fill="#FFFFFF" width="2.061" height="10.297"/>
			<path fill="#FFFFFF" d="M534.75,390.425V0.907h-6.18v389.616C530.63,390.477,532.69,390.438,534.75,390.425z"/>
			<path fill="#FFFFFF" d="M528.57,435.676v12.379h6.18v-12.349C532.689,435.757,530.629,435.741,528.57,435.676z"/>
			<rect y="146.487" fill="#FFFFFF" width="797.492" height="6.178"/>
			<g>
				<rect y="298.076" fill="#FFFFFF" width="5.148" height="2.059"/>
				<path fill="#FFFFFF" d="M782.121,300.135h-10.223v-2.059h10.223V300.135z M761.674,300.135h-10.225v-2.059h10.225V300.135z
					 M741.227,300.135h-10.223v-2.059h10.223V300.135z M720.781,300.135h-10.228v-2.059h10.228V300.135z M700.334,300.135h-10.223
					v-2.059h10.223V300.135z M679.889,300.135h-10.225v-2.059h10.225V300.135z M659.439,300.135h-10.228v-2.059h10.228V300.135z
					 M638.994,300.135h-10.223v-2.059h10.223V300.135z M618.549,300.135h-10.227v-2.059h10.227V300.135z M598.1,300.135h-10.223
					v-2.059H598.1V300.135z M577.654,300.135H567.43v-2.059h10.229L577.654,300.135L577.654,300.135z M557.207,300.135h-10.223
					v-2.059h10.223V300.135z M536.762,300.135h-10.223v-2.059h10.223V300.135z M516.312,300.135H506.09v-2.059h10.223V300.135
					L516.312,300.135z M495.867,300.135h-10.225v-2.059h10.225V300.135z M475.42,300.135h-10.225v-2.059h10.225V300.135z
					 M454.973,300.135H444.75v-2.059h10.223V300.135z M434.527,300.135H424.3v-2.059h10.229L434.527,300.135L434.527,300.135z
					 M414.08,300.135h-10.223v-2.059h10.223V300.135z M393.635,300.135H383.41v-2.059h10.225V300.135z M373.188,300.135h-10.223
					v-2.059h10.223V300.135z M352.74,300.135h-10.225v-2.059h10.225V300.135z M332.293,300.135H322.07v-2.059h10.223V300.135z
					 M311.848,300.135h-10.223v-2.059h10.223V300.135z M291.402,300.135h-10.227v-2.059h10.227V300.135z M270.953,300.135H260.73
					v-2.059h10.223V300.135z M250.508,300.135h-10.225v-2.059h10.225V300.135z M230.061,300.135h-10.223v-2.059h10.223V300.135z
					 M209.615,300.135h-10.223v-2.059h10.223V300.135L209.615,300.135z M189.166,300.135h-10.223v-2.059h10.223V300.135
					L189.166,300.135z M168.721,300.135h-10.223v-2.059h10.223V300.135L168.721,300.135z M148.275,300.135H138.05v-2.059h10.225
					V300.135L148.275,300.135z M127.828,300.135h-10.223v-2.059h10.223V300.135z M107.381,300.135H97.156v-2.059h10.225V300.135z
					 M86.934,300.135H76.711v-2.059h10.223V300.135z M66.488,300.135H56.266v-2.059h10.223L66.488,300.135L66.488,300.135z
					 M46.041,300.135H35.818v-2.059h10.223V300.135z M25.594,300.135H15.371v-2.059h10.223V300.135z"/>
				<rect x="792.344" y="298.076" fill="#FFFFFF" width="5.148" height="2.059"/>
			</g>
		</g>
	</g>
</g>
<g id="Layer_4">
	<rect x="174.5" y="399.651" fill="none" width="451" height="36"/>
	<g enable-background="new    ">
		<path fill="#FFFFFF" d="M185.828,403.94c-0.096-0.288-0.192-0.64-0.192-0.928c0-1.376,1.152-2.4,2.528-2.4
			c1.152,0,2.08,0.736,2.4,1.761l4.448,13.727l4.479-13.599c0.384-1.152,1.248-1.952,2.496-1.952h0.384
			c1.248,0,2.112,0.768,2.496,1.952l4.48,13.599l4.448-13.727c0.32-0.96,1.152-1.761,2.368-1.761c1.344,0,2.432,1.024,2.432,2.368
			c0,0.288-0.096,0.672-0.192,0.96l-6.271,17.599c-0.448,1.248-1.376,2.016-2.56,2.016h-0.512c-1.184,0-2.08-0.735-2.528-2.016
			l-4.416-12.831l-4.416,12.831c-0.448,1.28-1.344,2.016-2.528,2.016h-0.512c-1.184,0-2.112-0.768-2.56-2.016L185.828,403.94z"/>
		<path fill="#FFFFFF" d="M221.54,402.085c0-1.344,1.088-2.433,2.432-2.433c1.344,0,2.432,1.089,2.432,2.433v6.399
			c1.12-1.44,2.56-2.752,5.023-2.752c3.68,0,5.824,2.432,5.824,6.367v8.863c0,1.345-1.088,2.433-2.432,2.433
			c-1.344,0-2.432-1.088-2.432-2.433v-7.327c0-2.304-1.088-3.487-2.944-3.487c-1.855,0-3.04,1.184-3.04,3.487v7.327
			c0,1.345-1.088,2.433-2.432,2.433c-1.344,0-2.432-1.088-2.432-2.433V402.085z"/>
		<path fill="#FFFFFF" d="M240.451,418.275v-0.063c0-3.744,2.848-5.472,6.912-5.472c1.728,0,2.976,0.288,4.191,0.703v-0.287
			c0-2.017-1.248-3.136-3.68-3.136c-1.344,0-2.432,0.191-3.359,0.479c-0.288,0.096-0.48,0.128-0.704,0.128
			c-1.12,0-2.016-0.864-2.016-1.983c0-0.864,0.544-1.601,1.312-1.889c1.536-0.575,3.2-0.896,5.472-0.896
			c2.656,0,4.576,0.704,5.792,1.92c1.28,1.28,1.856,3.168,1.856,5.472v7.808c0,1.312-1.056,2.336-2.368,2.336
			c-1.408,0-2.336-0.992-2.336-2.017v-0.031c-1.184,1.312-2.816,2.176-5.184,2.176C243.107,423.523,240.451,421.667,240.451,418.275
			z M251.619,417.155v-0.863c-0.832-0.385-1.92-0.641-3.104-0.641c-2.08,0-3.36,0.832-3.36,2.368v0.064
			c0,1.312,1.088,2.079,2.656,2.079C250.083,420.163,251.619,418.915,251.619,417.155z"/>
		<path fill="#FFFFFF" d="M261.059,418.34v-8.128h-0.16c-1.152,0-2.08-0.928-2.08-2.08c0-1.151,0.928-2.079,2.08-2.079h0.16v-2.145
			c0-1.344,1.088-2.432,2.432-2.432c1.344,0,2.432,1.088,2.432,2.432v2.145h2.144c1.152,0,2.08,0.928,2.08,2.079
			c0,1.152-0.928,2.08-2.08,2.08h-2.144v7.327c0,1.12,0.48,1.664,1.568,1.664c0.16,0,0.48-0.031,0.576-0.031
			c1.088,0,2.016,0.896,2.016,2.016c0,0.863-0.576,1.567-1.248,1.823c-0.896,0.353-1.728,0.48-2.784,0.48
			C263.075,423.491,261.059,422.308,261.059,418.34z"/>
		<path fill="#FFFFFF" d="M283.075,401.957c0-1.408,1.184-2.272,2.72-2.272c1.536,0,2.72,0.864,2.72,2.272v0.063
			c0,1.408-1.184,2.304-2.72,2.304c-1.536,0-2.72-0.896-2.72-2.304V401.957z M283.363,408.292c0-1.344,1.088-2.432,2.432-2.432
			c1.344,0,2.432,1.088,2.432,2.432v12.671c0,1.345-1.088,2.433-2.432,2.433c-1.344,0-2.432-1.088-2.432-2.433V408.292z"/>
		<path fill="#FFFFFF" d="M292.354,421.571c-0.512-0.32-0.928-0.896-0.928-1.664c0-1.088,0.832-1.92,1.92-1.92
			c0.352,0,0.704,0.097,0.96,0.256c1.632,1.024,3.264,1.536,4.64,1.536c1.408,0,2.048-0.512,2.048-1.28v-0.063
			c0-1.056-1.664-1.408-3.552-1.984c-2.4-0.703-5.12-1.823-5.12-5.151v-0.063c0-3.488,2.816-5.439,6.271-5.439
			c1.792,0,3.648,0.479,5.312,1.312c0.704,0.352,1.152,0.992,1.152,1.824c0,1.088-0.864,1.919-1.952,1.919
			c-0.352,0-0.576-0.063-0.896-0.224c-1.376-0.672-2.688-1.088-3.711-1.088c-1.184,0-1.792,0.512-1.792,1.184v0.064
			c0,0.96,1.632,1.408,3.488,2.048c2.4,0.8,5.184,1.952,5.184,5.088v0.063c0,3.808-2.848,5.536-6.56,5.536
			C296.706,423.523,294.434,422.915,292.354,421.571z"/>
		<path fill="#FFFFFF" d="M318.53,420.835c-0.544-0.384-0.928-1.088-0.928-1.855c0-1.28,1.024-2.271,2.304-2.271
			c0.64,0,1.088,0.224,1.408,0.447c1.696,1.248,3.552,2.017,5.728,2.017c2.016,0,3.232-0.801,3.232-2.112v-0.064
			c0-1.247-0.768-1.888-4.512-2.848c-4.512-1.151-7.423-2.399-7.423-6.848v-0.063c0-4.063,3.264-6.752,7.839-6.752
			c2.72,0,5.088,0.704,7.104,1.984c0.544,0.32,1.088,0.992,1.088,1.952c0,1.279-1.024,2.271-2.304,2.271
			c-0.48,0-0.864-0.128-1.248-0.352c-1.632-0.96-3.167-1.504-4.704-1.504c-1.888,0-2.88,0.863-2.88,1.951v0.064
			c0,1.472,0.96,1.951,4.832,2.943c4.543,1.185,7.103,2.816,7.103,6.72v0.064c0,4.447-3.392,6.943-8.223,6.943
			C324.001,423.523,321.026,422.627,318.53,420.835z"/>
		<path fill="#FFFFFF" d="M338.946,402.085c0-1.344,1.088-2.433,2.432-2.433c1.344,0,2.432,1.089,2.432,2.433v6.399
			c1.12-1.44,2.56-2.752,5.023-2.752c3.68,0,5.824,2.432,5.824,6.367v8.863c0,1.345-1.088,2.433-2.432,2.433
			c-1.344,0-2.432-1.088-2.432-2.433v-7.327c0-2.304-1.088-3.487-2.944-3.487c-1.855,0-3.04,1.184-3.04,3.487v7.327
			c0,1.345-1.088,2.433-2.432,2.433c-1.344,0-2.432-1.088-2.432-2.433V402.085z"/>
		<path fill="#FFFFFF" d="M358.049,414.724v-0.063c0-4.928,3.968-8.928,9.312-8.928c5.312,0,9.247,3.936,9.247,8.863v0.064
			c0,4.927-3.967,8.927-9.311,8.927C361.985,423.587,358.049,419.651,358.049,414.724z M371.809,414.724v-0.063
			c0-2.528-1.824-4.736-4.512-4.736c-2.784,0-4.448,2.145-4.448,4.672v0.064c0,2.527,1.824,4.735,4.512,4.735
			C370.145,419.396,371.809,417.252,371.809,414.724z"/>
		<path fill="#FFFFFF" d="M380.929,418.34v-8.128h-0.16c-1.152,0-2.08-0.928-2.08-2.08c0-1.151,0.928-2.079,2.08-2.079h0.16v-2.145
			c0-1.344,1.088-2.432,2.432-2.432c1.344,0,2.432,1.088,2.432,2.432v2.145h2.144c1.152,0,2.08,0.928,2.08,2.079
			c0,1.152-0.928,2.08-2.08,2.08h-2.144v7.327c0,1.12,0.48,1.664,1.568,1.664c0.16,0,0.48-0.031,0.576-0.031
			c1.088,0,2.016,0.896,2.016,2.016c0,0.863-0.576,1.567-1.248,1.823c-0.896,0.353-1.728,0.48-2.784,0.48
			C382.945,423.491,380.929,422.308,380.929,418.34z"/>
		<path fill="#FFFFFF" d="M393.921,403.076c0-1.375,1.088-2.464,2.464-2.464c1.375,0,2.463,1.089,2.463,2.464v15.647h9.12
			c1.248,0,2.239,0.992,2.239,2.239c0,1.248-0.991,2.24-2.239,2.24h-11.583c-1.376,0-2.464-1.088-2.464-2.464V403.076z"/>
		<path fill="#FFFFFF" d="M413.152,401.957c0-1.408,1.184-2.272,2.72-2.272s2.72,0.864,2.72,2.272v0.063
			c0,1.408-1.184,2.304-2.72,2.304s-2.72-0.896-2.72-2.304V401.957z M413.44,408.292c0-1.344,1.088-2.432,2.432-2.432
			c1.345,0,2.433,1.088,2.433,2.432v12.671c0,1.345-1.088,2.433-2.433,2.433c-1.344,0-2.432-1.088-2.432-2.433V408.292z"/>
		<path fill="#FFFFFF" d="M422.432,421.571c-0.512-0.32-0.928-0.896-0.928-1.664c0-1.088,0.832-1.92,1.92-1.92
			c0.352,0,0.704,0.097,0.96,0.256c1.632,1.024,3.264,1.536,4.64,1.536c1.408,0,2.048-0.512,2.048-1.28v-0.063
			c0-1.056-1.664-1.408-3.552-1.984c-2.4-0.703-5.119-1.823-5.119-5.151v-0.063c0-3.488,2.815-5.439,6.271-5.439
			c1.791,0,3.647,0.479,5.311,1.312c0.705,0.352,1.152,0.992,1.152,1.824c0,1.088-0.863,1.919-1.951,1.919
			c-0.353,0-0.576-0.063-0.896-0.224c-1.376-0.672-2.688-1.088-3.711-1.088c-1.185,0-1.793,0.512-1.793,1.184v0.064
			c0,0.96,1.633,1.408,3.488,2.048c2.4,0.8,5.184,1.952,5.184,5.088v0.063c0,3.808-2.848,5.536-6.56,5.536
			C426.783,423.523,424.512,422.915,422.432,421.571z"/>
		<path fill="#FFFFFF" d="M439.424,418.34v-8.128h-0.16c-1.151,0-2.08-0.928-2.08-2.08c0-1.151,0.929-2.079,2.08-2.079h0.16v-2.145
			c0-1.344,1.088-2.432,2.432-2.432c1.345,0,2.433,1.088,2.433,2.432v2.145h2.144c1.151,0,2.08,0.928,2.08,2.079
			c0,1.152-0.929,2.08-2.08,2.08h-2.144v7.327c0,1.12,0.479,1.664,1.567,1.664c0.16,0,0.48-0.031,0.576-0.031
			c1.088,0,2.016,0.896,2.016,2.016c0,0.863-0.576,1.567-1.248,1.823c-0.896,0.353-1.728,0.48-2.783,0.48
			C441.439,423.491,439.424,422.308,439.424,418.34z"/>
		<path fill="#FFFFFF" d="M451.775,408.964c1.632-0.384,2.528-1.504,2.464-3.039c-1.119-0.288-2.239-1.248-2.239-2.624v-0.064
			c0-1.504,1.056-2.624,2.655-2.624c1.792,0,2.848,1.376,2.848,3.584v0.128c0,2.336-0.703,4.064-1.888,5.248
			c-0.96,0.96-2.399,1.536-3.584,1.536c-0.863,0-1.216-0.513-1.216-1.088C450.815,409.444,451.231,409.092,451.775,408.964z"/>
		<path fill="#FFFFFF" d="M460.447,421.571c-0.512-0.32-0.928-0.896-0.928-1.664c0-1.088,0.832-1.92,1.92-1.92
			c0.353,0,0.704,0.097,0.96,0.256c1.632,1.024,3.264,1.536,4.64,1.536c1.408,0,2.048-0.512,2.048-1.28v-0.063
			c0-1.056-1.664-1.408-3.552-1.984c-2.399-0.703-5.119-1.823-5.119-5.151v-0.063c0-3.488,2.815-5.439,6.271-5.439
			c1.792,0,3.647,0.479,5.312,1.312c0.704,0.352,1.151,0.992,1.151,1.824c0,1.088-0.863,1.919-1.951,1.919
			c-0.353,0-0.576-0.063-0.896-0.224c-1.376-0.672-2.688-1.088-3.712-1.088c-1.184,0-1.792,0.512-1.792,1.184v0.064
			c0,0.96,1.633,1.408,3.488,2.048c2.399,0.8,5.184,1.952,5.184,5.088v0.063c0,3.808-2.848,5.536-6.56,5.536
			C464.799,423.523,462.527,422.915,460.447,421.571z"/>
		<path fill="#FFFFFF" d="M487.359,418.34v-8.128h-0.16c-1.151,0-2.079-0.928-2.079-2.08c0-1.151,0.928-2.079,2.079-2.079h0.16
			v-2.145c0-1.344,1.088-2.432,2.432-2.432c1.345,0,2.433,1.088,2.433,2.432v2.145h2.144c1.151,0,2.08,0.928,2.08,2.079
			c0,1.152-0.929,2.08-2.08,2.08h-2.144v7.327c0,1.12,0.479,1.664,1.567,1.664c0.16,0,0.48-0.031,0.576-0.031
			c1.088,0,2.016,0.896,2.016,2.016c0,0.863-0.576,1.567-1.248,1.823c-0.896,0.353-1.728,0.48-2.783,0.48
			C489.375,423.491,487.359,422.308,487.359,418.34z"/>
		<path fill="#FFFFFF" d="M498.815,418.275v-0.063c0-3.744,2.848-5.472,6.911-5.472c1.728,0,2.976,0.288,4.191,0.703v-0.287
			c0-2.017-1.248-3.136-3.68-3.136c-1.344,0-2.432,0.191-3.359,0.479c-0.288,0.096-0.48,0.128-0.704,0.128
			c-1.12,0-2.016-0.864-2.016-1.983c0-0.864,0.544-1.601,1.312-1.889c1.536-0.575,3.2-0.896,5.472-0.896
			c2.656,0,4.576,0.704,5.792,1.92c1.279,1.28,1.855,3.168,1.855,5.472v7.808c0,1.312-1.056,2.336-2.368,2.336
			c-1.407,0-2.336-0.992-2.336-2.017v-0.031c-1.184,1.312-2.815,2.176-5.184,2.176C501.471,423.523,498.815,421.667,498.815,418.275
			z M509.982,417.155v-0.863c-0.832-0.385-1.92-0.641-3.104-0.641c-2.079,0-3.359,0.832-3.359,2.368v0.064
			c0,1.312,1.088,2.079,2.656,2.079C508.446,420.163,509.982,418.915,509.982,417.155z"/>
		<path fill="#FFFFFF" d="M520.19,427.203c-0.832-0.32-1.376-0.992-1.376-1.888c0-1.089,0.896-1.984,1.983-1.984
			c0.32,0,0.576,0.064,0.8,0.16c1.408,0.64,2.912,1.023,4.736,1.023c3.327,0,4.896-1.6,4.896-4.671v-0.832
			c-1.44,1.728-3.008,2.783-5.6,2.783c-4,0-7.615-2.911-7.615-7.999v-0.064c0-5.119,3.68-7.999,7.615-7.999
			c2.655,0,4.224,1.12,5.535,2.56v-0.032c0-1.312,1.088-2.399,2.433-2.399c1.344,0,2.432,1.088,2.432,2.432v11.039
			c0,3.072-0.736,5.312-2.176,6.752c-1.601,1.6-4.064,2.304-7.392,2.304C524.189,428.387,522.206,428.003,520.19,427.203z
			 M531.229,413.796v-0.064c0-2.336-1.824-3.968-4.191-3.968c-2.368,0-4.16,1.632-4.16,3.968v0.064c0,2.368,1.792,3.968,4.16,3.968
			C529.405,417.764,531.229,416.132,531.229,413.796z"/>
		<path fill="#FFFFFF" d="M540.605,402.085c0-1.344,1.088-2.433,2.433-2.433c1.344,0,2.432,1.089,2.432,2.433v18.878
			c0,1.345-1.088,2.433-2.432,2.433c-1.345,0-2.433-1.088-2.433-2.433V402.085z"/>
		<path fill="#FFFFFF" d="M549.982,401.957c0-1.408,1.184-2.272,2.72-2.272c1.535,0,2.72,0.864,2.72,2.272v0.063
			c0,1.408-1.185,2.304-2.72,2.304c-1.536,0-2.72-0.896-2.72-2.304V401.957z M550.27,408.292c0-1.344,1.088-2.432,2.433-2.432
			c1.344,0,2.432,1.088,2.432,2.432v12.671c0,1.345-1.088,2.433-2.432,2.433c-1.345,0-2.433-1.088-2.433-2.433V408.292z"/>
		<path fill="#FFFFFF" d="M559.71,408.292c0-1.344,1.088-2.432,2.432-2.432s2.432,1.088,2.432,2.432v0.192
			c1.12-1.44,2.561-2.752,5.024-2.752c3.68,0,5.823,2.432,5.823,6.367v8.863c0,1.345-1.088,2.433-2.432,2.433
			s-2.432-1.088-2.432-2.433v-7.327c0-2.304-1.088-3.487-2.944-3.487c-1.855,0-3.04,1.184-3.04,3.487v7.327
			c0,1.345-1.088,2.433-2.432,2.433s-2.432-1.088-2.432-2.433V408.292z"/>
		<path fill="#FFFFFF" d="M587.773,423.587c-5.152,0-8.96-3.615-8.96-8.863v-0.063c0-4.896,3.488-8.928,8.479-8.928
			c5.728,0,8.256,4.704,8.256,8.256c0,1.407-0.992,2.335-2.272,2.335h-9.631c0.479,2.208,2.016,3.36,4.191,3.36
			c1.344,0,2.464-0.416,3.456-1.152c0.352-0.256,0.672-0.384,1.184-0.384c1.088,0,1.888,0.832,1.888,1.92
			c0,0.64-0.288,1.12-0.64,1.439C592.221,422.787,590.269,423.587,587.773,423.587z M590.909,413.284
			c-0.288-2.176-1.568-3.648-3.616-3.648c-2.016,0-3.328,1.44-3.712,3.648H590.909z"/>
		<path fill="#FFFFFF" d="M603.646,415.779c-0.929,0-1.601-0.703-1.729-1.567l-0.319-2.176c-0.16-1.056,0.447-1.792,1.472-1.92
			c2.783-0.353,4.063-1.216,4.063-2.784v-0.063c0-1.44-1.088-2.272-2.943-2.272c-1.376,0-2.561,0.416-3.712,1.28
			c-0.384,0.288-0.896,0.512-1.44,0.512c-1.216,0-2.239-1.023-2.239-2.239c0-0.608,0.256-1.248,0.832-1.729
			c1.695-1.407,3.84-2.304,6.655-2.304c4.607,0,7.743,2.368,7.743,6.624v0.063c0,4.063-2.815,5.728-6.304,6.432l-0.096,0.576
			c-0.128,0.832-0.8,1.567-1.728,1.567H603.646z M603.646,417.892c1.6,0,2.783,1.184,2.783,2.72v0.064
			c0,1.535-1.184,2.72-2.783,2.72c-1.601,0-2.784-1.185-2.784-2.72v-0.064C600.861,419.075,602.045,417.892,603.646,417.892z"/>
	</g>
</g>
</svg>
