<?xml version="1.0" encoding="utf-8"?>
<!-- Generator: Adobe Illustrator 16.2.1, SVG Export Plug-In . SVG Version: 6.00 Build 0)  -->
<!DOCTYPE svg PUBLIC "-//W3C//DTD SVG 1.0//EN" "http://www.w3.org/TR/2001/REC-SVG-20010904/DTD/svg10.dtd">
<svg version="1.0" id="Layer_1" xmlns="http://www.w3.org/2000/svg" xmlns:xlink="http://www.w3.org/1999/xlink" x="0px" y="0px"
	 width="800px" height="450px" viewBox="0 0 800 450" enable-background="new 0 0 800 450" xml:space="preserve">
<g id="Layer_3">
	<g>
		<g>
			<path fill="#FFFFFF" d="M595.242,375.122c-0.122-0.142-3.111-3.675-11.812-20.345c-2.969-5.691-5.516-11.121-8.21-16.87
				c-5.183-11.05-11.054-23.573-21.629-41.36c-15.339-25.797-11.188-42.668-4.42-57.057c10.112-21.476,12.352-36.573,6.643-44.873
				c-1.745-2.54-4.262-5.928-7.166-9.849c-10.597-14.287-26.604-35.877-35.186-55.893c-4.665-10.887-5.73-18.744-3.262-24.019
				c2.396-5.125,7.66-6.694,11.501-7.841l0.425-0.127c7.854-2.353,13.07,11.414,13.614,12.918c0.93,1.48,12.562,19.892,20.52,28.147
				c8.664,8.988,15.888,19.164,18.847,26.558c2.776,6.951,11.271,14.09,11.354,14.16l-1.32,1.582
				c-0.36-0.304-8.975-7.537-11.947-14.978c-2.821-7.054-10.054-17.218-18.41-25.892c-8.405-8.719-20.339-27.773-20.845-28.582
				l-0.104-0.203c-1.331-3.794-5.898-13.295-11.117-11.738l-0.426,0.129c-3.663,1.092-8.22,2.451-10.228,6.738
				c-2.182,4.648-1.07,12.164,3.288,22.336c8.48,19.793,24.405,41.267,34.939,55.476c2.921,3.938,5.442,7.339,7.21,9.91
				c6.152,8.946,3.979,24.729-6.471,46.916c-6.083,12.924-11.271,28.91,4.325,55.128c10.625,17.872,16.521,30.442,21.724,41.536
				c2.685,5.729,5.222,11.14,8.171,16.793c8.511,16.312,11.514,19.921,11.543,19.955L595.242,375.122z"/>
			<path fill="#FFFFFF" d="M632.168,170.274c-0.631-1.758-24.59-46.945-39.677-57.721c-7.161-5.114-14.04-10.576-20.108-15.395
				c-6.95-5.52-12.953-10.287-17.391-12.973c-7.502-4.541-14.635,6-14.707,6.108l-1.714-1.142
				c2.844-4.268,10.161-11.163,17.487-6.729c4.55,2.753,10.602,7.558,17.604,13.121c6.051,4.805,12.904,10.248,20.024,15.332
				c15.312,10.941,40.492,57.307,40.492,59.117h-2.06h1.029L632.168,170.274z"/>
			<path fill="#FFFFFF" d="M654.089,342.376l-5.1-10.196c-5.809-14.77-3.017-35.949-0.979-51.412c0.854-6.484,1.6-12.094,1.6-16.064
				c0-8.02,4.212-21.93,7.929-34.2c2.666-8.808,5.185-17.125,5.185-20.435c0-4.867-4.707-14.055-10.149-24.69
				c-3.204-6.253-6.521-12.72-9.429-19.335c-8.479-19.275-14.128-29.142-25.137-36.657c-11.513-7.855-25.335-16.709-25.475-16.798
				l1.111-1.733c0.139,0.089,13.981,8.956,25.521,16.829c11.428,7.801,17.214,17.882,25.86,37.53
				c2.886,6.56,6.184,12.999,9.374,19.225c5.564,10.874,10.38,20.266,10.38,25.63c0,3.614-2.444,11.687-5.274,21.035
				c-3.674,12.139-7.84,25.896-7.84,33.604c0,4.109-0.748,9.777-1.612,16.339c-2.008,15.239-4.76,36.114,0.815,50.306l5.06,10.112
				L654.089,342.376z"/>
			<path fill="#FFFFFF" d="M626.791,435.438c2.454,3.815,4.39,7.625,5.381,11.206l1.984-0.551
				c-0.994-3.586-2.869-7.365-5.244-11.142C628.251,435.263,627.529,435.44,626.791,435.438z"/>
			<path fill="#FFFFFF" d="M690.09,398.853c-14.33-19.343-30.317-56.96-30.476-57.337l-0.396-0.924l-0.931,0.363
				c-2.455,0.96-60.198,23.622-66.131,36.966c-2.664,5.992-2.938,10.289-0.853,15.037c0.589-0.374,1.244-0.649,1.938-0.778
				c-1.987-4.502-1.527-8.205,0.791-13.422c5.203-11.706,56.505-32.502,64.069-35.517c2.567,5.942,17.11,39.008,30.318,56.838
				c14.362,19.384,29.736,47.814,29.889,48.102l1.824-0.974C719.98,446.918,704.536,418.36,690.09,398.853z"/>
			<path fill="#FFFFFF" d="M600.099,434.778c0.035,3.922-0.114,8.177-0.594,12.808l2.049,0.213c0.481-4.656,0.639-8.931,0.607-12.87
				C601.507,435.027,600.814,434.992,600.099,434.778z"/>
			<path fill="#FFFFFF" d="M577.635,393.786c3.835-6.05,9.258-13.78,15.867-22.573c0.577-0.764,0.771-1.021,0.535-1.574
				l-0.965,0.413l-0.829-0.593l-0.386,0.518c-4.399,5.854-11.027,14.912-15.973,22.709
				C576.518,392.938,577.115,393.314,577.635,393.786z"/>
			<path fill="#FFFFFF" d="M581.359,433.303c1.805,3.83,3.526,8.139,4.912,13.064l1.985-0.562
				c-1.248-4.435-2.758-8.368-4.352-11.905C583.028,433.771,582.183,433.564,581.359,433.303z"/>
			<path fill="#FFFFFF" d="M678.661,378.927l-1.693-1.173l17.39-25.118c-0.799-3.323-5.45-23.062-6.138-33.231
				c-0.472-7.096-6.247-9.977-9.69-11.066c2.544,4.35,6.062,14.282-5.229,25.57l-10.424,10.418c-0.902,0.898-1.514,1.51-1.95,1.896
				l-0.708-0.703l0.708,0.703c-0.037,0.031-0.065,0.062-0.104,0.092l0.021,0.033l-0.024-0.025c-0.812,0.688-0.979,0.521-1.448,0.052
				l-0.729-0.729l0.85-0.851l0.005,0.001c0.447-0.443,2.662-2.65,12.354-12.342c13.666-13.666,3.954-24.588,3.536-25.045
				l-1.929-2.104l2.825,0.389c0.134,0.021,13.226,1.945,14,13.576c0.719,10.722,6.135,33.111,6.188,33.336l0.108,0.449
				L678.661,378.927z"/>
			<path fill="#FFFFFF" d="M797.332,412.593c-44.358-7.009-59.495-26.475-67.627-36.934c-1.521-1.954-2.83-3.646-4.042-4.896
				c-7.769-8.029-30.347-16.871-30.572-16.962l0.746-1.918c0.943,0.366,23.229,9.091,31.306,17.446
				c1.29,1.335,2.639,3.062,4.189,5.062c8.515,10.953,22.768,29.281,66.321,36.164L797.332,412.593z"/>
			<path fill="#FFFFFF" d="M671.544,333.216c-0.264-6.759-2.338-66.248,5.568-73.641c2.153-2.015,4.812-4.146,7.89-6.609
				c8.164-6.538,18.325-14.677,26.713-26.737c8.896-12.784,9.146-15.535,9.825-22.892c0.204-2.208,0.435-4.711,0.927-7.999
				c1.006-6.695,3.598-29.132-5.291-36.743c-3.142-2.693-7.527-3.184-13.049-1.46c-22.474,7.026-27.689,21.781-27.74,21.931
				l-0.146,0.285l-3.235,4.369c-0.549,0.742-1.315,1.039-2.104,0.82c-4.752-1.33-10.677-27.405-11.821-39.947
				c-0.614-6.691-3.499-12.585-6.835-19.408c-4.451-9.102-9.99-20.426-12.09-37.996c-3.679-30.729-24.393-36.947-44.424-42.961
				c-24.412-7.332-64.033,2.328-85.48,8.74c-28.489,8.518-42.854,35.698-42.996,35.972l-0.288,0.556h-0.625
				c-2.104,0-4.54-1.99-6.509-5.324c-3.583-6.061-5.791-16.73-0.22-26.859c1.185-2.152,2.421-4.725,3.729-7.447
				c7.676-15.953,19.275-40.061,52.925-51.775l0.683,1.945c-32.85,11.432-44.225,35.074-51.751,50.721
				c-1.321,2.748-2.571,5.345-3.782,7.548c-5.152,9.368-3.12,19.224,0.188,24.817c1.491,2.521,3.071,3.864,4.187,4.219
				c2.424-4.275,17.062-28.332,43.874-36.347c21.668-6.479,61.737-16.227,86.666-8.739c20.668,6.205,42.04,12.62,45.874,44.688
				c2.058,17.224,7.281,27.909,11.894,37.335c3.431,7.008,6.388,13.059,7.036,20.125c1.421,15.488,7.716,37.31,10.326,38.153
				l3.037-4.296c0.628-1.727,6.439-16.031,29.021-23.09c6.238-1.953,11.287-1.327,15.005,1.859
				c9.688,8.302,7.031,31.653,5.988,38.613c-0.483,3.23-0.712,5.703-0.913,7.884c-0.69,7.53-0.979,10.647-10.185,23.876
				c-8.562,12.307-18.854,20.549-27.118,27.17c-3.045,2.438-5.673,4.544-7.771,6.506c-6.105,5.712-5.619,53.951-4.916,72.057
				L671.544,333.216z"/>
			<path fill="#FFFFFF" d="M675.2,268.311l-0.554-1.979c16.317-4.562,31.912-16.915,45.082-35.729
				c8.473-12.102,9.646-21.5,11.426-35.734c1.371-10.963,3.078-24.607,8.828-44.098c8.496-28.791,4.672-61.943-11.363-98.532
				l-0.247-0.563c-3.957-9.043-33.243-10.334-44.198-10.061l-1.273,0.031l0.238-1.256c0.045-0.234,4.25-23.531-16.209-39.9
				l1.287-1.609c18.684,14.947,17.711,35.44,17.117,40.656c6.92-0.077,40.064,0.205,44.925,11.312l0.248,0.562
				c16.235,37.047,20.089,70.672,11.45,99.943c-5.704,19.328-7.396,32.88-8.758,43.77c-1.753,14.018-3.021,24.144-11.782,36.661
				C707.97,250.986,691.989,263.619,675.2,268.311z"/>
			<path fill="#FFFFFF" d="M260.208,378.896l-1.733-1.111c2.392-3.729,5.052-9.135,8.136-15.396
				c8.416-17.098,18.891-38.377,32.555-43.297c13.744-4.947,34.745-28.184,48.641-43.561c4.288-4.742,7.99-8.84,10.713-11.562
				c6.668-6.668,8.672-14.809,10.985-24.236c1.591-6.469,3.396-13.803,7.03-21.375c9.271-19.32,20.994-33.338,28.504-34.089
				c5.015-0.501,5.505-8.093,5.505-11.048l-30.538,5.768c-2.521,1.455-37.3,22.089-38.67,51.519l-2.057-0.096
				c1.469-31.534,38.297-52.427,39.861-53.301l0.312-0.113l33.035-6.24l0.082,1.155c0.037,0.555,0.855,13.588-7.325,14.406
				c-6.618,0.661-18.161,14.818-26.854,32.931c-3.543,7.382-5.241,14.293-6.884,20.979c-2.392,9.729-4.457,18.127-11.53,25.201
				c-2.686,2.688-6.369,6.766-10.641,11.486c-14.035,15.523-35.243,38.993-49.473,44.113c-12.881,4.64-23.152,25.505-31.404,42.271
				C265.347,369.616,262.662,375.072,260.208,378.896z"/>
			<path fill="#FFFFFF" d="M188.302,330.549l-1.524-1.385c0.412-0.453,41.144-45.457,43.971-61.729
				c2.204-12.668-3.688-37.418-7.21-52.208c-1.072-4.493-1.916-8.042-2.259-10.101c-1.504-9.012,22.994-33.148,25.794-35.873
				l1.436,1.477c-7.389,7.19-26.322,27.325-25.197,34.057c0.329,1.99,1.168,5.51,2.23,9.963c3.557,14.938,9.513,39.948,7.236,53.035
				C229.847,284.645,189.997,328.682,188.302,330.549z"/>
			<path fill="#FFFFFF" d="M516.048,335.996c-8.521,0-14.532-2.729-20.695-5.523c-2.182-0.988-4.438-2.016-6.794-2.891
				c-16.427-6.1-21.256-30.114-25.134-49.409l-0.768-3.799c-2-9.74-5.463-19.999-8.813-29.918
				c-3.232-9.593-6.299-18.651-8.186-27.378c-3.907-18.079-0.106-27.425,0.056-27.814l1.901,0.797
				c-0.039,0.091-3.699,9.212,0.057,26.583c1.862,8.611,4.903,17.618,8.124,27.153c3.37,9.979,6.855,20.297,8.879,30.163
				l0.771,3.806c3.771,18.795,8.479,42.188,23.832,47.892c2.423,0.896,4.713,1.938,6.928,2.94
				c13.517,6.131,26.282,11.928,69.091-13.174l1.041,1.776C541.835,331.564,526.905,335.995,516.048,335.996z"/>
			<path fill="#FFFFFF" d="M543.583,434.274c-6.884,5.595-12.929,10.484-15.112,12.252c-1.205-1.769-4.028-5.978-7.438-11.512
				c-0.707,0.292-1.396,0.513-2.061,0.651c4.478,7.272,8.026,12.366,8.439,12.954l0.633,0.903l0.86-0.699
				c0.688-0.558,8.188-6.617,16.798-13.613C544.938,435.054,544.214,434.725,543.583,434.274z"/>
			<path fill="#FFFFFF" d="M472.843,391.854c-6.23-11.478-7.225-30.75-2.708-38.492c4.24-7.262,25.399-17.066,31.012-19.571
				c-0.062,4.013-0.715,16.151-1.351,27.946c-0.216,4.037-0.437,8.166-0.646,12.166c-2.271,2.136-3.448,10.721-4.061,19.197
				c0.221-0.078,0.447-0.149,0.688-0.207c0.504-0.119,0.977-0.16,1.432-0.162c0.42-5.498,0.994-10.121,1.651-13.203
				c-0.104,2.014-0.198,3.957-0.286,5.805c-0.112,2.367,0.173,5.011,0.76,7.833c1.002,0.435,1.86,1.155,2.597,2.039
				c-0.94-3.591-1.436-6.915-1.299-9.78c0.332-7.021,0.789-15.49,1.229-23.581c1.616-30.178,1.616-30.178,0.626-30.565l-0.396-0.15
				l-0.385,0.166c-1.15,0.488-28.136,12.094-33.346,21.031c-4.832,8.273-3.995,28.222,2.636,40.453
				C471.547,392.361,472.174,392.042,472.843,391.854z"/>
			<path fill="#FFFFFF" d="M476.074,216.063c-2.994-3.574-4.303-7.491-3.896-11.641c0.861-8.702,8.943-15.287,9.289-15.562
				l1.29,1.605c-0.075,0.062-7.761,6.334-8.526,14.168c-0.354,3.576,0.801,6.977,3.421,10.108L476.074,216.063z"/>
			<path fill="#FFFFFF" d="M536.57,208.868l-1.989-0.53c2.204-8.272-4.507-11.292-4.795-11.417l0.821-1.888
				C530.693,195.069,539.227,198.901,536.57,208.868z"/>
			<path fill="#FFFFFF" d="M532.743,263.248c-6.271-2.497-17.188-6.225-19.778-5.562c-0.828,0.209-1.518,0.465-2.178,0.709
				c-2.547,0.938-4.745,1.744-11.498-0.233c-7.777-2.281-21.029,4.962-21.163,5.03l-0.994-1.803
				c0.573-0.312,14.146-7.727,22.736-5.209c6.104,1.795,7.916,1.125,10.206,0.28c0.725-0.267,1.479-0.543,2.389-0.771
				c4.098-1.035,19.318,4.957,21.042,5.645L532.743,263.248z"/>
			<path fill="#FFFFFF" d="M503.98,268.411c-7.595,0-13.116-1.894-13.468-2.015l0.687-1.943c0.123,0.043,12.307,4.199,25.079-0.008
				l0.642,1.957C512.348,267.908,507.891,268.411,503.98,268.411z"/>
			<path fill="#FFFFFF" d="M489.488,213.169c-0.188-1.357-3.644-1.996-7.709-1.432c-4.074,0.566-7.228,2.121-7.033,3.477
				c0.187,1.354,3.641,1.994,7.711,1.428C486.532,216.078,489.678,214.521,489.488,213.169z"/>
			<path fill="#FFFFFF" d="M523.942,213.628c0.221-1.348-2.89-2.988-6.938-3.66c-4.057-0.67-7.528-0.121-7.752,1.227
				c-0.221,1.352,2.887,2.988,6.94,3.66C520.25,215.524,523.719,214.976,523.942,213.628z"/>
			<path fill="#FFFFFF" d="M276.201,171.024c-13.958,0-25.311-15.004-25.311-33.447c0-18.443,11.353-33.447,25.311-33.447
				s25.312,15.004,25.312,33.447C301.513,156.02,290.159,171.024,276.201,171.024z M276.201,106.19
				c-12.821,0-23.251,14.079-23.251,31.387c0,17.307,10.43,31.389,23.251,31.389c12.821,0,23.253-14.082,23.253-31.389
				C299.454,120.27,289.022,106.19,276.201,106.19z"/>
			<path fill="#FFFFFF" d="M276.201,190.692c-20.946,0-37.985-22.594-37.985-50.366s17.039-50.366,37.985-50.366
				c20.946,0,37.985,22.594,37.985,50.366S297.147,190.692,276.201,190.692z M276.201,92.02c-19.81,0-35.926,21.671-35.926,48.307
				c0,26.637,16.116,48.308,35.926,48.308c19.811,0,35.928-21.671,35.928-48.308C312.129,113.69,296.012,92.02,276.201,92.02z"/>
			<path fill="#FFFFFF" d="M453.346,190.692c-20.942,0-37.983-22.594-37.983-50.366S432.4,89.96,453.346,89.96
				c20.944,0,37.984,22.594,37.984,50.366S474.29,190.692,453.346,190.692z M453.346,92.02c-19.812,0-35.928,21.671-35.928,48.307
				c0,26.637,16.116,48.308,35.928,48.308c19.812,0,35.928-21.671,35.928-48.308C489.271,113.69,473.153,92.02,453.346,92.02z"/>
			<path fill="#FFFFFF" d="M453.348,171.024c-13.958,0-25.312-15.004-25.312-33.447c0-18.443,11.354-33.447,25.312-33.447
				c13.955,0,25.312,15.004,25.312,33.447C478.659,156.02,467.303,171.024,453.348,171.024z M453.348,106.19
				c-12.819,0-23.256,14.079-23.256,31.387c0,17.307,10.437,31.389,23.256,31.389c12.821,0,23.251-14.082,23.251-31.389
				C476.599,120.27,466.169,106.19,453.348,106.19z"/>
			<path fill="#FFFFFF" d="M320.837,101.546c0,0,0,0-0.002,0c-6.66,0-19.244-5.441-21.296-10.145
				c-0.327-0.756-0.28-1.531,0.145-2.242c2.245-3.765,16.766-5.178,19.653-5.422l0.28-0.025l0.251,0.12
				c6.643,3.163,8.639,7.999,8.293,11.469c-0.301,2.994-2.25,5.292-5.088,6.001C322.425,101.466,321.673,101.546,320.837,101.546z
				 M319.233,85.813c-6.742,0.596-16.545,2.328-17.779,4.4c-0.083,0.137-0.089,0.223-0.026,0.364
				c1.562,3.58,13.167,8.909,19.407,8.909c0.002,0,0.002,0,0.002,0c0.669,0,1.252-0.062,1.738-0.182
				c1.969-0.493,3.324-2.106,3.535-4.21C326.384,92.363,324.712,88.511,319.233,85.813z"/>
			<path fill="#FFFFFF" d="M346.788,106.392c-11.788,0-20.711-7.609-21.119-7.963l1.348-1.557
				c0.104,0.089,10.391,8.838,22.875,7.266c5.021-0.633,9.576-4.791,10.375-9.467c0.634-3.699-1.219-6.859-5.213-8.91
				c-7.646-0.995-27.631-2.527-31.131,1.939l-1.621-1.27c4.879-6.237,30.312-3.072,33.195-2.689l0.325,0.1
				c4.905,2.455,7.269,6.527,6.475,11.176c-0.96,5.613-6.181,10.412-12.146,11.164C349.007,106.325,347.884,106.392,346.788,106.392
				z"/>
			<path fill="#FFFFFF" d="M381.419,96.761c-4.471,0-9.455-0.782-11.695-1.244c-4.871-1.009-8.543-1.874-8.543-1.874l-0.795-0.187
				v-7.124l0.695-0.239c0.469-0.162,11.562-3.972,17.396-5.101c6.521-1.266,10.877,6.247,11.418,11.544
				c0.091,0.859-0.167,1.649-0.734,2.281C387.979,96.126,385.447,96.761,381.419,96.761z M362.445,91.821
				c1.327,0.307,4.201,0.955,7.692,1.679c2.018,0.415,6.969,1.202,11.279,1.202c4.578,0,5.869-0.885,6.213-1.264
				c0.183-0.201,0.245-0.408,0.215-0.693c-0.438-4.324-3.934-10.713-8.978-9.731c-4.871,0.943-13.866,3.927-16.424,4.79
				L362.445,91.821L362.445,91.821z"/>
			<rect x="282.03" y="89.96" fill="#FFFFFF" width="18.454" height="2.06"/>
			<path fill="#FFFFFF" d="M668.015,448.96l-0.883-1.858c29.761-14.136,29.938-14.136,32.822-14.022
				c1.238,0.045,3.121,0.115,9.795-1.628l0.521,1.993c-6.97,1.814-9.021,1.739-10.391,1.689
				C697.581,435.056,697.327,435.04,668.015,448.96z"/>
			<path fill="#FFFFFF" d="M243.412,361.833c-5.484-12.343-58.775-33.253-61.042-34.138l-0.932-0.365l-0.39,0.924
				c-0.15,0.346-14.887,35.032-28.099,52.867c-12.425,16.766-20.946,33.754-22.134,36.162c-2.943,1.704-25.711,15.295-28.392,28.886
				l2.021,0.398c2.623-13.303,27.417-27.512,27.669-27.651l0.279-0.159l0.142-0.289c0.086-0.18,8.843-18.262,22.072-36.118
				c12.132-16.381,25.487-46.689,27.941-52.363c7.222,2.875,54.211,21.949,58.982,32.688c3.522,7.921,2.415,12.029-5.915,21.982
				c-1.759,2.103-3.851,4.479-6.216,7.153c0.635,0.265,1.232,0.648,1.748,1.131c2.292-2.594,4.324-4.905,6.047-6.967
				C245.499,376.051,247.562,371.172,243.412,361.833z"/>
			<path fill="#FFFFFF" d="M197.792,437.676l0.178,1.185c2.961-0.443,5.684-1.117,8.229-1.947
				C203.398,437.157,200.592,437.453,197.792,437.676z"/>
			<path fill="#FFFFFF" d="M235.455,391.793c0.684-0.117,1.38-0.113,2.04,0.01c0.193-2.957,0.117-5.297-0.074-6.636l-2.039,0.291
				C235.564,386.736,235.638,388.971,235.455,391.793z"/>
			<path fill="#FFFFFF" d="M261.68,385.497c0.587,1.371,0.606,3.164,0.238,5.301c0.715-0.146,1.383-0.146,2.075-0.046
				c0.364-2.363,0.293-4.404-0.421-6.068c-3.654-8.522-15.146-14.938-18.694-16.76l-0.505,0.896l0.938,0.431l-1.873-0.854
				l-0.266,0.973l0.877,0.447C247.33,371.501,258.297,377.605,261.68,385.497z"/>
			<path fill="#FFFFFF" d="M247.75,435.064c-0.617,3.685-0.991,7.459-0.991,11.305h2.061c0-3.892,0.401-7.719,1.052-11.459
				C249.165,434.953,248.457,435.004,247.75,435.064z"/>
			<path fill="#FFFFFF" d="M174.821,426.932c-16.802-7.867-28.43-12.771-39.934-15.773l-0.521,1.992
				c11.357,2.963,22.909,7.839,39.626,15.669C174.247,428.159,174.52,427.533,174.821,426.932z"/>
			<path fill="#FFFFFF" d="M193.193,437.947c0.354,0.169,0.7,0.335,1.058,0.506c5.643,2.7,11.789,5.643,18.535,8.845l0.883-1.86
				c-5.841-2.77-11.209-5.338-16.214-7.733C196.032,437.812,194.611,437.897,193.193,437.947z"/>
			<path fill="#FFFFFF" d="M460.734,351.717c-7.953-0.306-29.063-1.132-49.229,0.1c-3.55,0.217-7.126,0.353-10.688,0.49
				c-20.193,0.791-41.076,1.606-56.857,17c-5.563,5.426-12.104,13.748-19.086,22.926c0.801-0.062,1.59,0.074,2.317,0.358
				c6.676-8.759,12.917-16.649,18.205-21.807c15.214-14.841,34.785-15.604,55.5-16.415c3.579-0.141,7.172-0.28,10.734-0.498
				c20.067-1.223,41.102-0.404,49.021-0.092c1.459,0.057,2.415,0.094,2.769,0.094v-2.059
				C463.077,351.814,462.149,351.775,460.734,351.717z"/>
			<path fill="#FFFFFF" d="M289.857,435.017c-4.927,4.778-9.682,8.478-14.07,10.405l0.829,1.891
				c5.056-2.223,10.519-6.627,16.142-12.274C291.824,435.092,290.858,435.087,289.857,435.017z"/>
			<path fill="#FFFFFF" d="M439.643,95.538c-27.791,0-50.625-1.854-50.854-1.871l0.169-2.054c0.226,0.019,22.984,1.866,50.687,1.866
				v2.059H439.643L439.643,95.538z"/>
			<path fill="#FFFFFF" d="M612.586,170.493c-0.117-0.21-11.814-21.242-30.438-40.58c-2.179-2.259-4.312-4.5-6.411-6.701
				c-16.069-16.844-29.944-31.39-41.916-34.54c-3.771-0.993-6.562-0.704-8.287,0.854c-2.912,2.625-2.103,8.135-2.088,8.191
				l0.169,1.095l-1.104,0.091c-18.066,1.443-49.116-0.207-49.428-0.224l0.11-2.058c0.304,0.018,30.048,1.601,48.104,0.307
				c-0.124-2.029-0.002-6.352,2.849-8.926c2.277-2.059,5.709-2.504,10.197-1.322c12.531,3.299,26.601,18.04,42.881,35.109
				c2.103,2.199,4.232,4.438,6.405,6.695c18.819,19.541,30.643,40.801,30.758,41.013L612.586,170.493z"/>
			<path fill="#FFFFFF" d="M279.229,190.687l-0.226-2.047c1.197-0.131,119.879-13.179,144.555-19.641l0.521,1.993
				C399.259,177.491,280.425,190.556,279.229,190.687z"/>
			<path fill="#FFFFFF" d="M453.516,190.679l-0.342-2.031c0.537-0.09,54.104-9.165,85.945-19.227l0.618,1.963
				C507.756,181.489,454.055,190.588,453.516,190.679z"/>
			<path fill="#FFFFFF" d="M361.415,161.755c-4.82,0-8.221-1.217-10.394-3.722c-3.996-4.608-2.88-12.429-1.693-20.707
				c0.547-3.833,1.114-7.796,1.109-11.327c-0.007-4.78,2.231-8.51,6.476-10.785c6.502-3.488,16.188-2.68,18.537-1.592
				c2.645,0.243,30.513,2.734,45.67,1.312l0.188,2.051c-16.021,1.498-45.957-1.305-46.257-1.332l-0.258-0.024l-0.215-0.144
				c-1.084-0.704-10.497-1.821-16.756,1.575c-3.539,1.922-5.334,4.929-5.327,8.937c0.004,3.68-0.573,7.715-1.133,11.621
				c-1.114,7.799-2.167,15.168,1.213,19.066c1.758,2.025,4.646,3.012,8.837,3.012c3.395,0,9.646-0.84,16.883-1.812
				c14.432-1.938,32.396-4.355,40.555-1.878l-0.596,1.971c-7.73-2.346-25.451,0.036-39.686,1.948
				C371.263,160.907,364.95,161.755,361.415,161.755z"/>
		</g>
		<g>
			<rect x="264.801" y="143.839" fill="#FFFFFF" width="2.06" height="10.297"/>
			<rect x="264.801" y="123.244" fill="#FFFFFF" width="2.06" height="10.298"/>
			<rect x="264.801" y="102.649" fill="#FFFFFF" width="2.06" height="10.298"/>
			<rect x="264.801" y="164.434" fill="#FFFFFF" width="2.06" height="10.297"/>
			<rect x="264.801" y="185.028" fill="#FFFFFF" width="2.06" height="10.297"/>
			<rect x="264.801" y="20.271" fill="#FFFFFF" width="2.06" height="10.297"/>
			<rect x="264.801" y="205.623" fill="#FFFFFF" width="2.06" height="10.298"/>
			<rect x="264.801" y="-0.323" fill="#FFFFFF" width="2.06" height="10.297"/>
			<rect x="264.801" y="61.46" fill="#FFFFFF" width="2.06" height="10.298"/>
			<rect x="264.801" y="40.866" fill="#FFFFFF" width="2.06" height="10.297"/>
			<rect x="264.801" y="82.055" fill="#FFFFFF" width="2.06" height="10.298"/>
			<rect x="264.801" y="349.785" fill="#FFFFFF" width="2.06" height="10.297"/>
			<rect x="264.801" y="370.38" fill="#FFFFFF" width="2.06" height="10.297"/>
			<path fill="#FFFFFF" d="M264.801,434.833v7.628h2.06v-7.576C266.174,434.867,265.488,434.851,264.801,434.833z"/>
			<rect x="264.801" y="288.002" fill="#FFFFFF" width="2.06" height="10.297"/>
			<rect x="264.801" y="267.407" fill="#FFFFFF" width="2.06" height="10.297"/>
			<rect x="264.801" y="329.189" fill="#FFFFFF" width="2.06" height="10.297"/>
			<rect x="264.801" y="246.811" fill="#FFFFFF" width="2.06" height="10.299"/>
			<rect x="264.801" y="226.218" fill="#FFFFFF" width="2.06" height="10.296"/>
			<rect x="264.801" y="308.596" fill="#FFFFFF" width="2.06" height="10.297"/>
			<path fill="#FFFFFF" d="M534.751,393.326V-1.911h-6.18v394.83C530.398,391.802,533.027,391.938,534.751,393.326z"/>
			<path fill="#FFFFFF" d="M528.571,435.526V450h6.18v-14.751C532.879,436.663,530.213,436.928,528.571,435.526z"/>
			<g>
				<rect y="297.707" fill="#FFFFFF" width="5.148" height="2.061"/>
				<path fill="#FFFFFF" d="M782.12,299.768h-10.224v-2.061h10.224V299.768z M761.675,299.768H751.45v-2.061h10.225V299.768z
					 M741.227,299.768h-10.223v-2.061h10.223V299.768z M720.781,299.768h-10.228v-2.061h10.228V299.768z M700.334,299.768h-10.223
					v-2.061h10.223V299.768z M679.888,299.768h-10.223v-2.061h10.223V299.768z M659.44,299.768h-10.228v-2.061h10.228V299.768z
					 M638.994,299.768H628.77v-2.061h10.229L638.994,299.768L638.994,299.768z M618.548,299.768h-10.225v-2.061h10.225V299.768z
					 M598.101,299.768h-10.224v-2.061h10.224V299.768z M577.654,299.768H567.43v-2.061h10.229L577.654,299.768L577.654,299.768z
					 M557.207,299.768h-10.223v-2.061h10.223V299.768z M536.762,299.768h-10.223v-2.061h10.223V299.768z M516.314,299.768H506.09
					v-2.061h10.228L516.314,299.768L516.314,299.768z M495.867,299.768h-10.225v-2.061h10.225V299.768z M475.419,299.768h-10.222
					v-2.061h10.222V299.768z M454.975,299.768h-10.223v-2.061h10.223V299.768z M434.526,299.768H424.3v-2.061h10.228
					L434.526,299.768L434.526,299.768z M414.081,299.768h-10.223v-2.061h10.223V299.768z M393.635,299.768h-10.226v-2.061h10.226
					V299.768z M373.188,299.768h-10.224v-2.061h10.224V299.768z M352.741,299.768h-10.225v-2.061h10.225V299.768z M332.294,299.768
					H322.07v-2.061h10.224V299.768z M311.848,299.768h-10.224v-2.061h10.224V299.768z M291.399,299.768h-10.223v-2.061h10.223
					V299.768z M270.954,299.768h-10.223v-2.061h10.223V299.768z M250.509,299.768h-10.226v-2.061h10.226V299.768z M230.061,299.768
					h-10.224v-2.061h10.224V299.768z M209.614,299.768h-10.223v-2.061h10.223V299.768L209.614,299.768z M189.167,299.768h-10.223
					v-2.061h10.223V299.768L189.167,299.768z M168.722,299.768h-10.224v-2.061h10.224V299.768z M148.274,299.768H138.05v-2.061
					h10.225L148.274,299.768L148.274,299.768z M127.827,299.768h-10.223v-2.061h10.223V299.768z M107.382,299.768H97.157v-2.061
					h10.225V299.768L107.382,299.768z M86.934,299.768H76.71v-2.061h10.224V299.768z M66.487,299.768H56.265v-2.061h10.223
					L66.487,299.768L66.487,299.768z M46.04,299.768H35.817v-2.061H46.04V299.768z M25.595,299.768H15.371v-2.061h10.224V299.768z"
					/>
				<rect x="792.344" y="297.707" fill="#FFFFFF" width="5.148" height="2.061"/>
			</g>
			<rect y="146.119" fill="#FFFFFF" width="800" height="6.178"/>
		</g>
	</g>
</g>
<g id="Layer_4">
	<rect x="174.5" y="399.651" fill="none" width="451" height="36"/>
	<g enable-background="new    ">
		<path fill="#FFFFFF" d="M185.828,403.94c-0.096-0.288-0.192-0.64-0.192-0.928c0-1.376,1.152-2.4,2.528-2.4
			c1.152,0,2.08,0.736,2.4,1.761l4.448,13.727l4.479-13.599c0.384-1.152,1.248-1.952,2.496-1.952h0.384
			c1.248,0,2.112,0.768,2.496,1.952l4.48,13.599l4.448-13.727c0.32-0.96,1.152-1.761,2.368-1.761c1.344,0,2.432,1.024,2.432,2.368
			c0,0.288-0.096,0.672-0.192,0.96l-6.271,17.599c-0.448,1.248-1.376,2.016-2.56,2.016h-0.512c-1.184,0-2.08-0.735-2.528-2.016
			l-4.416-12.831l-4.416,12.831c-0.448,1.28-1.344,2.016-2.528,2.016h-0.512c-1.184,0-2.112-0.768-2.56-2.016L185.828,403.94z"/>
		<path fill="#FFFFFF" d="M221.54,402.085c0-1.344,1.088-2.433,2.432-2.433c1.344,0,2.432,1.089,2.432,2.433v6.399
			c1.12-1.44,2.56-2.752,5.023-2.752c3.68,0,5.824,2.432,5.824,6.367v8.863c0,1.345-1.088,2.433-2.432,2.433
			c-1.344,0-2.432-1.088-2.432-2.433v-7.327c0-2.304-1.088-3.487-2.944-3.487c-1.855,0-3.04,1.184-3.04,3.487v7.327
			c0,1.345-1.088,2.433-2.432,2.433c-1.344,0-2.432-1.088-2.432-2.433V402.085z"/>
		<path fill="#FFFFFF" d="M240.451,418.275v-0.063c0-3.744,2.848-5.472,6.912-5.472c1.728,0,2.976,0.288,4.191,0.703v-0.287
			c0-2.017-1.248-3.136-3.68-3.136c-1.344,0-2.432,0.191-3.359,0.479c-0.288,0.096-0.48,0.128-0.704,0.128
			c-1.12,0-2.016-0.864-2.016-1.983c0-0.864,0.544-1.601,1.312-1.889c1.536-0.575,3.2-0.896,5.472-0.896
			c2.656,0,4.576,0.704,5.792,1.92c1.28,1.28,1.856,3.168,1.856,5.472v7.808c0,1.312-1.056,2.336-2.368,2.336
			c-1.408,0-2.336-0.992-2.336-2.017v-0.031c-1.184,1.312-2.816,2.176-5.184,2.176C243.107,423.523,240.451,421.667,240.451,418.275
			z M251.619,417.155v-0.863c-0.832-0.385-1.92-0.641-3.104-0.641c-2.08,0-3.36,0.832-3.36,2.368v0.064
			c0,1.312,1.088,2.079,2.656,2.079C250.083,420.163,251.619,418.915,251.619,417.155z"/>
		<path fill="#FFFFFF" d="M261.059,418.34v-8.128h-0.16c-1.152,0-2.08-0.928-2.08-2.08c0-1.151,0.928-2.079,2.08-2.079h0.16v-2.145
			c0-1.344,1.088-2.432,2.432-2.432c1.344,0,2.432,1.088,2.432,2.432v2.145h2.144c1.152,0,2.08,0.928,2.08,2.079
			c0,1.152-0.928,2.08-2.08,2.08h-2.144v7.327c0,1.12,0.48,1.664,1.568,1.664c0.16,0,0.48-0.031,0.576-0.031
			c1.088,0,2.016,0.896,2.016,2.016c0,0.863-0.576,1.567-1.248,1.823c-0.896,0.353-1.728,0.48-2.784,0.48
			C263.075,423.491,261.059,422.308,261.059,418.34z"/>
		<path fill="#FFFFFF" d="M283.075,401.957c0-1.408,1.184-2.272,2.72-2.272c1.536,0,2.72,0.864,2.72,2.272v0.063
			c0,1.408-1.184,2.304-2.72,2.304c-1.536,0-2.72-0.896-2.72-2.304V401.957z M283.363,408.292c0-1.344,1.088-2.432,2.432-2.432
			c1.344,0,2.432,1.088,2.432,2.432v12.671c0,1.345-1.088,2.433-2.432,2.433c-1.344,0-2.432-1.088-2.432-2.433V408.292z"/>
		<path fill="#FFFFFF" d="M292.354,421.571c-0.512-0.32-0.928-0.896-0.928-1.664c0-1.088,0.832-1.92,1.92-1.92
			c0.352,0,0.704,0.097,0.96,0.256c1.632,1.024,3.264,1.536,4.64,1.536c1.408,0,2.048-0.512,2.048-1.28v-0.063
			c0-1.056-1.664-1.408-3.552-1.984c-2.4-0.703-5.12-1.823-5.12-5.151v-0.063c0-3.488,2.816-5.439,6.271-5.439
			c1.792,0,3.648,0.479,5.312,1.312c0.704,0.352,1.152,0.992,1.152,1.824c0,1.088-0.864,1.919-1.952,1.919
			c-0.352,0-0.576-0.063-0.896-0.224c-1.376-0.672-2.688-1.088-3.711-1.088c-1.184,0-1.792,0.512-1.792,1.184v0.064
			c0,0.96,1.632,1.408,3.488,2.048c2.4,0.8,5.184,1.952,5.184,5.088v0.063c0,3.808-2.848,5.536-6.56,5.536
			C296.706,423.523,294.434,422.915,292.354,421.571z"/>
		<path fill="#FFFFFF" d="M318.53,420.835c-0.544-0.384-0.928-1.088-0.928-1.855c0-1.28,1.024-2.271,2.304-2.271
			c0.64,0,1.088,0.224,1.408,0.447c1.696,1.248,3.552,2.017,5.728,2.017c2.016,0,3.232-0.801,3.232-2.112v-0.064
			c0-1.247-0.768-1.888-4.512-2.848c-4.512-1.151-7.423-2.399-7.423-6.848v-0.063c0-4.063,3.264-6.752,7.839-6.752
			c2.72,0,5.088,0.704,7.104,1.984c0.544,0.32,1.088,0.992,1.088,1.952c0,1.279-1.024,2.271-2.304,2.271
			c-0.48,0-0.864-0.128-1.248-0.352c-1.632-0.96-3.167-1.504-4.704-1.504c-1.888,0-2.88,0.863-2.88,1.951v0.064
			c0,1.472,0.96,1.951,4.832,2.943c4.543,1.185,7.103,2.816,7.103,6.72v0.064c0,4.447-3.392,6.943-8.223,6.943
			C324.001,423.523,321.026,422.627,318.53,420.835z"/>
		<path fill="#FFFFFF" d="M338.946,402.085c0-1.344,1.088-2.433,2.432-2.433c1.344,0,2.432,1.089,2.432,2.433v6.399
			c1.12-1.44,2.56-2.752,5.023-2.752c3.68,0,5.824,2.432,5.824,6.367v8.863c0,1.345-1.088,2.433-2.432,2.433
			c-1.344,0-2.432-1.088-2.432-2.433v-7.327c0-2.304-1.088-3.487-2.944-3.487c-1.855,0-3.04,1.184-3.04,3.487v7.327
			c0,1.345-1.088,2.433-2.432,2.433c-1.344,0-2.432-1.088-2.432-2.433V402.085z"/>
		<path fill="#FFFFFF" d="M358.049,414.724v-0.063c0-4.928,3.968-8.928,9.312-8.928c5.312,0,9.247,3.936,9.247,8.863v0.064
			c0,4.927-3.967,8.927-9.311,8.927C361.985,423.587,358.049,419.651,358.049,414.724z M371.809,414.724v-0.063
			c0-2.528-1.824-4.736-4.512-4.736c-2.784,0-4.448,2.145-4.448,4.672v0.064c0,2.527,1.824,4.735,4.512,4.735
			C370.145,419.396,371.809,417.252,371.809,414.724z"/>
		<path fill="#FFFFFF" d="M380.929,418.34v-8.128h-0.16c-1.152,0-2.08-0.928-2.08-2.08c0-1.151,0.928-2.079,2.08-2.079h0.16v-2.145
			c0-1.344,1.088-2.432,2.432-2.432c1.344,0,2.432,1.088,2.432,2.432v2.145h2.144c1.152,0,2.08,0.928,2.08,2.079
			c0,1.152-0.928,2.08-2.08,2.08h-2.144v7.327c0,1.12,0.48,1.664,1.568,1.664c0.16,0,0.48-0.031,0.576-0.031
			c1.088,0,2.016,0.896,2.016,2.016c0,0.863-0.576,1.567-1.248,1.823c-0.896,0.353-1.728,0.48-2.784,0.48
			C382.945,423.491,380.929,422.308,380.929,418.34z"/>
		<path fill="#FFFFFF" d="M393.921,403.076c0-1.375,1.088-2.464,2.464-2.464c1.375,0,2.463,1.089,2.463,2.464v15.647h9.12
			c1.248,0,2.239,0.992,2.239,2.239c0,1.248-0.991,2.24-2.239,2.24h-11.583c-1.376,0-2.464-1.088-2.464-2.464V403.076z"/>
		<path fill="#FFFFFF" d="M413.152,401.957c0-1.408,1.184-2.272,2.72-2.272s2.72,0.864,2.72,2.272v0.063
			c0,1.408-1.184,2.304-2.72,2.304s-2.72-0.896-2.72-2.304V401.957z M413.44,408.292c0-1.344,1.088-2.432,2.432-2.432
			c1.345,0,2.433,1.088,2.433,2.432v12.671c0,1.345-1.088,2.433-2.433,2.433c-1.344,0-2.432-1.088-2.432-2.433V408.292z"/>
		<path fill="#FFFFFF" d="M422.432,421.571c-0.512-0.32-0.928-0.896-0.928-1.664c0-1.088,0.832-1.92,1.92-1.92
			c0.352,0,0.704,0.097,0.96,0.256c1.632,1.024,3.264,1.536,4.64,1.536c1.408,0,2.048-0.512,2.048-1.28v-0.063
			c0-1.056-1.664-1.408-3.552-1.984c-2.4-0.703-5.119-1.823-5.119-5.151v-0.063c0-3.488,2.815-5.439,6.271-5.439
			c1.791,0,3.647,0.479,5.311,1.312c0.705,0.352,1.152,0.992,1.152,1.824c0,1.088-0.863,1.919-1.951,1.919
			c-0.353,0-0.576-0.063-0.896-0.224c-1.376-0.672-2.688-1.088-3.711-1.088c-1.185,0-1.793,0.512-1.793,1.184v0.064
			c0,0.96,1.633,1.408,3.488,2.048c2.4,0.8,5.184,1.952,5.184,5.088v0.063c0,3.808-2.848,5.536-6.56,5.536
			C426.783,423.523,424.512,422.915,422.432,421.571z"/>
		<path fill="#FFFFFF" d="M439.424,418.34v-8.128h-0.16c-1.151,0-2.08-0.928-2.08-2.08c0-1.151,0.929-2.079,2.08-2.079h0.16v-2.145
			c0-1.344,1.088-2.432,2.432-2.432c1.345,0,2.433,1.088,2.433,2.432v2.145h2.144c1.151,0,2.08,0.928,2.08,2.079
			c0,1.152-0.929,2.08-2.08,2.08h-2.144v7.327c0,1.12,0.479,1.664,1.567,1.664c0.16,0,0.48-0.031,0.576-0.031
			c1.088,0,2.016,0.896,2.016,2.016c0,0.863-0.576,1.567-1.248,1.823c-0.896,0.353-1.728,0.48-2.783,0.48
			C441.439,423.491,439.424,422.308,439.424,418.34z"/>
		<path fill="#FFFFFF" d="M451.775,408.964c1.632-0.384,2.528-1.504,2.464-3.039c-1.119-0.288-2.239-1.248-2.239-2.624v-0.064
			c0-1.504,1.056-2.624,2.655-2.624c1.792,0,2.848,1.376,2.848,3.584v0.128c0,2.336-0.703,4.064-1.888,5.248
			c-0.96,0.96-2.399,1.536-3.584,1.536c-0.863,0-1.216-0.513-1.216-1.088C450.815,409.444,451.231,409.092,451.775,408.964z"/>
		<path fill="#FFFFFF" d="M460.447,421.571c-0.512-0.32-0.928-0.896-0.928-1.664c0-1.088,0.832-1.92,1.92-1.92
			c0.353,0,0.704,0.097,0.96,0.256c1.632,1.024,3.264,1.536,4.64,1.536c1.408,0,2.048-0.512,2.048-1.28v-0.063
			c0-1.056-1.664-1.408-3.552-1.984c-2.399-0.703-5.119-1.823-5.119-5.151v-0.063c0-3.488,2.815-5.439,6.271-5.439
			c1.792,0,3.647,0.479,5.312,1.312c0.704,0.352,1.151,0.992,1.151,1.824c0,1.088-0.863,1.919-1.951,1.919
			c-0.353,0-0.576-0.063-0.896-0.224c-1.376-0.672-2.688-1.088-3.712-1.088c-1.184,0-1.792,0.512-1.792,1.184v0.064
			c0,0.96,1.633,1.408,3.488,2.048c2.399,0.8,5.184,1.952,5.184,5.088v0.063c0,3.808-2.848,5.536-6.56,5.536
			C464.799,423.523,462.527,422.915,460.447,421.571z"/>
		<path fill="#FFFFFF" d="M487.359,418.34v-8.128h-0.16c-1.151,0-2.079-0.928-2.079-2.08c0-1.151,0.928-2.079,2.079-2.079h0.16
			v-2.145c0-1.344,1.088-2.432,2.432-2.432c1.345,0,2.433,1.088,2.433,2.432v2.145h2.144c1.151,0,2.08,0.928,2.08,2.079
			c0,1.152-0.929,2.08-2.08,2.08h-2.144v7.327c0,1.12,0.479,1.664,1.567,1.664c0.16,0,0.48-0.031,0.576-0.031
			c1.088,0,2.016,0.896,2.016,2.016c0,0.863-0.576,1.567-1.248,1.823c-0.896,0.353-1.728,0.48-2.783,0.48
			C489.375,423.491,487.359,422.308,487.359,418.34z"/>
		<path fill="#FFFFFF" d="M498.815,418.275v-0.063c0-3.744,2.848-5.472,6.911-5.472c1.728,0,2.976,0.288,4.191,0.703v-0.287
			c0-2.017-1.248-3.136-3.68-3.136c-1.344,0-2.432,0.191-3.359,0.479c-0.288,0.096-0.48,0.128-0.704,0.128
			c-1.12,0-2.016-0.864-2.016-1.983c0-0.864,0.544-1.601,1.312-1.889c1.536-0.575,3.2-0.896,5.472-0.896
			c2.656,0,4.576,0.704,5.792,1.92c1.279,1.28,1.855,3.168,1.855,5.472v7.808c0,1.312-1.056,2.336-2.368,2.336
			c-1.407,0-2.336-0.992-2.336-2.017v-0.031c-1.184,1.312-2.815,2.176-5.184,2.176C501.471,423.523,498.815,421.667,498.815,418.275
			z M509.982,417.155v-0.863c-0.832-0.385-1.92-0.641-3.104-0.641c-2.079,0-3.359,0.832-3.359,2.368v0.064
			c0,1.312,1.088,2.079,2.656,2.079C508.446,420.163,509.982,418.915,509.982,417.155z"/>
		<path fill="#FFFFFF" d="M520.19,427.203c-0.832-0.32-1.376-0.992-1.376-1.888c0-1.089,0.896-1.984,1.983-1.984
			c0.32,0,0.576,0.064,0.8,0.16c1.408,0.64,2.912,1.023,4.736,1.023c3.327,0,4.896-1.6,4.896-4.671v-0.832
			c-1.44,1.728-3.008,2.783-5.6,2.783c-4,0-7.615-2.911-7.615-7.999v-0.064c0-5.119,3.68-7.999,7.615-7.999
			c2.655,0,4.224,1.12,5.535,2.56v-0.032c0-1.312,1.088-2.399,2.433-2.399c1.344,0,2.432,1.088,2.432,2.432v11.039
			c0,3.072-0.736,5.312-2.176,6.752c-1.601,1.6-4.064,2.304-7.392,2.304C524.189,428.387,522.206,428.003,520.19,427.203z
			 M531.229,413.796v-0.064c0-2.336-1.824-3.968-4.191-3.968c-2.368,0-4.16,1.632-4.16,3.968v0.064c0,2.368,1.792,3.968,4.16,3.968
			C529.405,417.764,531.229,416.132,531.229,413.796z"/>
		<path fill="#FFFFFF" d="M540.605,402.085c0-1.344,1.088-2.433,2.433-2.433c1.344,0,2.432,1.089,2.432,2.433v18.878
			c0,1.345-1.088,2.433-2.432,2.433c-1.345,0-2.433-1.088-2.433-2.433V402.085z"/>
		<path fill="#FFFFFF" d="M549.982,401.957c0-1.408,1.184-2.272,2.72-2.272c1.535,0,2.72,0.864,2.72,2.272v0.063
			c0,1.408-1.185,2.304-2.72,2.304c-1.536,0-2.72-0.896-2.72-2.304V401.957z M550.27,408.292c0-1.344,1.088-2.432,2.433-2.432
			c1.344,0,2.432,1.088,2.432,2.432v12.671c0,1.345-1.088,2.433-2.432,2.433c-1.345,0-2.433-1.088-2.433-2.433V408.292z"/>
		<path fill="#FFFFFF" d="M559.71,408.292c0-1.344,1.088-2.432,2.432-2.432s2.432,1.088,2.432,2.432v0.192
			c1.12-1.44,2.561-2.752,5.024-2.752c3.68,0,5.823,2.432,5.823,6.367v8.863c0,1.345-1.088,2.433-2.432,2.433
			s-2.432-1.088-2.432-2.433v-7.327c0-2.304-1.088-3.487-2.944-3.487c-1.855,0-3.04,1.184-3.04,3.487v7.327
			c0,1.345-1.088,2.433-2.432,2.433s-2.432-1.088-2.432-2.433V408.292z"/>
		<path fill="#FFFFFF" d="M587.773,423.587c-5.152,0-8.96-3.615-8.96-8.863v-0.063c0-4.896,3.488-8.928,8.479-8.928
			c5.728,0,8.256,4.704,8.256,8.256c0,1.407-0.992,2.335-2.272,2.335h-9.631c0.479,2.208,2.016,3.36,4.191,3.36
			c1.344,0,2.464-0.416,3.456-1.152c0.352-0.256,0.672-0.384,1.184-0.384c1.088,0,1.888,0.832,1.888,1.92
			c0,0.64-0.288,1.12-0.64,1.439C592.221,422.787,590.269,423.587,587.773,423.587z M590.909,413.284
			c-0.288-2.176-1.568-3.648-3.616-3.648c-2.016,0-3.328,1.44-3.712,3.648H590.909z"/>
		<path fill="#FFFFFF" d="M603.646,415.779c-0.929,0-1.601-0.703-1.729-1.567l-0.319-2.176c-0.16-1.056,0.447-1.792,1.472-1.92
			c2.783-0.353,4.063-1.216,4.063-2.784v-0.063c0-1.44-1.088-2.272-2.943-2.272c-1.376,0-2.561,0.416-3.712,1.28
			c-0.384,0.288-0.896,0.512-1.44,0.512c-1.216,0-2.239-1.023-2.239-2.239c0-0.608,0.256-1.248,0.832-1.729
			c1.695-1.407,3.84-2.304,6.655-2.304c4.607,0,7.743,2.368,7.743,6.624v0.063c0,4.063-2.815,5.728-6.304,6.432l-0.096,0.576
			c-0.128,0.832-0.8,1.567-1.728,1.567H603.646z M603.646,417.892c1.6,0,2.783,1.184,2.783,2.72v0.064
			c0,1.535-1.184,2.72-2.783,2.72c-1.601,0-2.784-1.185-2.784-2.72v-0.064C600.861,419.075,602.045,417.892,603.646,417.892z"/>
	</g>
</g>
</svg>
