<?xml version="1.0" encoding="utf-8"?>
<!-- Generator: Adobe Illustrator 16.2.1, SVG Export Plug-In . SVG Version: 6.00 Build 0)  -->
<!DOCTYPE svg PUBLIC "-//W3C//DTD SVG 1.0//EN" "http://www.w3.org/TR/2001/REC-SVG-20010904/DTD/svg10.dtd">
<svg version="1.0" id="Layer_1" xmlns="http://www.w3.org/2000/svg" xmlns:xlink="http://www.w3.org/1999/xlink" x="0px" y="0px"
	 width="800px" height="450px" viewBox="0 0 800 450" enable-background="new 0 0 800 450" xml:space="preserve">
<g id="Layer_3">
	<g>
		<g>
			<path fill="#FFFFFF" d="M297.232,386.479c-54.407,0-133.891-68.06-165.376-102.847c-27.146-29.995-42.417-79.367-45.391-146.747
				c-1.389-31.455,6.42-53.019,12.694-70.345c3.321-9.168,6.188-17.084,7.251-24.922c3.114-22.937,6.27-42.625,6.302-42.822
				l2.048,0.329c-0.032,0.196-3.183,19.861-6.292,42.773c-1.095,8.056-3.997,16.07-7.356,25.349
				c-6.213,17.155-13.944,38.504-12.573,69.546c2.953,66.884,18.043,115.82,44.854,145.445
				c32.753,36.188,117.699,108.675,171.197,101.703c52.323-6.801,87.088-50.447,90.411-67.574
				c2.214-11.419,15.676-25.781,27.556-38.455c5.292-5.645,10.288-10.977,13.562-15.312c10.604-14.062,42.893-63.661,45.979-80.727
				c3.043-16.79,16.396-44.624,26.146-64.948l1.229-2.567c9.271-19.338,21.82-114.574,21.944-115.534l2.059,0.271
				c-0.516,3.932-12.722,96.525-22.13,116.16l-1.229,2.569c-9.148,19.075-22.979,47.903-25.968,64.418
				c-3.146,17.386-35.687,67.443-46.364,81.605c-3.339,4.428-8.371,9.797-13.7,15.479c-11.688,12.468-24.938,26.604-27.035,37.428
				c-3.406,17.567-38.878,62.315-92.18,69.241C302.381,386.323,299.83,386.479,297.232,386.479z"/>
			<path fill="#FFFFFF" d="M92.679,83.899c-0.456,0-0.933-0.058-1.431-0.173c-9.83-2.285-25.92-27.056-31.959-39.187
				C52.061,30.021,53.18,2.411,55.47-1.287c0.403-0.653,0.902-0.791,1.25-0.791v2.075c0.299,0,0.484-0.157,0.526-0.21
				c-1.491,1.963-3.571,28.819,3.9,43.83c7.112,14.285,22.556,36.226,30.571,38.088c1.04,0.241,1.867,0.113,2.527-0.392l1.26,1.65
				C94.687,83.586,93.741,83.899,92.679,83.899z"/>
			<path fill="#FFFFFF" d="M94.107,49.416c-3.441-3.784-6.561-6.377-9.578-8.887c-4.251-3.533-8.267-6.871-12.255-12.881
				c-6.89-10.38-0.381-27.152-0.101-27.859l1.93,0.761c-0.065,0.165-6.389,16.476-0.102,25.951
				c3.821,5.758,7.543,8.851,11.854,12.435c3.072,2.552,6.25,5.195,9.786,9.082L94.107,49.416z"/>
			<g>
				<path fill="#FFFFFF" d="M302.202,133.642c-6.325,3.535-13.891,6.086-22.491,7.588c-1.829,0.317-3.75,0.48-5.711,0.48
					c-0.002,0-0.003,0-0.004,0c-24.324,0-50.496-24.695-50.756-24.944l-1.549,1.37c0.81,1.088,20.026,26.676,37.023,29.791
					c2.266,0.413,4.216,0.894,6.1,1.356c3.222,0.792,6.007,1.475,9.056,1.475c6.226,0,13.337-2.575,29.491-15.385
					c8.913-5.014,12.245-10.126,12.381-10.341l3.797-5.941l-5.348,4.595C309.688,127.556,305.764,130.814,302.202,133.642z"/>
				<path fill="#FFFFFF" d="M481.171,112.84c-0.157,0.273-16.108,27.498-37.118,32.471c-1.561,0.368-3.181,0.557-4.812,0.557
					c-19.006,0-36.601-25.117-36.771-25.369l-1.751,1.108c0.788,1.363,19.536,33.384,39.208,33.386h0.002
					c0.679,0,1.354-0.038,2.033-0.116c20.246-2.357,40.185-39.453,41.022-41.031L481.171,112.84z"/>
			</g>
			<path fill="#FFFFFF" d="M320.023,110.94c-0.396,0-0.803-0.051-1.204-0.151c-1.561-0.381-4.305-1.383-7.777-2.652
				c-10.056-3.671-26.887-9.817-39.29-9.817c-1.034,0-2.031,0.043-2.962,0.13c-6.882,0.634-14.824,2.157-22.503,3.629
				c-8.095,1.552-15.741,3.017-20.399,3.017c-1.642,0-2.873-0.178-3.761-0.544c-2.681-1.107-4.107-2.825-4.013-4.84
				c0.205-4.37,7.706-8.856,22.292-13.335l1.577-0.484c14.448-4.438,21.701-6.665,29.035-6.665c4.944,0,9.836,1.005,16.125,2.626
				c17.369,4.478,40.499,14.511,40.731,14.612l0.729,0.319l-0.116,0.785C328.28,98.94,326.289,110.94,320.023,110.94z
				 M271.752,96.246c12.77,0,29.816,6.224,40.002,9.942c3.414,1.249,6.11,2.233,7.56,2.589c3.978,0.962,6.281-7.01,6.985-10.731
				c-4.1-1.748-24.216-10.198-39.674-14.182c-6.134-1.582-10.883-2.562-15.607-2.562c-7.023,0-14.176,2.197-28.425,6.573
				l-1.579,0.482c-19.103,5.866-20.771,10.247-20.828,11.451c-0.07,1.503,1.887,2.476,2.731,2.825
				c0.623,0.258,1.624,0.387,2.969,0.387c4.462,0,12.014-1.447,20.01-2.98c7.728-1.481,15.72-3.016,22.703-3.657
				C269.593,96.292,270.654,96.246,271.752,96.246z"/>
			<path fill="#FFFFFF" d="M431.779,104.748L431.779,104.748c-6.027-0.002-10.622-3.301-12.942-9.289
				c-0.331-0.856-0.248-1.742,0.24-2.56c2.796-4.689,20.612-7.076,22.636-7.334c6.111-1.196,14.05-3.684,21.729-6.088
				c8.938-2.803,17.385-5.447,23.388-6.275c3.6-0.499,6.271,0.374,8.287,2.493c3.69,3.884,3.396,10.666,3.385,10.953l-0.069,1.409
				l-1.324-0.489c-0.012-0.003-1.812-0.622-6.063-0.622c-2.603,0-5.569,0.226-8.824,0.676c-9.511,1.313-21.971,6.762-34.02,12.031
				c-1.979,0.865-3.962,1.732-5.938,2.584C438.391,103.902,434.866,104.748,431.779,104.748z M488.639,75.145
				c-0.479,0-0.984,0.035-1.525,0.11c-5.833,0.804-14.194,3.426-23.055,6.201c-7.729,2.42-15.725,4.927-22.018,6.157
				c-7.32,0.933-19.464,3.467-21.182,6.346c-0.161,0.273-0.188,0.49-0.086,0.75c1.399,3.633,4.452,7.962,11.006,7.964l0,0
				c2.804,0,6.051-0.789,9.646-2.343c1.979-0.851,3.952-1.716,5.933-2.579c12.734-5.571,24.771-10.833,34.563-12.185
				c3.353-0.461,6.413-0.697,9.107-0.697c2.531,0,4.285,0.21,5.374,0.407c-0.101-1.979-0.581-5.824-2.81-8.158
				C492.337,75.789,490.713,75.145,488.639,75.145z"/>
			<path fill="#FFFFFF" d="M379.733,255.705l-1.201-1.689l13.389-9.521c2.619-1.862,4.024-4.187,4.297-7.104
				c0.854-9.125-9.932-20.448-10.041-20.562l1.495-1.438c0.472,0.49,11.552,12.117,10.612,22.192
				c-0.327,3.505-2.063,6.399-5.161,8.603L379.733,255.705z"/>
			<path fill="#FFFFFF" d="M657.861,452.393c-0.515-7.067-10.978-37.488-21.937-58.83C624.634,371.573,553.1,290.3,540.842,283.257
				c-13.699-7.873-30.422-31.503-31.981-40.235c-1.45-8.106-9.233-14.164-22.507-17.506c-13.565-3.417-18.188-11.14-18.382-11.468
				l1.791-1.045c0.043,0.073,4.438,7.312,17.102,10.502c14.121,3.554,22.433,10.179,24.038,19.152
				c1.467,8.186,17.961,31.321,30.978,38.801c12.378,7.112,84.525,89.017,95.899,111.157c11.264,21.931,21.615,52.224,22.148,59.628
				L657.861,452.393z"/>
			<path fill="#FFFFFF" d="M185,392c0.904,0.014,1.801,0.053,2.695,0.107c-25.561-16.045-53.015-48.336-91.938-111.262
				C29.797,174.208,4.742,98.176,23.287,60.939c1.588-0.887,12.458-2.381,20.437-3.477c12.21-1.679,19.768-2.774,21.754-3.853
				l-0.989-1.824c-1.799,0.978-12.026,2.381-21.049,3.623c-17.794,2.442-21.277,3.147-21.927,4.438
				C2.206,98.247,26.592,172.97,93.992,281.936c37.708,60.963,64.766,93.404,89.744,110.193
				C184.126,392.042,184.545,391.993,185,392z"/>
			<path fill="#FFFFFF" d="M395.274,319.988l-0.568-1.235c-1.327,0.608-3.031,3.53-7.105,10.668
				c-8.754,15.349-25.854,45.315-50.67,62.113c0.19-0.009,0.379-0.027,0.569-0.034c0.941-0.032,1.741,0.158,2.407,0.5
				c24.229-17.262,40.864-46.416,49.497-61.545c2.739-4.803,5.33-9.34,6.177-9.818L395.274,319.988z"/>
			<path fill="#FFFFFF" d="M49.713,56.618c-1.376,0-33.917-0.079-50.713-6.941l0.784-1.921c16.418,6.71,49.597,6.789,49.929,6.789
				V56.618z"/>
			<path fill="#FFFFFF" d="M346.604,278.124c-1.884,0-3.869-0.106-5.965-0.34c-18.491-2.044-53.02-10.279-65.119-28.187
				c-4.067-6.021-5.148-12.58-3.214-19.51c8.09-28.981,22.989-30.098,23.619-30.13l0.11,2.07c-0.135,0.01-14.08,1.212-21.731,28.619
				c-1.763,6.312-0.774,12.293,2.935,17.783c10.163,15.038,40.105,24.688,63.627,27.283c17.245,1.909,26.761-5.008,30.905-9.298
				c5.202-5.39,6.979-11.593,6.433-15.354c-0.459-3.146-1.542-8.971-2.914-16.34c-2.766-14.864-6.944-37.328-9.927-59.104
				c-4.288-31.334,6.38-63.855,8.729-66.327c0.377-0.396,0.759-0.45,1.029-0.43l-0.181,2.067c0.363,0.024,0.598-0.145,0.655-0.21
				c-1.583,1.746-12.497,33.074-8.179,64.62c2.973,21.729,7.147,44.16,9.91,59.003c1.375,7.395,2.463,13.229,2.926,16.419
				c0.759,5.201-1.987,11.912-6.993,17.097C369.365,271.9,361.012,278.121,346.604,278.124z"/>
			<path fill="#FFFFFF" d="M338.711,317.43c-2.18,0-4.151-0.349-5.91-1.154c-7.888-3.627-13.742-2.025-18.91-0.614
				c-3.253,0.894-6.329,1.729-9.523,1.22c-9.52-1.521-33.759-7.562-34.004-7.626l0.503-2.016c0.243,0.062,24.398,6.084,33.83,7.591
				c2.753,0.441,5.487-0.309,8.649-1.171c5.506-1.507,11.747-3.211,20.324,0.729c5.453,2.504,13.95-0.248,24.71-3.736
				c3.444-1.116,7.004-2.271,10.876-3.401l0.583,1.993c-3.844,1.12-7.389,2.271-10.818,3.382
				C351.009,315.223,344.205,317.43,338.711,317.43z"/>
			<path fill="#FFFFFF" d="M324.208,330.611c-16.799,0-33.271-10.045-34.054-10.529l1.09-1.768
				c0.211,0.131,21.315,12.98,39.382,9.653c18.029-3.341,22.106-9.278,22.145-9.344l1.736,1.142
				c-0.182,0.271-4.611,6.741-23.503,10.24C328.758,330.43,326.479,330.611,324.208,330.611z"/>
		</g>
		<g>
			<rect x="534.015" y="102.402" fill="#FFFFFF" width="2.076" height="10.375"/>
			<rect x="534.015" y="123.153" fill="#FFFFFF" width="2.076" height="10.375"/>
			<rect x="534.015" y="164.652" fill="#FFFFFF" width="2.076" height="10.375"/>
			<rect x="534.015" y="143.901" fill="#FFFFFF" width="2.076" height="10.375"/>
			<rect x="534.015" y="81.653" fill="#FFFFFF" width="2.076" height="10.375"/>
			<rect x="534.015" y="60.904" fill="#FFFFFF" width="2.076" height="10.375"/>
			<rect x="534.015" y="185.401" fill="#FFFFFF" width="2.076" height="10.374"/>
			<rect x="534.015" y="19.404" fill="#FFFFFF" width="2.076" height="10.376"/>
			<rect x="534.015" y="-1.344" fill="#FFFFFF" width="2.076" height="10.374"/>
			<rect x="534.015" y="40.155" fill="#FFFFFF" width="2.076" height="10.374"/>
			<rect x="534.015" y="330.646" fill="#FFFFFF" width="2.076" height="10.375"/>
			<rect x="534.015" y="309.896" fill="#FFFFFF" width="2.076" height="10.375"/>
			<rect x="534.015" y="351.396" fill="#FFFFFF" width="2.076" height="10.375"/>
			<rect x="534.015" y="372.146" fill="#FFFFFF" width="2.076" height="10.375"/>
			<rect x="534.015" y="206.15" fill="#FFFFFF" width="2.076" height="10.375"/>
			<path fill="#FFFFFF" d="M534.015,435.996v8.772h2.076v-8.438C535.382,436.348,534.672,436.237,534.015,435.996z"/>
			<rect x="534.015" y="289.148" fill="#FFFFFF" width="2.076" height="10.375"/>
			<rect x="534.015" y="226.9" fill="#FFFFFF" width="2.076" height="10.373"/>
			<rect x="534.015" y="247.648" fill="#FFFFFF" width="2.076" height="10.375"/>
			<rect x="534.015" y="268.398" fill="#FFFFFF" width="2.076" height="10.375"/>
			<path fill="#FFFFFF" d="M270.336,392.645V-0.474h-6.226v393.102C265.96,391.338,268.62,391.18,270.336,392.645z"/>
			<path fill="#FFFFFF" d="M264.11,435.239v14.801h6.226v-14.881C268.231,435.471,266.204,435.57,264.11,435.239z"/>
			<g>
				<rect x="797.695" y="298.928" fill="#FFFFFF" width="5.188" height="2.074"/>
				<path fill="#FFFFFF" d="M787.396,301.002h-10.305v-2.074h10.305V301.002z M766.795,301.002h-10.299v-2.074h10.299V301.002z
					 M746.194,301.002h-10.302v-2.074h10.302V301.002z M725.595,301.002h-10.301v-2.074h10.301V301.002z M704.994,301.002h-10.302
					v-2.074h10.302V301.002z M684.393,301.002h-10.299v-2.074h10.299V301.002z M663.792,301.002h-10.3v-2.074h10.3V301.002z
					 M643.193,301.002H632.89v-2.074h10.305L643.193,301.002L643.193,301.002z M622.594,301.002h-10.302v-2.074h10.302V301.002z
					 M601.991,301.002h-10.298v-2.074h10.298V301.002z M581.392,301.002h-10.3v-2.074h10.3V301.002z M560.791,301.002h-10.3v-2.074
					h10.3V301.002z M540.191,301.002H529.89v-2.074h10.306L540.191,301.002L540.191,301.002z M519.591,301.002h-10.3v-2.074h10.3
					V301.002z M498.989,301.002H488.69v-2.074h10.299V301.002z M478.391,301.002h-10.302v-2.074h10.302V301.002z M457.789,301.002
					H447.49v-2.074h10.299V301.002z M437.19,301.002h-10.307v-2.074h10.307V301.002z M416.588,301.002h-10.3v-2.074h10.3V301.002z
					 M395.988,301.002h-10.3v-2.074h10.3V301.002z M375.387,301.002h-10.299v-2.074h10.299V301.002z M354.787,301.002h-10.299
					v-2.074h10.299V301.002z M334.188,301.002h-10.301v-2.074h10.301V301.002z M313.586,301.002h-10.301v-2.074h10.301V301.002z
					 M292.985,301.002h-10.299v-2.074h10.299V301.002z M272.385,301.002h-10.299v-2.074h10.299V301.002z M251.785,301.002h-10.3
					v-2.074h10.3V301.002z M231.185,301.002h-10.301v-2.074h10.301V301.002z M210.584,301.002h-10.3v-2.074h10.3V301.002z
					 M189.984,301.002h-10.3v-2.074h10.3V301.002z M169.383,301.002h-10.299v-2.074h10.299V301.002z M148.782,301.002h-10.3v-2.074
					h10.3V301.002z M128.182,301.002h-10.3v-2.074h10.3V301.002z M107.582,301.002H97.281v-2.074h10.301V301.002z M86.981,301.002
					h-10.3v-2.074h10.3V301.002z M66.38,301.002H56.082v-2.074H66.38V301.002z M45.781,301.002h-10.3v-2.074h10.3V301.002z
					 M25.181,301.002H14.879v-2.074H25.18L25.181,301.002L25.181,301.002z"/>
				<rect x="-0.607" y="298.928" fill="#FFFFFF" width="5.187" height="2.074"/>
			</g>
			<rect x="-0.607" y="146.201" fill="#FFFFFF" width="803.49" height="6.224"/>
		</g>
	</g>
</g>
<g id="Layer_4">
	<rect x="174.5" y="399.651" fill="none" width="451" height="36"/>
	<g enable-background="new    ">
		<path fill="#FFFFFF" d="M185.828,403.94c-0.096-0.288-0.192-0.64-0.192-0.928c0-1.376,1.152-2.4,2.528-2.4
			c1.152,0,2.08,0.736,2.4,1.761l4.448,13.727l4.479-13.599c0.384-1.152,1.248-1.952,2.496-1.952h0.384
			c1.248,0,2.112,0.768,2.496,1.952l4.48,13.599l4.448-13.727c0.32-0.96,1.152-1.761,2.368-1.761c1.344,0,2.432,1.024,2.432,2.368
			c0,0.288-0.096,0.672-0.192,0.96l-6.271,17.599c-0.448,1.248-1.376,2.016-2.56,2.016h-0.512c-1.184,0-2.08-0.735-2.528-2.016
			l-4.416-12.831l-4.416,12.831c-0.448,1.28-1.344,2.016-2.528,2.016h-0.512c-1.184,0-2.112-0.768-2.56-2.016L185.828,403.94z"/>
		<path fill="#FFFFFF" d="M221.54,402.085c0-1.344,1.088-2.433,2.432-2.433c1.344,0,2.432,1.089,2.432,2.433v6.399
			c1.12-1.44,2.56-2.752,5.023-2.752c3.68,0,5.824,2.432,5.824,6.367v8.863c0,1.345-1.088,2.433-2.432,2.433
			c-1.344,0-2.432-1.088-2.432-2.433v-7.327c0-2.304-1.088-3.487-2.944-3.487c-1.855,0-3.04,1.184-3.04,3.487v7.327
			c0,1.345-1.088,2.433-2.432,2.433c-1.344,0-2.432-1.088-2.432-2.433V402.085z"/>
		<path fill="#FFFFFF" d="M240.451,418.275v-0.063c0-3.744,2.848-5.472,6.912-5.472c1.728,0,2.976,0.288,4.191,0.703v-0.287
			c0-2.017-1.248-3.136-3.68-3.136c-1.344,0-2.432,0.191-3.359,0.479c-0.288,0.096-0.48,0.128-0.704,0.128
			c-1.12,0-2.016-0.864-2.016-1.983c0-0.864,0.544-1.601,1.312-1.889c1.536-0.575,3.2-0.896,5.472-0.896
			c2.656,0,4.576,0.704,5.792,1.92c1.28,1.28,1.856,3.168,1.856,5.472v7.808c0,1.312-1.056,2.336-2.368,2.336
			c-1.408,0-2.336-0.992-2.336-2.017v-0.031c-1.184,1.312-2.816,2.176-5.184,2.176C243.107,423.523,240.451,421.667,240.451,418.275
			z M251.619,417.155v-0.863c-0.832-0.385-1.92-0.641-3.104-0.641c-2.08,0-3.36,0.832-3.36,2.368v0.064
			c0,1.312,1.088,2.079,2.656,2.079C250.083,420.163,251.619,418.915,251.619,417.155z"/>
		<path fill="#FFFFFF" d="M261.059,418.34v-8.128h-0.16c-1.152,0-2.08-0.928-2.08-2.08c0-1.151,0.928-2.079,2.08-2.079h0.16v-2.145
			c0-1.344,1.088-2.432,2.432-2.432c1.344,0,2.432,1.088,2.432,2.432v2.145h2.144c1.152,0,2.08,0.928,2.08,2.079
			c0,1.152-0.928,2.08-2.08,2.08h-2.144v7.327c0,1.12,0.48,1.664,1.568,1.664c0.16,0,0.48-0.031,0.576-0.031
			c1.088,0,2.016,0.896,2.016,2.016c0,0.863-0.576,1.567-1.248,1.823c-0.896,0.353-1.728,0.48-2.784,0.48
			C263.075,423.491,261.059,422.308,261.059,418.34z"/>
		<path fill="#FFFFFF" d="M283.075,401.957c0-1.408,1.184-2.272,2.72-2.272c1.536,0,2.72,0.864,2.72,2.272v0.063
			c0,1.408-1.184,2.304-2.72,2.304c-1.536,0-2.72-0.896-2.72-2.304V401.957z M283.363,408.292c0-1.344,1.088-2.432,2.432-2.432
			c1.344,0,2.432,1.088,2.432,2.432v12.671c0,1.345-1.088,2.433-2.432,2.433c-1.344,0-2.432-1.088-2.432-2.433V408.292z"/>
		<path fill="#FFFFFF" d="M292.354,421.571c-0.512-0.32-0.928-0.896-0.928-1.664c0-1.088,0.832-1.92,1.92-1.92
			c0.352,0,0.704,0.097,0.96,0.256c1.632,1.024,3.264,1.536,4.64,1.536c1.408,0,2.048-0.512,2.048-1.28v-0.063
			c0-1.056-1.664-1.408-3.552-1.984c-2.4-0.703-5.12-1.823-5.12-5.151v-0.063c0-3.488,2.816-5.439,6.271-5.439
			c1.792,0,3.648,0.479,5.312,1.312c0.704,0.352,1.152,0.992,1.152,1.824c0,1.088-0.864,1.919-1.952,1.919
			c-0.352,0-0.576-0.063-0.896-0.224c-1.376-0.672-2.688-1.088-3.711-1.088c-1.184,0-1.792,0.512-1.792,1.184v0.064
			c0,0.96,1.632,1.408,3.488,2.048c2.4,0.8,5.184,1.952,5.184,5.088v0.063c0,3.808-2.848,5.536-6.56,5.536
			C296.706,423.523,294.434,422.915,292.354,421.571z"/>
		<path fill="#FFFFFF" d="M318.53,420.835c-0.544-0.384-0.928-1.088-0.928-1.855c0-1.28,1.024-2.271,2.304-2.271
			c0.64,0,1.088,0.224,1.408,0.447c1.696,1.248,3.552,2.017,5.728,2.017c2.016,0,3.232-0.801,3.232-2.112v-0.064
			c0-1.247-0.768-1.888-4.512-2.848c-4.512-1.151-7.423-2.399-7.423-6.848v-0.063c0-4.063,3.264-6.752,7.839-6.752
			c2.72,0,5.088,0.704,7.104,1.984c0.544,0.32,1.088,0.992,1.088,1.952c0,1.279-1.024,2.271-2.304,2.271
			c-0.48,0-0.864-0.128-1.248-0.352c-1.632-0.96-3.167-1.504-4.704-1.504c-1.888,0-2.88,0.863-2.88,1.951v0.064
			c0,1.472,0.96,1.951,4.832,2.943c4.543,1.185,7.103,2.816,7.103,6.72v0.064c0,4.447-3.392,6.943-8.223,6.943
			C324.001,423.523,321.026,422.627,318.53,420.835z"/>
		<path fill="#FFFFFF" d="M338.946,402.085c0-1.344,1.088-2.433,2.432-2.433c1.344,0,2.432,1.089,2.432,2.433v6.399
			c1.12-1.44,2.56-2.752,5.023-2.752c3.68,0,5.824,2.432,5.824,6.367v8.863c0,1.345-1.088,2.433-2.432,2.433
			c-1.344,0-2.432-1.088-2.432-2.433v-7.327c0-2.304-1.088-3.487-2.944-3.487c-1.855,0-3.04,1.184-3.04,3.487v7.327
			c0,1.345-1.088,2.433-2.432,2.433c-1.344,0-2.432-1.088-2.432-2.433V402.085z"/>
		<path fill="#FFFFFF" d="M358.049,414.724v-0.063c0-4.928,3.968-8.928,9.312-8.928c5.312,0,9.247,3.936,9.247,8.863v0.064
			c0,4.927-3.967,8.927-9.311,8.927C361.985,423.587,358.049,419.651,358.049,414.724z M371.809,414.724v-0.063
			c0-2.528-1.824-4.736-4.512-4.736c-2.784,0-4.448,2.145-4.448,4.672v0.064c0,2.527,1.824,4.735,4.512,4.735
			C370.145,419.396,371.809,417.252,371.809,414.724z"/>
		<path fill="#FFFFFF" d="M380.929,418.34v-8.128h-0.16c-1.152,0-2.08-0.928-2.08-2.08c0-1.151,0.928-2.079,2.08-2.079h0.16v-2.145
			c0-1.344,1.088-2.432,2.432-2.432c1.344,0,2.432,1.088,2.432,2.432v2.145h2.144c1.152,0,2.08,0.928,2.08,2.079
			c0,1.152-0.928,2.08-2.08,2.08h-2.144v7.327c0,1.12,0.48,1.664,1.568,1.664c0.16,0,0.48-0.031,0.576-0.031
			c1.088,0,2.016,0.896,2.016,2.016c0,0.863-0.576,1.567-1.248,1.823c-0.896,0.353-1.728,0.48-2.784,0.48
			C382.945,423.491,380.929,422.308,380.929,418.34z"/>
		<path fill="#FFFFFF" d="M393.921,403.076c0-1.375,1.088-2.464,2.464-2.464c1.375,0,2.463,1.089,2.463,2.464v15.647h9.12
			c1.248,0,2.239,0.992,2.239,2.239c0,1.248-0.991,2.24-2.239,2.24h-11.583c-1.376,0-2.464-1.088-2.464-2.464V403.076z"/>
		<path fill="#FFFFFF" d="M413.152,401.957c0-1.408,1.184-2.272,2.72-2.272s2.72,0.864,2.72,2.272v0.063
			c0,1.408-1.184,2.304-2.72,2.304s-2.72-0.896-2.72-2.304V401.957z M413.44,408.292c0-1.344,1.088-2.432,2.432-2.432
			c1.345,0,2.433,1.088,2.433,2.432v12.671c0,1.345-1.088,2.433-2.433,2.433c-1.344,0-2.432-1.088-2.432-2.433V408.292z"/>
		<path fill="#FFFFFF" d="M422.432,421.571c-0.512-0.32-0.928-0.896-0.928-1.664c0-1.088,0.832-1.92,1.92-1.92
			c0.352,0,0.704,0.097,0.96,0.256c1.632,1.024,3.264,1.536,4.64,1.536c1.408,0,2.048-0.512,2.048-1.28v-0.063
			c0-1.056-1.664-1.408-3.552-1.984c-2.4-0.703-5.119-1.823-5.119-5.151v-0.063c0-3.488,2.815-5.439,6.271-5.439
			c1.791,0,3.647,0.479,5.311,1.312c0.705,0.352,1.152,0.992,1.152,1.824c0,1.088-0.863,1.919-1.951,1.919
			c-0.353,0-0.576-0.063-0.896-0.224c-1.376-0.672-2.688-1.088-3.711-1.088c-1.185,0-1.793,0.512-1.793,1.184v0.064
			c0,0.96,1.633,1.408,3.488,2.048c2.4,0.8,5.184,1.952,5.184,5.088v0.063c0,3.808-2.848,5.536-6.56,5.536
			C426.783,423.523,424.512,422.915,422.432,421.571z"/>
		<path fill="#FFFFFF" d="M439.424,418.34v-8.128h-0.16c-1.151,0-2.08-0.928-2.08-2.08c0-1.151,0.929-2.079,2.08-2.079h0.16v-2.145
			c0-1.344,1.088-2.432,2.432-2.432c1.345,0,2.433,1.088,2.433,2.432v2.145h2.144c1.151,0,2.08,0.928,2.08,2.079
			c0,1.152-0.929,2.08-2.08,2.08h-2.144v7.327c0,1.12,0.479,1.664,1.567,1.664c0.16,0,0.48-0.031,0.576-0.031
			c1.088,0,2.016,0.896,2.016,2.016c0,0.863-0.576,1.567-1.248,1.823c-0.896,0.353-1.728,0.48-2.783,0.48
			C441.439,423.491,439.424,422.308,439.424,418.34z"/>
		<path fill="#FFFFFF" d="M451.775,408.964c1.632-0.384,2.528-1.504,2.464-3.039c-1.119-0.288-2.239-1.248-2.239-2.624v-0.064
			c0-1.504,1.056-2.624,2.655-2.624c1.792,0,2.848,1.376,2.848,3.584v0.128c0,2.336-0.703,4.064-1.888,5.248
			c-0.96,0.96-2.399,1.536-3.584,1.536c-0.863,0-1.216-0.513-1.216-1.088C450.815,409.444,451.231,409.092,451.775,408.964z"/>
		<path fill="#FFFFFF" d="M460.447,421.571c-0.512-0.32-0.928-0.896-0.928-1.664c0-1.088,0.832-1.92,1.92-1.92
			c0.353,0,0.704,0.097,0.96,0.256c1.632,1.024,3.264,1.536,4.64,1.536c1.408,0,2.048-0.512,2.048-1.28v-0.063
			c0-1.056-1.664-1.408-3.552-1.984c-2.399-0.703-5.119-1.823-5.119-5.151v-0.063c0-3.488,2.815-5.439,6.271-5.439
			c1.792,0,3.647,0.479,5.312,1.312c0.704,0.352,1.151,0.992,1.151,1.824c0,1.088-0.863,1.919-1.951,1.919
			c-0.353,0-0.576-0.063-0.896-0.224c-1.376-0.672-2.688-1.088-3.712-1.088c-1.184,0-1.792,0.512-1.792,1.184v0.064
			c0,0.96,1.633,1.408,3.488,2.048c2.399,0.8,5.184,1.952,5.184,5.088v0.063c0,3.808-2.848,5.536-6.56,5.536
			C464.799,423.523,462.527,422.915,460.447,421.571z"/>
		<path fill="#FFFFFF" d="M487.359,418.34v-8.128h-0.16c-1.151,0-2.079-0.928-2.079-2.08c0-1.151,0.928-2.079,2.079-2.079h0.16
			v-2.145c0-1.344,1.088-2.432,2.432-2.432c1.345,0,2.433,1.088,2.433,2.432v2.145h2.144c1.151,0,2.08,0.928,2.08,2.079
			c0,1.152-0.929,2.08-2.08,2.08h-2.144v7.327c0,1.12,0.479,1.664,1.567,1.664c0.16,0,0.48-0.031,0.576-0.031
			c1.088,0,2.016,0.896,2.016,2.016c0,0.863-0.576,1.567-1.248,1.823c-0.896,0.353-1.728,0.48-2.783,0.48
			C489.375,423.491,487.359,422.308,487.359,418.34z"/>
		<path fill="#FFFFFF" d="M498.815,418.275v-0.063c0-3.744,2.848-5.472,6.911-5.472c1.728,0,2.976,0.288,4.191,0.703v-0.287
			c0-2.017-1.248-3.136-3.68-3.136c-1.344,0-2.432,0.191-3.359,0.479c-0.288,0.096-0.48,0.128-0.704,0.128
			c-1.12,0-2.016-0.864-2.016-1.983c0-0.864,0.544-1.601,1.312-1.889c1.536-0.575,3.2-0.896,5.472-0.896
			c2.656,0,4.576,0.704,5.792,1.92c1.279,1.28,1.855,3.168,1.855,5.472v7.808c0,1.312-1.056,2.336-2.368,2.336
			c-1.407,0-2.336-0.992-2.336-2.017v-0.031c-1.184,1.312-2.815,2.176-5.184,2.176C501.471,423.523,498.815,421.667,498.815,418.275
			z M509.982,417.155v-0.863c-0.832-0.385-1.92-0.641-3.104-0.641c-2.079,0-3.359,0.832-3.359,2.368v0.064
			c0,1.312,1.088,2.079,2.656,2.079C508.446,420.163,509.982,418.915,509.982,417.155z"/>
		<path fill="#FFFFFF" d="M520.19,427.203c-0.832-0.32-1.376-0.992-1.376-1.888c0-1.089,0.896-1.984,1.983-1.984
			c0.32,0,0.576,0.064,0.8,0.16c1.408,0.64,2.912,1.023,4.736,1.023c3.327,0,4.896-1.6,4.896-4.671v-0.832
			c-1.44,1.728-3.008,2.783-5.6,2.783c-4,0-7.615-2.911-7.615-7.999v-0.064c0-5.119,3.68-7.999,7.615-7.999
			c2.655,0,4.224,1.12,5.535,2.56v-0.032c0-1.312,1.088-2.399,2.433-2.399c1.344,0,2.432,1.088,2.432,2.432v11.039
			c0,3.072-0.736,5.312-2.176,6.752c-1.601,1.6-4.064,2.304-7.392,2.304C524.189,428.387,522.206,428.003,520.19,427.203z
			 M531.229,413.796v-0.064c0-2.336-1.824-3.968-4.191-3.968c-2.368,0-4.16,1.632-4.16,3.968v0.064c0,2.368,1.792,3.968,4.16,3.968
			C529.405,417.764,531.229,416.132,531.229,413.796z"/>
		<path fill="#FFFFFF" d="M540.605,402.085c0-1.344,1.088-2.433,2.433-2.433c1.344,0,2.432,1.089,2.432,2.433v18.878
			c0,1.345-1.088,2.433-2.432,2.433c-1.345,0-2.433-1.088-2.433-2.433V402.085z"/>
		<path fill="#FFFFFF" d="M549.982,401.957c0-1.408,1.184-2.272,2.72-2.272c1.535,0,2.72,0.864,2.72,2.272v0.063
			c0,1.408-1.185,2.304-2.72,2.304c-1.536,0-2.72-0.896-2.72-2.304V401.957z M550.27,408.292c0-1.344,1.088-2.432,2.433-2.432
			c1.344,0,2.432,1.088,2.432,2.432v12.671c0,1.345-1.088,2.433-2.432,2.433c-1.345,0-2.433-1.088-2.433-2.433V408.292z"/>
		<path fill="#FFFFFF" d="M559.71,408.292c0-1.344,1.088-2.432,2.432-2.432s2.432,1.088,2.432,2.432v0.192
			c1.12-1.44,2.561-2.752,5.024-2.752c3.68,0,5.823,2.432,5.823,6.367v8.863c0,1.345-1.088,2.433-2.432,2.433
			s-2.432-1.088-2.432-2.433v-7.327c0-2.304-1.088-3.487-2.944-3.487c-1.855,0-3.04,1.184-3.04,3.487v7.327
			c0,1.345-1.088,2.433-2.432,2.433s-2.432-1.088-2.432-2.433V408.292z"/>
		<path fill="#FFFFFF" d="M587.773,423.587c-5.152,0-8.96-3.615-8.96-8.863v-0.063c0-4.896,3.488-8.928,8.479-8.928
			c5.728,0,8.256,4.704,8.256,8.256c0,1.407-0.992,2.335-2.272,2.335h-9.631c0.479,2.208,2.016,3.36,4.191,3.36
			c1.344,0,2.464-0.416,3.456-1.152c0.352-0.256,0.672-0.384,1.184-0.384c1.088,0,1.888,0.832,1.888,1.92
			c0,0.64-0.288,1.12-0.64,1.439C592.221,422.787,590.269,423.587,587.773,423.587z M590.909,413.284
			c-0.288-2.176-1.568-3.648-3.616-3.648c-2.016,0-3.328,1.44-3.712,3.648H590.909z"/>
		<path fill="#FFFFFF" d="M603.646,415.779c-0.929,0-1.601-0.703-1.729-1.567l-0.319-2.176c-0.16-1.056,0.447-1.792,1.472-1.92
			c2.783-0.353,4.063-1.216,4.063-2.784v-0.063c0-1.44-1.088-2.272-2.943-2.272c-1.376,0-2.561,0.416-3.712,1.28
			c-0.384,0.288-0.896,0.512-1.44,0.512c-1.216,0-2.239-1.023-2.239-2.239c0-0.608,0.256-1.248,0.832-1.729
			c1.695-1.407,3.84-2.304,6.655-2.304c4.607,0,7.743,2.368,7.743,6.624v0.063c0,4.063-2.815,5.728-6.304,6.432l-0.096,0.576
			c-0.128,0.832-0.8,1.567-1.728,1.567H603.646z M603.646,417.892c1.6,0,2.783,1.184,2.783,2.72v0.064
			c0,1.535-1.184,2.72-2.783,2.72c-1.601,0-2.784-1.185-2.784-2.72v-0.064C600.861,419.075,602.045,417.892,603.646,417.892z"/>
	</g>
</g>
</svg>
