<?xml version="1.0" encoding="utf-8"?>
<!-- Generator: Adobe Illustrator 16.2.1, SVG Export Plug-In . SVG Version: 6.00 Build 0)  -->
<!DOCTYPE svg PUBLIC "-//W3C//DTD SVG 1.0//EN" "http://www.w3.org/TR/2001/REC-SVG-20010904/DTD/svg10.dtd">
<svg version="1.0" id="Layer_1" xmlns="http://www.w3.org/2000/svg" xmlns:xlink="http://www.w3.org/1999/xlink" x="0px" y="0px"
	 width="800px" height="450px" viewBox="0 0 800 450" enable-background="new 0 0 800 450" xml:space="preserve">
<g id="Layer_3">
	<g>
		<g>
			<rect x="264.801" y="122.472" fill="#FFFFFF" width="2.06" height="10.298"/>
			<rect x="264.801" y="143.067" fill="#FFFFFF" width="2.06" height="10.297"/>
			<rect x="264.801" y="163.661" fill="#FFFFFF" width="2.06" height="10.297"/>
			<rect x="264.801" y="184.256" fill="#FFFFFF" width="2.06" height="10.298"/>
			<rect x="264.801" y="204.851" fill="#FFFFFF" width="2.06" height="10.298"/>
			<rect x="264.801" y="101.877" fill="#FFFFFF" width="2.06" height="10.297"/>
			<rect x="264.801" y="19.5" fill="#FFFFFF" width="2.06" height="10.297"/>
			<rect x="264.801" y="-1.095" fill="#FFFFFF" width="2.06" height="10.297"/>
			<rect x="264.801" y="40.094" fill="#FFFFFF" width="2.06" height="10.297"/>
			<rect x="264.801" y="60.688" fill="#FFFFFF" width="2.06" height="10.298"/>
			<rect x="264.801" y="81.284" fill="#FFFFFF" width="2.06" height="10.297"/>
			<rect x="264.801" y="349.014" fill="#FFFFFF" width="2.06" height="10.297"/>
			<rect x="264.801" y="328.418" fill="#FFFFFF" width="2.06" height="10.299"/>
			<rect x="264.801" y="369.607" fill="#FFFFFF" width="2.06" height="10.299"/>
			<path fill="#FFFFFF" d="M264.801,434.638v7.053h2.06v-6.896C266.158,434.892,265.46,434.831,264.801,434.638z"/>
			<rect x="264.801" y="225.446" fill="#FFFFFF" width="2.06" height="10.298"/>
			<rect x="264.801" y="266.635" fill="#FFFFFF" width="2.06" height="10.297"/>
			<rect x="264.801" y="246.041" fill="#FFFFFF" width="2.06" height="10.297"/>
			<rect x="264.801" y="307.824" fill="#FFFFFF" width="2.06" height="10.297"/>
			<rect x="264.801" y="287.229" fill="#FFFFFF" width="2.06" height="10.299"/>
			<path fill="#FFFFFF" d="M531.5,435.5c-0.98,0.118-1.955,0.199-2.927,0.255v11.165h6.179v-12.747
				C533.927,434.877,532.824,435.341,531.5,435.5z"/>
			<path fill="#FFFFFF" d="M534.752,393.357V-0.233h-6.179v394.137C530.235,392.462,532.87,392.277,534.752,393.357z"/>
			<g>
				<rect y="296.936" fill="#FFFFFF" width="5.148" height="2.062"/>
				<path fill="#FFFFFF" d="M782.122,298.994h-10.224v-2.059h10.224V298.994z M761.676,298.994h-10.224v-2.059h10.224V298.994z
					 M741.229,298.994h-10.225v-2.059h10.225V298.994z M720.781,298.994h-10.228v-2.059h10.228V298.994z M700.335,298.994h-10.223
					v-2.059h10.223V298.994z M679.888,298.994h-10.223v-2.059h10.223V298.994z M659.441,298.994h-10.228v-2.059h10.228V298.994z
					 M638.995,298.994h-10.224v-2.059h10.224V298.994z M618.549,298.994h-10.224v-2.059h10.224V298.994z M598.104,298.994h-10.225
					v-2.059h10.225V298.994z M577.655,298.994H567.43v-2.059h10.229L577.655,298.994L577.655,298.994z M557.208,298.994h-10.224
					v-2.059h10.224V298.994z M536.762,298.994h-10.224v-2.059h10.224V298.994z M516.314,298.994H506.09v-2.059h10.228
					L516.314,298.994L516.314,298.994z M495.868,298.994h-10.226v-2.059h10.226V298.994z M475.421,298.994h-10.223v-2.059h10.223
					V298.994z M454.975,298.994h-10.223v-2.059h10.223V298.994z M434.529,298.994H424.3v-2.059h10.229V298.994z M414.081,298.994
					h-10.224v-2.059h10.224V298.994z M393.635,298.994h-10.224v-2.059h10.224V298.994z M373.188,298.994h-10.225v-2.059h10.225
					V298.994z M352.741,298.994h-10.225v-2.059h10.225V298.994z M332.295,298.994h-10.223v-2.059h10.223V298.994z M311.848,298.994
					h-10.223v-2.059h10.223V298.994z M291.402,298.994h-10.225v-2.059h10.225V298.994z M270.955,298.994h-10.224v-2.059h10.224
					V298.994z M250.509,298.994h-10.225v-2.059h10.225V298.994z M230.062,298.994h-10.223v-2.059h10.223V298.994L230.062,298.994z
					 M209.614,298.994h-10.222v-2.059h10.222V298.994z M189.168,298.994h-10.223v-2.059h10.223V298.994z M168.722,298.994h-10.224
					v-2.059h10.224V298.994z M148.275,298.994h-10.224v-2.059h10.224V298.994z M127.829,298.994h-10.224v-2.059h10.224V298.994z
					 M107.382,298.994H97.158v-2.059h10.224V298.994L107.382,298.994z M86.935,298.994H76.712v-2.059h10.223V298.994z
					 M66.488,298.994H56.266v-2.059h10.223L66.488,298.994L66.488,298.994z M46.042,298.994H35.818v-2.059h10.224V298.994z
					 M25.595,298.994H15.371v-2.059h10.224V298.994z"/>
				<rect x="792.346" y="296.936" fill="#FFFFFF" width="5.148" height="2.062"/>
			</g>
			<rect y="145.348" fill="#FFFFFF" width="800" height="6.178"/>
		</g>
		<g>
			<path fill="#FFFFFF" d="M470.819,354.455c-14.619,0-26.248-1.262-32.218-2.754c-25.047-6.27-29.905-19.797-33.017-34.293
				c-1.662-7.754,0.355-15.285,2.312-22.57c1.649-6.17,3.215-12,2.104-17.02l-0.104-0.486c-1.771-8.023-1.808-8.178-0.784-9.561
				c0.251-0.347,0.562-0.771,0.938-1.722c1.296-3.286,11.407-5.192,18.416-6.133c-6.108-1.756-15.635-4.731-18.138-6.935
				c-3.429-3.006-1.328-18.147-0.513-23.231c-1.912-0.319-6.354-1.403-15.021-5.016c-3.961-1.651-6.333-3.812-7.249-6.604
				c-1.702-5.189,2.08-11.466,6.083-18.113l0.68-1.128c2.225-3.709,7.938-10.215,14.558-17.749
				c10.584-12.051,25.081-28.553,23.903-33.253c-2.048-8.191-0.108-33.762-0.025-34.847l2.053,0.157
				c-0.021,0.264-1.992,26.321-0.024,34.19c1.337,5.334-9.255,17.918-24.354,35.111c-6.278,7.148-12.209,13.9-14.337,17.447
				l-0.682,1.133c-3.753,6.232-7.299,12.117-5.892,16.408c0.718,2.191,2.708,3.938,6.084,5.345
				c11.673,4.865,15.396,4.999,15.435,4.999l1.189,0.021l-0.188,1.18c-1.401,8.193-2.438,20.562-0.335,22.402
				c2.694,2.365,17.104,6.508,22.431,7.9l5.608,1.471l-5.772,0.551c-9.916,0.945-21.142,3.301-21.987,5.445
				c-0.475,1.199-0.909,1.791-1.195,2.188c-0.445,0.604-0.468,0.632,1.14,7.896l0.104,0.485c1.218,5.508-0.407,11.571-2.131,17.991
				c-1.89,7.052-3.842,14.341-2.282,21.604c2.968,13.837,7.604,26.75,31.5,32.729c22.056,5.516,122.469,7.922,162.381-46.314
				l1.653,1.223C573.45,344.955,510.909,354.455,470.819,354.455z"/>
			<path fill="#FFFFFF" d="M476.291,377.615l-1.779-1.039c6.714-11.512,0.083-22.371,0.021-22.48l1.746-1.09
				C476.576,353.49,483.625,365.041,476.291,377.615z"/>
			<path fill="#FFFFFF" d="M796.739,179.252c-12.879-13.895-13.694-27.926-13.728-28.515c0.03-0.869,2.812-78.533-16.156-121.464
				c-1.854-4.188-7.618-11.862-12.709-18.634c-2.688-3.573-5.229-6.951-7.053-9.618l1.697-1.162
				c1.798,2.629,4.322,5.988,6.997,9.543c5.408,7.194,11.001,14.633,12.949,19.039c19.163,43.369,16.36,121.502,16.333,122.285
				c0.007,0.047,0.835,13.81,13.176,27.125L796.739,179.252z"/>
			<path fill="#FFFFFF" d="M797.134,200.734c-131.391-49.142-411.479-97.281-414.294-97.762c-1.063-0.205-3.24-0.624-3.209-2.194
				c0.026-1.295,0.064-3.254,27.938-8.461c11.396-2.128,22.909-3.934,26.167-4.436c-0.156-6.888-0.049-50.449,25.669-88.689
				l1.71,1.15c-27.479,40.857-25.317,87.894-25.292,88.365l0.049,0.932l-0.924,0.139c-23.521,3.557-48.729,8.45-52.831,10.899
				c0.248,0.081,0.599,0.173,1.092,0.267c2.795,0.478,283.078,48.651,414.646,97.859L797.134,200.734z"/>
			<path fill="#FFFFFF" d="M593.54,270.361c-0.781,0-1.552-0.041-2.306-0.129c-7.093-0.816-11.811-5.34-13.285-12.736l2.019-0.402
				c1.654,8.264,7.168,10.594,11.503,11.094c8.608,0.979,20.053-4.61,23.104-11.315c2.04-4.488,5.854-6.789,10.271-9.453
				c7.114-4.289,15.975-9.625,22.186-27.016c9.101-25.479,5.171-39.667-13.144-47.438c-15.925-6.758-36.73,13.785-36.939,13.992
				l-1.456-1.456c0.891-0.892,22.007-21.729,39.204-14.431c19.303,8.191,23.706,23.619,14.271,50.024
				c-6.457,18.083-15.661,23.635-23.057,28.09c-4.295,2.592-7.688,4.639-9.464,8.547
				C613.294,264.656,602.651,270.361,593.54,270.361z"/>
			<path fill="#FFFFFF" d="M685.593,280.385c-0.479,0-0.978-0.037-1.494-0.111c-10.394-1.489-27.979-18.84-27.962-30.092
				c0.015-4.521-0.095-9.522-0.205-14.828c-0.237-11.694-0.518-24.958,0.182-40.56c0.307-6.921-1.789-12.783-6.229-17.426
				c-10.151-10.613-28.632-11.438-34.055-11.438c-12.537,0-28.149,10.184-40.692,18.366c-5.066,3.306-9.445,6.162-12.972,7.924
				c-5.533,2.765-10.854,5.047-15.076,2.603c-5.007-2.896-7.703-12.103-8.749-29.861c-1.947-33.091-19.802-34.562-20.562-34.609
				l0.109-2.056c0.834,0.045,20.441,1.509,22.503,36.544c0.986,16.764,3.441,25.723,7.729,28.199
				c3.342,1.93,8.112-0.158,13.123-2.66c3.418-1.709,7.751-4.536,12.768-7.809c12.774-8.33,28.669-18.699,41.818-18.699
				c5.63,0,24.826,0.87,35.542,12.072c4.846,5.064,7.133,11.438,6.8,18.941c-0.692,15.535-0.416,28.758-0.175,40.426
				c0.105,5.312,0.214,10.332,0.205,14.875c-0.021,10.246,16.688,26.688,26.188,28.051c3.112,0.449,5.043-0.728,5.874-3.586
				c3.457-11.861,15.903-26.193,29.081-41.365c13.972-16.082,28.414-32.712,32.798-47.279l1.978,0.596
				c-4.517,14.989-19.104,31.788-33.214,48.035c-13.026,14.996-25.33,29.162-28.66,40.596
				C691.263,278.592,688.927,280.385,685.593,280.385z"/>
			<path fill="#FFFFFF" d="M445.584,392.586c0.741-0.984,1.461-1.861,2.151-2.615c7.85-8.562,19.743-9.887,41.337-12.283
				c8.307-0.924,17.722-1.97,28.913-3.64c40.976-6.116,97.314-29.743,129.521-48.866c8.892-5.275,23.132-12.709,38.211-20.57
				c39.197-20.441,83.623-43.613,86.465-54.693c0.326-1.26,0.164-2.385-0.479-3.352c-8.245-12.371-42.812-21.393-44.279-21.771
				l-0.513,1.996c0.35,0.092,35.267,9.197,43.079,20.916c0.31,0.47,0.377,1.01,0.197,1.699
				c-2.609,10.188-50.476,35.151-85.422,53.381c-15.105,7.877-29.373,15.317-38.311,20.625
				c-32.037,19.026-88.054,42.526-128.778,48.604c-11.146,1.662-20.546,2.705-28.835,3.631
				c-22.088,2.451-34.255,3.803-42.628,12.938c-0.799,0.871-1.635,1.912-2.492,3.064
				C444.439,391.825,445.062,392.152,445.584,392.586z"/>
			<path fill="#FFFFFF" d="M436.163,434.802c-7.91,5.252-14.655,9.478-18.535,11.597c0.202-0.181,0.414-0.369,0.644-0.572
				l0.179-0.156l0.092-0.219c0.05-0.121,1.499-3.578,3.799-8.755c-0.709-0.036-1.403-0.208-2.046-0.486
				c-1.889,4.271-3.183,7.333-3.561,8.236c-3.499,3.098-4.159,4.104-3.354,5.061c0.164,0.191,0.333,0.396,0.812,0.396
				c1.551,0,6.325-2.179,24.298-14.179C437.651,435.6,436.855,435.271,436.163,434.802z"/>
			<path fill="#FFFFFF" d="M795.473,412.984c-0.853,0.854-3.76-0.302-7.439-1.754c-9.002-3.566-25.767-10.207-52.354-4.697
				c-21.652,4.493-63.606,8.91-103.848,11.834c0.016,0.712-0.099,1.426-0.344,2.087c40.493-2.933,82.811-7.382,104.609-11.909
				c25.987-5.385,42.37,1.111,51.175,4.598c4.893,1.942,7.848,3.109,9.656,1.298L795.473,412.984z"/>
			<path fill="#FFFFFF" d="M796.487,365.537c-3.255-15.354-10.703-17.281-17.278-18.982c-3.401-0.883-6.613-1.715-8.701-4.354
				c-3.931-4.971-0.674-11.338,4.256-20.979c2.812-5.492,6.312-12.339,9.328-20.632c7.357-20.229-3.035-44.524-8.031-56.2
				c-0.403-0.957-0.771-1.82-1.091-2.576c-3.181-7.668-31.587-18.507-42.264-22.042l0.646-1.955
				c1.604,0.529,39.329,13.099,43.521,23.208c0.312,0.75,0.676,1.604,1.081,2.553c5.099,11.922,15.711,36.725,8.072,57.723
				c-3.062,8.414-6.593,15.316-9.434,20.863c-4.563,8.928-7.584,14.826-4.475,18.758c1.658,2.098,4.413,2.812,7.604,3.639
				c6.8,1.765,15.263,3.953,18.775,20.556L796.487,365.537z"/>
			<path fill="#FFFFFF" d="M518.097,434.758c-2.804,4.21-6.941,8.902-13.104,13.605l1.248,1.637
				c6.604-5.038,10.989-10.062,13.916-14.553C519.451,435.326,518.742,435.096,518.097,434.758z"/>
			<path fill="#FFFFFF" d="M394.748,434.465c-3.969,5.24-7.681,10.124-10.765,14.08l1.625,1.271
				c3.27-4.196,7.234-9.419,11.472-15.009C396.289,434.868,395.489,434.742,394.748,434.465z"/>
			<path fill="#FFFFFF" d="M457.326,353.271c-1.664,5.895-7.257,21.494-13.092,22.815c-2.911,0.659-8.763,6.646-16.688,16.166
				c0.031-0.007,0.062-0.017,0.092-0.022c1.016-0.215,2.028-0.362,3.042-0.479c6.496-7.69,11.739-13.136,14.007-13.651
				c8.071-1.832,13.973-21.979,14.617-24.27L457.326,353.271z"/>
			<path fill="#FFFFFF" d="M449.007,146.12c1.522,0,19.799,4.062,22.335,8.633c2.536,4.571-13.198,1.647-18.271,0
				C447.866,153.061,449.007,146.12,449.007,146.12z"/>
			<path fill="#FFFFFF" d="M442.912,126.831c0,0,3.389,7.105,6.01,8.63c2.622,1.522,24.957,5.583,34.604,10.659
				c9.644,5.077,11.751,1.523,11.713,0C495.198,144.597,450.529,120.739,442.912,126.831z"/>
			<path fill="#FFFFFF" d="M424.133,213.635c0,0-14.726-4.568-17.261,0C404.333,218.206,420.071,223.789,424.133,213.635z"/>
			<path fill="#FFFFFF" d="M443.913,282.92l-2.001-0.484c0.074-0.311,7.419-31.139,0.165-41.211
				c-7.782-10.803-4.386-30.01-4.237-30.823c0.355-5.091-10.05-10.435-14.09-12.055l0.766-1.911
				c0.649,0.26,15.917,6.464,15.364,14.223c-0.049,0.305-3.396,19.272,3.868,29.364C451.551,250.859,444.229,281.617,443.913,282.92
				z"/>
			<path fill="#FFFFFF" d="M690.448,300.629c-0.177-1.047-4.244-25.68,3.104-32.068l1.354,1.558
				c-5.381,4.678-3.575,23.36-2.428,30.174L690.448,300.629z"/>
			<path fill="#FFFFFF" d="M768.35,162.509c-30.673-7.107-52.08-12.56-72.776-17.833c-44.575-11.354-90.667-23.092-232.149-52.205
				l0.413-2.015c141.532,29.12,187.646,40.865,232.245,52.225c20.688,5.269,42.086,10.72,72.733,17.821L768.35,162.509z"/>
		</g>
	</g>
</g>
<g id="Layer_4">
	<rect x="174.5" y="399.651" fill="none" width="451" height="36"/>
	<g enable-background="new    ">
		<path fill="#FFFFFF" d="M185.828,403.94c-0.096-0.288-0.192-0.64-0.192-0.928c0-1.376,1.152-2.4,2.528-2.4
			c1.152,0,2.08,0.736,2.4,1.761l4.448,13.727l4.479-13.599c0.384-1.152,1.248-1.952,2.496-1.952h0.384
			c1.248,0,2.112,0.768,2.496,1.952l4.48,13.599l4.448-13.727c0.32-0.96,1.152-1.761,2.368-1.761c1.344,0,2.432,1.024,2.432,2.368
			c0,0.288-0.096,0.672-0.192,0.96l-6.271,17.599c-0.448,1.248-1.376,2.016-2.56,2.016h-0.512c-1.184,0-2.08-0.735-2.528-2.016
			l-4.416-12.831l-4.416,12.831c-0.448,1.28-1.344,2.016-2.528,2.016h-0.512c-1.184,0-2.112-0.768-2.56-2.016L185.828,403.94z"/>
		<path fill="#FFFFFF" d="M221.54,402.085c0-1.344,1.088-2.433,2.432-2.433c1.344,0,2.432,1.089,2.432,2.433v6.399
			c1.12-1.44,2.56-2.752,5.023-2.752c3.68,0,5.824,2.432,5.824,6.367v8.863c0,1.345-1.088,2.433-2.432,2.433
			c-1.344,0-2.432-1.088-2.432-2.433v-7.327c0-2.304-1.088-3.487-2.944-3.487c-1.855,0-3.04,1.184-3.04,3.487v7.327
			c0,1.345-1.088,2.433-2.432,2.433c-1.344,0-2.432-1.088-2.432-2.433V402.085z"/>
		<path fill="#FFFFFF" d="M240.451,418.275v-0.063c0-3.744,2.848-5.472,6.912-5.472c1.728,0,2.976,0.288,4.191,0.703v-0.287
			c0-2.017-1.248-3.136-3.68-3.136c-1.344,0-2.432,0.191-3.359,0.479c-0.288,0.096-0.48,0.128-0.704,0.128
			c-1.12,0-2.016-0.864-2.016-1.983c0-0.864,0.544-1.601,1.312-1.889c1.536-0.575,3.2-0.896,5.472-0.896
			c2.656,0,4.576,0.704,5.792,1.92c1.28,1.28,1.856,3.168,1.856,5.472v7.808c0,1.312-1.056,2.336-2.368,2.336
			c-1.408,0-2.336-0.992-2.336-2.017v-0.031c-1.184,1.312-2.816,2.176-5.184,2.176C243.107,423.523,240.451,421.667,240.451,418.275
			z M251.619,417.155v-0.863c-0.832-0.385-1.92-0.641-3.104-0.641c-2.08,0-3.36,0.832-3.36,2.368v0.064
			c0,1.312,1.088,2.079,2.656,2.079C250.083,420.163,251.619,418.915,251.619,417.155z"/>
		<path fill="#FFFFFF" d="M261.059,418.34v-8.128h-0.16c-1.152,0-2.08-0.928-2.08-2.08c0-1.151,0.928-2.079,2.08-2.079h0.16v-2.145
			c0-1.344,1.088-2.432,2.432-2.432c1.344,0,2.432,1.088,2.432,2.432v2.145h2.144c1.152,0,2.08,0.928,2.08,2.079
			c0,1.152-0.928,2.08-2.08,2.08h-2.144v7.327c0,1.12,0.48,1.664,1.568,1.664c0.16,0,0.48-0.031,0.576-0.031
			c1.088,0,2.016,0.896,2.016,2.016c0,0.863-0.576,1.567-1.248,1.823c-0.896,0.353-1.728,0.48-2.784,0.48
			C263.075,423.491,261.059,422.308,261.059,418.34z"/>
		<path fill="#FFFFFF" d="M283.075,401.957c0-1.408,1.184-2.272,2.72-2.272c1.536,0,2.72,0.864,2.72,2.272v0.063
			c0,1.408-1.184,2.304-2.72,2.304c-1.536,0-2.72-0.896-2.72-2.304V401.957z M283.363,408.292c0-1.344,1.088-2.432,2.432-2.432
			c1.344,0,2.432,1.088,2.432,2.432v12.671c0,1.345-1.088,2.433-2.432,2.433c-1.344,0-2.432-1.088-2.432-2.433V408.292z"/>
		<path fill="#FFFFFF" d="M292.354,421.571c-0.512-0.32-0.928-0.896-0.928-1.664c0-1.088,0.832-1.92,1.92-1.92
			c0.352,0,0.704,0.097,0.96,0.256c1.632,1.024,3.264,1.536,4.64,1.536c1.408,0,2.048-0.512,2.048-1.28v-0.063
			c0-1.056-1.664-1.408-3.552-1.984c-2.4-0.703-5.12-1.823-5.12-5.151v-0.063c0-3.488,2.816-5.439,6.271-5.439
			c1.792,0,3.648,0.479,5.312,1.312c0.704,0.352,1.152,0.992,1.152,1.824c0,1.088-0.864,1.919-1.952,1.919
			c-0.352,0-0.576-0.063-0.896-0.224c-1.376-0.672-2.688-1.088-3.711-1.088c-1.184,0-1.792,0.512-1.792,1.184v0.064
			c0,0.96,1.632,1.408,3.488,2.048c2.4,0.8,5.184,1.952,5.184,5.088v0.063c0,3.808-2.848,5.536-6.56,5.536
			C296.706,423.523,294.434,422.915,292.354,421.571z"/>
		<path fill="#FFFFFF" d="M318.53,420.835c-0.544-0.384-0.928-1.088-0.928-1.855c0-1.28,1.024-2.271,2.304-2.271
			c0.64,0,1.088,0.224,1.408,0.447c1.696,1.248,3.552,2.017,5.728,2.017c2.016,0,3.232-0.801,3.232-2.112v-0.064
			c0-1.247-0.768-1.888-4.512-2.848c-4.512-1.151-7.423-2.399-7.423-6.848v-0.063c0-4.063,3.264-6.752,7.839-6.752
			c2.72,0,5.088,0.704,7.104,1.984c0.544,0.32,1.088,0.992,1.088,1.952c0,1.279-1.024,2.271-2.304,2.271
			c-0.48,0-0.864-0.128-1.248-0.352c-1.632-0.96-3.167-1.504-4.704-1.504c-1.888,0-2.88,0.863-2.88,1.951v0.064
			c0,1.472,0.96,1.951,4.832,2.943c4.543,1.185,7.103,2.816,7.103,6.72v0.064c0,4.447-3.392,6.943-8.223,6.943
			C324.001,423.523,321.026,422.627,318.53,420.835z"/>
		<path fill="#FFFFFF" d="M338.946,402.085c0-1.344,1.088-2.433,2.432-2.433c1.344,0,2.432,1.089,2.432,2.433v6.399
			c1.12-1.44,2.56-2.752,5.023-2.752c3.68,0,5.824,2.432,5.824,6.367v8.863c0,1.345-1.088,2.433-2.432,2.433
			c-1.344,0-2.432-1.088-2.432-2.433v-7.327c0-2.304-1.088-3.487-2.944-3.487c-1.855,0-3.04,1.184-3.04,3.487v7.327
			c0,1.345-1.088,2.433-2.432,2.433c-1.344,0-2.432-1.088-2.432-2.433V402.085z"/>
		<path fill="#FFFFFF" d="M358.049,414.724v-0.063c0-4.928,3.968-8.928,9.312-8.928c5.312,0,9.247,3.936,9.247,8.863v0.064
			c0,4.927-3.967,8.927-9.311,8.927C361.985,423.587,358.049,419.651,358.049,414.724z M371.809,414.724v-0.063
			c0-2.528-1.824-4.736-4.512-4.736c-2.784,0-4.448,2.145-4.448,4.672v0.064c0,2.527,1.824,4.735,4.512,4.735
			C370.145,419.396,371.809,417.252,371.809,414.724z"/>
		<path fill="#FFFFFF" d="M380.929,418.34v-8.128h-0.16c-1.152,0-2.08-0.928-2.08-2.08c0-1.151,0.928-2.079,2.08-2.079h0.16v-2.145
			c0-1.344,1.088-2.432,2.432-2.432c1.344,0,2.432,1.088,2.432,2.432v2.145h2.144c1.152,0,2.08,0.928,2.08,2.079
			c0,1.152-0.928,2.08-2.08,2.08h-2.144v7.327c0,1.12,0.48,1.664,1.568,1.664c0.16,0,0.48-0.031,0.576-0.031
			c1.088,0,2.016,0.896,2.016,2.016c0,0.863-0.576,1.567-1.248,1.823c-0.896,0.353-1.728,0.48-2.784,0.48
			C382.945,423.491,380.929,422.308,380.929,418.34z"/>
		<path fill="#FFFFFF" d="M393.921,403.076c0-1.375,1.088-2.464,2.464-2.464c1.375,0,2.463,1.089,2.463,2.464v15.647h9.12
			c1.248,0,2.239,0.992,2.239,2.239c0,1.248-0.991,2.24-2.239,2.24h-11.583c-1.376,0-2.464-1.088-2.464-2.464V403.076z"/>
		<path fill="#FFFFFF" d="M413.152,401.957c0-1.408,1.184-2.272,2.72-2.272s2.72,0.864,2.72,2.272v0.063
			c0,1.408-1.184,2.304-2.72,2.304s-2.72-0.896-2.72-2.304V401.957z M413.44,408.292c0-1.344,1.088-2.432,2.432-2.432
			c1.345,0,2.433,1.088,2.433,2.432v12.671c0,1.345-1.088,2.433-2.433,2.433c-1.344,0-2.432-1.088-2.432-2.433V408.292z"/>
		<path fill="#FFFFFF" d="M422.432,421.571c-0.512-0.32-0.928-0.896-0.928-1.664c0-1.088,0.832-1.92,1.92-1.92
			c0.352,0,0.704,0.097,0.96,0.256c1.632,1.024,3.264,1.536,4.64,1.536c1.408,0,2.048-0.512,2.048-1.28v-0.063
			c0-1.056-1.664-1.408-3.552-1.984c-2.4-0.703-5.119-1.823-5.119-5.151v-0.063c0-3.488,2.815-5.439,6.271-5.439
			c1.791,0,3.647,0.479,5.311,1.312c0.705,0.352,1.152,0.992,1.152,1.824c0,1.088-0.863,1.919-1.951,1.919
			c-0.353,0-0.576-0.063-0.896-0.224c-1.376-0.672-2.688-1.088-3.711-1.088c-1.185,0-1.793,0.512-1.793,1.184v0.064
			c0,0.96,1.633,1.408,3.488,2.048c2.4,0.8,5.184,1.952,5.184,5.088v0.063c0,3.808-2.848,5.536-6.56,5.536
			C426.783,423.523,424.512,422.915,422.432,421.571z"/>
		<path fill="#FFFFFF" d="M439.424,418.34v-8.128h-0.16c-1.151,0-2.08-0.928-2.08-2.08c0-1.151,0.929-2.079,2.08-2.079h0.16v-2.145
			c0-1.344,1.088-2.432,2.432-2.432c1.345,0,2.433,1.088,2.433,2.432v2.145h2.144c1.151,0,2.08,0.928,2.08,2.079
			c0,1.152-0.929,2.08-2.08,2.08h-2.144v7.327c0,1.12,0.479,1.664,1.567,1.664c0.16,0,0.48-0.031,0.576-0.031
			c1.088,0,2.016,0.896,2.016,2.016c0,0.863-0.576,1.567-1.248,1.823c-0.896,0.353-1.728,0.48-2.783,0.48
			C441.439,423.491,439.424,422.308,439.424,418.34z"/>
		<path fill="#FFFFFF" d="M451.775,408.964c1.632-0.384,2.528-1.504,2.464-3.039c-1.119-0.288-2.239-1.248-2.239-2.624v-0.064
			c0-1.504,1.056-2.624,2.655-2.624c1.792,0,2.848,1.376,2.848,3.584v0.128c0,2.336-0.703,4.064-1.888,5.248
			c-0.96,0.96-2.399,1.536-3.584,1.536c-0.863,0-1.216-0.513-1.216-1.088C450.815,409.444,451.231,409.092,451.775,408.964z"/>
		<path fill="#FFFFFF" d="M460.447,421.571c-0.512-0.32-0.928-0.896-0.928-1.664c0-1.088,0.832-1.92,1.92-1.92
			c0.353,0,0.704,0.097,0.96,0.256c1.632,1.024,3.264,1.536,4.64,1.536c1.408,0,2.048-0.512,2.048-1.28v-0.063
			c0-1.056-1.664-1.408-3.552-1.984c-2.399-0.703-5.119-1.823-5.119-5.151v-0.063c0-3.488,2.815-5.439,6.271-5.439
			c1.792,0,3.647,0.479,5.312,1.312c0.704,0.352,1.151,0.992,1.151,1.824c0,1.088-0.863,1.919-1.951,1.919
			c-0.353,0-0.576-0.063-0.896-0.224c-1.376-0.672-2.688-1.088-3.712-1.088c-1.184,0-1.792,0.512-1.792,1.184v0.064
			c0,0.96,1.633,1.408,3.488,2.048c2.399,0.8,5.184,1.952,5.184,5.088v0.063c0,3.808-2.848,5.536-6.56,5.536
			C464.799,423.523,462.527,422.915,460.447,421.571z"/>
		<path fill="#FFFFFF" d="M487.359,418.34v-8.128h-0.16c-1.151,0-2.079-0.928-2.079-2.08c0-1.151,0.928-2.079,2.079-2.079h0.16
			v-2.145c0-1.344,1.088-2.432,2.432-2.432c1.345,0,2.433,1.088,2.433,2.432v2.145h2.144c1.151,0,2.08,0.928,2.08,2.079
			c0,1.152-0.929,2.08-2.08,2.08h-2.144v7.327c0,1.12,0.479,1.664,1.567,1.664c0.16,0,0.48-0.031,0.576-0.031
			c1.088,0,2.016,0.896,2.016,2.016c0,0.863-0.576,1.567-1.248,1.823c-0.896,0.353-1.728,0.48-2.783,0.48
			C489.375,423.491,487.359,422.308,487.359,418.34z"/>
		<path fill="#FFFFFF" d="M498.815,418.275v-0.063c0-3.744,2.848-5.472,6.911-5.472c1.728,0,2.976,0.288,4.191,0.703v-0.287
			c0-2.017-1.248-3.136-3.68-3.136c-1.344,0-2.432,0.191-3.359,0.479c-0.288,0.096-0.48,0.128-0.704,0.128
			c-1.12,0-2.016-0.864-2.016-1.983c0-0.864,0.544-1.601,1.312-1.889c1.536-0.575,3.2-0.896,5.472-0.896
			c2.656,0,4.576,0.704,5.792,1.92c1.279,1.28,1.855,3.168,1.855,5.472v7.808c0,1.312-1.056,2.336-2.368,2.336
			c-1.407,0-2.336-0.992-2.336-2.017v-0.031c-1.184,1.312-2.815,2.176-5.184,2.176C501.471,423.523,498.815,421.667,498.815,418.275
			z M509.982,417.155v-0.863c-0.832-0.385-1.92-0.641-3.104-0.641c-2.079,0-3.359,0.832-3.359,2.368v0.064
			c0,1.312,1.088,2.079,2.656,2.079C508.446,420.163,509.982,418.915,509.982,417.155z"/>
		<path fill="#FFFFFF" d="M520.19,427.203c-0.832-0.32-1.376-0.992-1.376-1.888c0-1.089,0.896-1.984,1.983-1.984
			c0.32,0,0.576,0.064,0.8,0.16c1.408,0.64,2.912,1.023,4.736,1.023c3.327,0,4.896-1.6,4.896-4.671v-0.832
			c-1.44,1.728-3.008,2.783-5.6,2.783c-4,0-7.615-2.911-7.615-7.999v-0.064c0-5.119,3.68-7.999,7.615-7.999
			c2.655,0,4.224,1.12,5.535,2.56v-0.032c0-1.312,1.088-2.399,2.433-2.399c1.344,0,2.432,1.088,2.432,2.432v11.039
			c0,3.072-0.736,5.312-2.176,6.752c-1.601,1.6-4.064,2.304-7.392,2.304C524.189,428.387,522.206,428.003,520.19,427.203z
			 M531.229,413.796v-0.064c0-2.336-1.824-3.968-4.191-3.968c-2.368,0-4.16,1.632-4.16,3.968v0.064c0,2.368,1.792,3.968,4.16,3.968
			C529.405,417.764,531.229,416.132,531.229,413.796z"/>
		<path fill="#FFFFFF" d="M540.605,402.085c0-1.344,1.088-2.433,2.433-2.433c1.344,0,2.432,1.089,2.432,2.433v18.878
			c0,1.345-1.088,2.433-2.432,2.433c-1.345,0-2.433-1.088-2.433-2.433V402.085z"/>
		<path fill="#FFFFFF" d="M549.982,401.957c0-1.408,1.184-2.272,2.72-2.272c1.535,0,2.72,0.864,2.72,2.272v0.063
			c0,1.408-1.185,2.304-2.72,2.304c-1.536,0-2.72-0.896-2.72-2.304V401.957z M550.27,408.292c0-1.344,1.088-2.432,2.433-2.432
			c1.344,0,2.432,1.088,2.432,2.432v12.671c0,1.345-1.088,2.433-2.432,2.433c-1.345,0-2.433-1.088-2.433-2.433V408.292z"/>
		<path fill="#FFFFFF" d="M559.71,408.292c0-1.344,1.088-2.432,2.432-2.432s2.432,1.088,2.432,2.432v0.192
			c1.12-1.44,2.561-2.752,5.024-2.752c3.68,0,5.823,2.432,5.823,6.367v8.863c0,1.345-1.088,2.433-2.432,2.433
			s-2.432-1.088-2.432-2.433v-7.327c0-2.304-1.088-3.487-2.944-3.487c-1.855,0-3.04,1.184-3.04,3.487v7.327
			c0,1.345-1.088,2.433-2.432,2.433s-2.432-1.088-2.432-2.433V408.292z"/>
		<path fill="#FFFFFF" d="M587.773,423.587c-5.152,0-8.96-3.615-8.96-8.863v-0.063c0-4.896,3.488-8.928,8.479-8.928
			c5.728,0,8.256,4.704,8.256,8.256c0,1.407-0.992,2.335-2.272,2.335h-9.631c0.479,2.208,2.016,3.36,4.191,3.36
			c1.344,0,2.464-0.416,3.456-1.152c0.352-0.256,0.672-0.384,1.184-0.384c1.088,0,1.888,0.832,1.888,1.92
			c0,0.64-0.288,1.12-0.64,1.439C592.221,422.787,590.269,423.587,587.773,423.587z M590.909,413.284
			c-0.288-2.176-1.568-3.648-3.616-3.648c-2.016,0-3.328,1.44-3.712,3.648H590.909z"/>
		<path fill="#FFFFFF" d="M603.646,415.779c-0.929,0-1.601-0.703-1.729-1.567l-0.319-2.176c-0.16-1.056,0.447-1.792,1.472-1.92
			c2.783-0.353,4.063-1.216,4.063-2.784v-0.063c0-1.44-1.088-2.272-2.943-2.272c-1.376,0-2.561,0.416-3.712,1.28
			c-0.384,0.288-0.896,0.512-1.44,0.512c-1.216,0-2.239-1.023-2.239-2.239c0-0.608,0.256-1.248,0.832-1.729
			c1.695-1.407,3.84-2.304,6.655-2.304c4.607,0,7.743,2.368,7.743,6.624v0.063c0,4.063-2.815,5.728-6.304,6.432l-0.096,0.576
			c-0.128,0.832-0.8,1.567-1.728,1.567H603.646z M603.646,417.892c1.6,0,2.783,1.184,2.783,2.72v0.064
			c0,1.535-1.184,2.72-2.783,2.72c-1.601,0-2.784-1.185-2.784-2.72v-0.064C600.861,419.075,602.045,417.892,603.646,417.892z"/>
	</g>
</g>
</svg>
