<?xml version="1.0" encoding="utf-8"?>
<!-- Generator: Adobe Illustrator 16.2.1, SVG Export Plug-In . SVG Version: 6.00 Build 0)  -->
<!DOCTYPE svg PUBLIC "-//W3C//DTD SVG 1.0//EN" "http://www.w3.org/TR/2001/REC-SVG-20010904/DTD/svg10.dtd">
<svg version="1.0" id="Layer_1" xmlns="http://www.w3.org/2000/svg" xmlns:xlink="http://www.w3.org/1999/xlink" x="0px" y="0px"
	 width="800px" height="450px" viewBox="0 0 800 450" enable-background="new 0 0 800 450" xml:space="preserve">
<g id="Layer_3">
	<g>
		<rect x="265.824" y="350.46" fill="#FFFFFF" width="2.067" height="10.338"/>
		<rect x="265.824" y="267.764" fill="#FFFFFF" width="2.067" height="10.338"/>
		<rect x="265.824" y="247.09" fill="#FFFFFF" width="2.067" height="10.337"/>
		<rect x="265.824" y="371.134" fill="#FFFFFF" width="2.067" height="10.337"/>
		<path fill="#FFFFFF" d="M265.824,436.278v7.216h2.067v-7.141C267.194,436.464,266.487,436.446,265.824,436.278z"/>
		<polygon fill="#FFFFFF" points="267.892,288.438 265.824,288.438 265.824,298.182 261.738,298.182 261.738,300.249 
			272.001,300.249 272.001,298.182 267.892,298.182 		"/>
		<rect x="265.824" y="329.785" fill="#FFFFFF" width="2.067" height="10.338"/>
		<rect x="265.824" y="185.067" fill="#FFFFFF" width="2.067" height="10.337"/>
		<rect x="265.824" y="205.741" fill="#FFFFFF" width="2.067" height="10.337"/>
		<rect x="265.824" y="226.416" fill="#FFFFFF" width="2.067" height="10.336"/>
		<rect x="265.824" y="164.393" fill="#FFFFFF" width="2.067" height="10.338"/>
		<rect x="265.824" y="309.111" fill="#FFFFFF" width="2.067" height="10.337"/>
		<rect x="265.824" y="102.371" fill="#FFFFFF" width="2.067" height="10.337"/>
		<rect x="265.824" y="123.045" fill="#FFFFFF" width="2.067" height="10.336"/>
		<rect x="265.824" y="61.022" fill="#FFFFFF" width="2.067" height="10.337"/>
		<rect x="265.824" y="81.697" fill="#FFFFFF" width="2.067" height="10.337"/>
		<rect x="265.824" y="19.674" fill="#FFFFFF" width="2.067" height="10.337"/>
		<rect x="265.824" y="40.349" fill="#FFFFFF" width="2.067" height="10.336"/>
		<rect x="265.824" y="-1" fill="#FFFFFF" width="2.067" height="10.337"/>
		<rect y="298.182" fill="#FFFFFF" width="5.169" height="2.067"/>
		<rect x="35.957" y="298.182" fill="#FFFFFF" width="10.262" height="2.067"/>
		<rect x="118.059" y="298.182" fill="#FFFFFF" width="10.263" height="2.067"/>
		<rect x="15.432" y="298.182" fill="#FFFFFF" width="10.262" height="2.067"/>
		<rect x="159.111" y="298.182" fill="#FFFFFF" width="10.262" height="2.067"/>
		<rect x="179.636" y="298.182" fill="#FFFFFF" width="10.262" height="2.067"/>
		<rect x="200.162" y="298.182" fill="#FFFFFF" width="10.263" height="2.067"/>
		<rect x="138.584" y="298.182" fill="#FFFFFF" width="10.264" height="2.067"/>
		<rect x="77.009" y="298.182" fill="#FFFFFF" width="10.262" height="2.067"/>
		<rect x="56.483" y="298.182" fill="#FFFFFF" width="10.262" height="2.067"/>
		<rect x="220.688" y="298.182" fill="#FFFFFF" width="10.263" height="2.067"/>
		<rect x="97.533" y="298.182" fill="#FFFFFF" width="10.263" height="2.067"/>
		<rect x="241.212" y="298.182" fill="#FFFFFF" width="10.264" height="2.067"/>
		<rect x="692.776" y="298.182" fill="#FFFFFF" width="10.263" height="2.067"/>
		<rect x="651.725" y="298.182" fill="#FFFFFF" width="10.264" height="2.067"/>
		<rect x="610.673" y="298.182" fill="#FFFFFF" width="10.265" height="2.067"/>
		<rect x="631.198" y="298.182" fill="#FFFFFF" width="10.264" height="2.067"/>
		<rect x="590.15" y="298.182" fill="#FFFFFF" width="10.261" height="2.067"/>
		<rect x="569.624" y="298.182" fill="#FFFFFF" width="10.26" height="2.067"/>
		<rect x="713.302" y="298.182" fill="#FFFFFF" width="10.266" height="2.067"/>
		<rect x="754.354" y="298.182" fill="#FFFFFF" width="10.264" height="2.067"/>
		<rect x="774.879" y="298.182" fill="#FFFFFF" width="10.263" height="2.067"/>
		<rect x="733.828" y="298.182" fill="#FFFFFF" width="10.263" height="2.067"/>
		<rect x="672.251" y="298.182" fill="#FFFFFF" width="10.261" height="2.067"/>
		<rect x="549.098" y="298.182" fill="#FFFFFF" width="10.264" height="2.067"/>
		<rect x="405.42" y="298.182" fill="#FFFFFF" width="10.26" height="2.067"/>
		<rect x="384.892" y="298.182" fill="#FFFFFF" width="10.265" height="2.067"/>
		<rect x="364.366" y="298.182" fill="#FFFFFF" width="10.263" height="2.067"/>
		<rect x="343.841" y="298.182" fill="#FFFFFF" width="10.263" height="2.067"/>
		<rect x="302.79" y="298.182" fill="#FFFFFF" width="10.262" height="2.067"/>
		<rect x="323.315" y="298.182" fill="#FFFFFF" width="10.262" height="2.067"/>
		<rect x="487.522" y="298.182" fill="#FFFFFF" width="10.258" height="2.067"/>
		<rect x="466.995" y="298.182" fill="#FFFFFF" width="10.261" height="2.067"/>
		<rect x="508.047" y="298.182" fill="#FFFFFF" width="10.261" height="2.067"/>
		<rect x="282.264" y="298.182" fill="#FFFFFF" width="10.262" height="2.067"/>
		<rect x="425.944" y="298.182" fill="#FFFFFF" width="10.261" height="2.067"/>
		<rect x="446.469" y="298.182" fill="#FFFFFF" width="10.267" height="2.067"/>
		<rect x="795.404" y="298.182" fill="#FFFFFF" width="5.168" height="2.067"/>
		<path fill="#FFFFFF" d="M530.613,435.104v13.642h6.201v-13.269C534.738,435.438,532.676,435.322,530.613,435.104z"/>
		<path fill="#FFFFFF" d="M536.814,146.008V-0.135h-6.201v146.143H267.892v-2.289h-2.068v2.289H0v6.202h265.824v1.846h2.068v-1.846
			h262.721v145.972h-2.044v2.067h2.044v121.173c2.055,0.398,4.124,0.592,6.201,0.618V300.249h2.021v-2.067h-2.021V152.21h263.758
			v-6.202H536.814z"/>
	</g>
	<g>
		<path fill="#FFFFFF" d="M562.191,169.6c0,0-6.686,4.392-1.514,12c5.18,7.61,14.525,5.862,19.033-4.601
			C579.713,176.999,567.263,169.077,562.191,169.6z"/>
		<path fill="#FFFFFF" d="M472.224,148.958c0,0-1.423,11.605,7.884,10.721c9.303-0.886,9.346-8.159,9.346-8.159
			S485.705,145.917,472.224,148.958z"/>
		<path fill="#FFFFFF" d="M509.05,134.397c0,0-0.628-9.82-15.993-12.405c-15.362-2.583-25.955,2.292-31.645,8.27
			c-5.69,5.978,3.617,1.55,7.236,0.259c3.614-1.292,20.128-1.292,25.182,3.876S504.999,135.949,509.05,134.397z"/>
		<path fill="#FFFFFF" d="M562.191,143.7c0,0-5.146,0.776-3.474,6.461c1.67,5.685,12.109,2.742,20.993,6.202
			c13.496,5.255,27.191,21.566,27.191,21.566s3.104-1.409,0-7.095C603.804,165.15,582.356,137.079,562.191,143.7z"/>
		<path fill="#FFFFFF" d="M498.024,227.689c0,0,7.061-4.396,13.779,0c6.722,4.395,3.876,4.274,3.876,4.274
			S498.97,231.564,498.024,227.689z"/>
		<g>
			<path fill="#FFFFFF" d="M603.094,214.853c13.771,4.373,19.219-2.825,19.219-2.825l11.255-13.35l2.628,5.284l-12.777,14.191
				c-4.104,7.414-19.991,6.034-23.199,4.581"/>
			<path fill="#FFFFFF" d="M520.08,197.631c0,0-22.021-3.212-32.223-8.898l-1.352,4.891c0,0,19.769,8.147,32.534,7.775
				L520.08,197.631z"/>
			<polyline fill="#FFFFFF" points="432.13,164.719 455.474,137.079 454.333,144.735 429.569,174.022 			"/>
		</g>
		<g>
			<path fill="#FFFFFF" d="M281.794,436.711c-1.804,5.006-3.555,9.667-5.251,13.759l1.911,0.79
				c1.723-4.154,3.498-8.885,5.325-13.958C283.079,437.233,282.399,437.036,281.794,436.711z"/>
			<path fill="#FFFFFF" d="M799.114,369.277c-18.014-2.762-58.36-39.514-60.017-41.025c-0.738-1.63-1.417-2.675-1.69-3.07
				c-7.608-26.68-5.968-58.933-3.359-86.974c2.614-28.108-5.025-133.494-33.283-170.933c-28.429-37.666-62.851-57.08-91.687-52.345
				l0.29-0.703c-1.286-0.526-32.087-12.63-90.396,12.754c-51.777,22.538-56.101,30.933-76.87,71.275
				c-2.88,5.595-6.079,11.813-9.771,18.775c-6.286,11.861-12.033,22.206-17.101,31.333c-19.271,34.712-30.901,55.665-35.389,93.764
				c-0.891,7.572-3.603,30.608,4.609,48.052c8.726,18.533,9.003,27.541,4.85,37.961c-4.88,1.867-53.19,20.404-68.816,27.565
				c-7.938,3.64-15.368,18.067-22.276,35.416c0.728-0.095,1.449-0.008,2.126,0.216c6.656-16.682,13.718-30.408,21.012-33.752
				c14.358-6.582,56.537-22.847,66.829-26.799c-1.432,3.154-3.196,6.497-5.237,10.334l-0.224,0.419
				c-6.629,12.452-11.729,31.459-13.33,50.3c0.679-0.221,1.386-0.32,2.068-0.273c1.615-18.383,6.612-36.893,13.087-49.055
				l0.224-0.422c9.626-18.076,14.021-26.33,1.562-52.793c-7.96-16.906-5.301-39.502-4.426-46.925
				c4.436-37.697,15.342-57.341,35.143-93.004c5.072-9.135,10.82-19.49,17.116-31.368c3.693-6.971,6.899-13.196,9.783-18.796
				c20.977-40.741,24.757-48.083,75.86-70.329c48.854-21.261,78.609-15.652,86.593-13.43c-1.488,0.327-2.969,0.701-4.423,1.161
				l-5.229,1.65c-18.8,5.91-30.154,9.477-34.108,17.56c-2.326,4.752-1.936,10.722,1.27,19.348c0.938,2.534,1.782,4.649,2.571,6.475
				c-3.108,0.86-5.572,1.72-7.56,2.426c-7.294,2.591-9.747,3.461-24.79-2.977c-20.439-8.747-32.259-0.243-32.756,0.12l-0.182,0.176
				c-1.506,1.844-36.892,45.328-43.08,63.9c-2.055,6.163-3.742,11.862-5.233,16.891c-2.247,7.596-4.165,14.029-6.595,19.854
				c-1.015-0.44-2.029-0.875-3.003-1.361c-4.619-2.306-9.396-0.759-12.255,3.856c-3.305,5.327-3.33,13.008-0.07,19.567
				c1.092,2.193,2.249,4.035,3.502,5.626c-5.573,16.699-10.615,39.094-8.956,58.992c2.463,29.555,4.789,57.468,25.185,74.107
				c1.29,1.051,2.54,2.094,3.776,3.125c5.556,4.634,10.751,8.957,16.946,12.111c1.121,3.262,8.139,23.854,12.531,39.545
				c1.218,4.348,1.57,9.447,1.434,14.619c0.684-0.119,1.395-0.102,2.082,0.042c0.133-5.337-0.242-10.637-1.525-15.218
				c-3.878-13.848-9.791-31.494-11.923-37.771c5.479,2.373,11.803,3.834,19.801,3.834c11.878,0,27.442-3.205,49.372-11.334
				c9.308-3.445,17.271-6.312,24.163-8.789c32.896-11.83,41.688-14.998,55.299-31.56c1.544,2.563,4.812,10.905-0.947,30.476
				c-2.037,6.931-3.523,13.496-4.964,19.852c-3.245,14.346-6.354,28.009-15.339,42.282c-1.86,2.288-3.719,4.475-5.571,6.581
				c0.997,0.117,1.965,0.527,2.767,1.143c1.646-2.188,3.133-4.357,4.492-6.512c0.004-0.006,0.01-0.014,0.016-0.02l-0.004-0.002
				c9.208-14.578,12.363-28.455,15.659-43.019c1.431-6.322,2.908-12.854,4.931-19.722c6.395-21.713,2.066-30.362,0.335-32.752
				c1.194-1.492,2.424-3.073,3.718-4.787c0.137-0.174,0.394-0.647,1.729-3.146c0.216-0.404,0.462-0.861,0.708-1.324
				c0.765,5.282,4.54,7.237,4.841,7.377c7.732,2.652,14.586-2.23,20.39-14.49c0.71-1.495,1.632-3.326,2.679-5.408
				c7.695-15.323,20.576-40.975,10.521-50.07c-6.149-5.562-13.409-5.14-18.794-3.578c-15.261-5.216-18.787-23.799-23.645-49.482
				c-1.329-7.034-2.705-14.305-4.454-22.031c-1.188-5.251-2.15-9.748-2.982-13.656c-5.04-23.575-5.567-26.041-23.491-43.369
				c-8.268-7.991-13.234-10.844-16.861-12.927c-5.268-3.025-7.234-4.155-12.523-18.389c-2.95-7.944-3.38-13.575-1.349-17.72
				c3.567-7.287,15.226-10.952,32.871-16.498l5.234-1.651c29.271-9.283,66.261,9.851,96.522,49.943
				c27.944,37.03,35.468,141.59,32.871,169.5c-2.632,28.293-4.275,60.861,3.479,87.899l0.179,0.349
				c0.156,0.209,15.569,21.039-14.407,53.059c-16.595,17.726-17.447,33.027-18.13,45.32c-0.594,10.684-1.023,18.402-11.854,23.151
				l0.83,1.896c11.992-5.264,12.479-13.943,13.086-24.935c0.668-11.96,1.494-26.846,17.575-44.021
				c20.646-22.054,20.427-39.188,17.854-48.353c9.946,8.862,41.993,36.451,58.199,38.938L799.114,369.277z M447.352,164.735
				c4.146,1.674,8.4,3.036,12.292,4.268c4.181,1.323,7.789,2.463,10.393,3.725c0.16,0.073,16.256,7.391,16.614,15.369
				c0.162,3.572-0.846,8.624-4.159,12.091c-3.915,4.099-10.022,4.872-17.655,2.211c-2.695-0.938-5.186-1.756-7.49-2.515
				c-9.567-3.146-15.848-5.226-20.567-10.642c2.938-8.636,5.993-15.62,8.229-19.722
				C445.855,167.962,446.622,166.363,447.352,164.735z M432.801,183.17c-3.352-6.746-2.428-13.679-0.023-17.558
				c1.58-2.552,3.778-3.958,6.192-3.958c1.099,0,2.235,0.289,3.38,0.861c1.011,0.502,2.061,0.952,3.103,1.407
				c-0.706,1.571-1.442,3.111-2.261,4.61c-2.162,3.963-5.071,10.588-7.926,18.782C434.396,186.086,433.577,184.73,432.801,183.17z
				 M577.328,74.626c3.533,2.029,8.375,4.81,16.453,12.621c17.473,16.891,17.986,19.297,22.906,42.316
				c0.839,3.916,1.801,8.419,2.992,13.68c1.74,7.689,3.112,14.944,4.438,21.958c4.743,25.085,8.258,43.565,22.702,50.13
				c-2.903,1.175-4.782,2.422-4.834,2.457l1.158,1.712c0.562-0.381,13.938-9.247,24.053-0.089
				c8.892,8.042-4.037,33.782-10.982,47.608c-1.054,2.098-1.979,3.94-2.692,5.451c-5.355,11.309-11.194,15.693-17.722,13.478
				c-0.185-0.097-4.494-2.407-3.58-9.278l0.11-0.877l-0.819-0.264c-0.902-0.283-0.902-0.301-3.883,5.291
				c-0.678,1.268-1.441,2.701-1.553,2.875c-16.593,21.932-22.302,23.982-59.443,37.34c-6.895,2.479-14.866,5.344-24.178,8.798
				c-55.457,20.56-69.234,9.065-86.678-5.479c-1.238-1.033-2.5-2.086-3.791-3.141c-19.719-16.082-22.008-43.572-24.438-72.678
				c-1.595-19.162,3.119-40.687,8.462-57.018c4.893,5.119,11.253,7.23,20.688,10.331c2.294,0.756,4.771,1.569,7.458,2.504
				c3.188,1.113,6.176,1.676,8.879,1.676c3.041,0,5.773-0.743,8.089-2.14c-1.396,2.29-2.372,4.516-2.935,6.671
				c-1.026,0.545-3.581,2.165-4.497,5.236c-0.807,2.715-0.101,5.77,2.104,9.081l1.722-1.143c-1.844-2.771-2.464-5.235-1.85-7.331
				c0.393-1.323,1.227-2.3,2.014-2.983c-0.104,1.135-0.127,2.255,0.021,3.346c0.65,4.893,3.829,9.124,9.438,12.578l1.083-1.76
				c-5.059-3.114-7.907-6.844-8.476-11.091c-0.72-5.403,2.283-11.861,8.686-18.677c10.66-11.349,21.428-32.418,21.534-32.631
				l-1.846-0.937c-0.103,0.203-10.365,20.286-20.641,31.547c0.983-2.723,1.333-5.525,1.229-7.792
				c-0.42-9.235-17.126-16.842-17.812-17.15c-2.706-1.312-6.381-2.475-10.637-3.822c-3.839-1.215-8.031-2.558-12.091-4.193
				c2.472-5.921,4.405-12.415,6.677-20.078c1.485-5.013,3.171-10.695,5.214-16.825c5.921-17.766,40.585-60.62,42.628-63.135
				c1.138-0.763,12.271-7.666,30.61,0.187c15.79,6.757,18.65,5.742,26.295,3.025c2.125-0.758,4.551-1.606,7.719-2.468
				C570.693,70.792,573.05,72.169,577.328,74.626z"/>
			<path fill="#FFFFFF" d="M580.076,437.449c-0.163-0.739-0.281-1.506-0.361-2.294c-0.632,0.321-1.32,0.521-2.016,0.6
				c0.088,0.721,0.202,1.435,0.355,2.136c1.325,6.021,5.071,10.693,11.144,13.891l0.962-1.829
				C584.654,447.052,581.264,442.844,580.076,437.449z"/>
			<path fill="#FFFFFF" d="M489.516,435.377c4.669,7.988,5.404,13.416,5.417,13.492l2.053-0.248
				c-0.04-0.328-0.753-5.757-5.359-13.779C490.963,435.152,490.24,435.335,489.516,435.377z"/>
			<path fill="#FFFFFF" d="M375.951,434.447c-0.604,0.354-1.266,0.596-1.941,0.721c3.015,7.196,7.253,12.073,12.635,14.52
				l0.855-1.884C382.628,445.591,378.754,441.104,375.951,434.447z"/>
			<path fill="#FFFFFF" d="M547.753,174.682l1.923,0.757c0.109-0.279,2.94-6.808,16.022-4.193
				c14.85,2.969,23.681,18.293,23.77,18.447l1.799-1.018c-0.377-0.664-9.37-16.299-25.158-19.457
				C551.227,166.25,547.887,174.338,547.753,174.682z"/>
			<path fill="#FFFFFF" d="M459.19,148.103l0.479,2.012c29.376-7.026,37.077,11.114,37.394,11.89l1.919-0.77
				C498.899,161.03,490.363,140.646,459.19,148.103z"/>
			<path fill="#FFFFFF" d="M496.017,256.719c-5.769-0.338-10.696-1.792-14.66-4.316c-1.449-0.924-3.135-1.391-4.999-1.391
				c-8.812,0-19.281,10.393-19.727,10.836l-0.352,0.354l0.058,0.494c2.001,17.682,16.405,27.39,41.659,28.076
				c0.803,0.022,1.587,0.033,2.354,0.033c21.499,0,28.882-8.25,29.186-8.602l0.563-0.654l-0.544-0.673
				C522.405,272.027,502.512,257.104,496.017,256.719z M498.052,288.704c-16.654-0.455-36.97-5.304-39.6-25.742
				c1.877-1.784,10.781-9.884,17.903-9.884c1.466,0,2.773,0.359,3.888,1.068c4.261,2.715,9.524,4.273,15.653,4.637
				c5.396,0.318,23.715,13.592,31.442,22.666C525.14,283.367,516.828,289.201,498.052,288.704z"/>
			<path fill="#FFFFFF" d="M477.301,259.154c-4.761,0-9.248,1.291-13.333,3.838l-0.668,0.412l0.22,0.754
				c0.136,0.457,3.517,11.258,25.757,15.113c7.483,1.301,13.312,1.959,17.312,1.959c3.921,0,6.021-0.654,6.237-1.942l0.082-0.481
				l-0.322-0.371C511.894,277.648,495.521,259.154,477.301,259.154z M506.587,279.163c-3.882,0-9.589-0.649-16.959-1.927
				c-17.552-3.045-22.631-10.588-23.812-12.94c3.55-2.041,7.405-3.073,11.483-3.073c15.005,0,29.269,13.875,32.859,17.644
				C509.531,279.014,508.442,279.163,506.587,279.163z"/>
			<path fill="#FFFFFF" d="M526.081,188.61c-5.089,0-7.638,3.2-7.789,9.782c-0.123,5.425,0.391,10.935,4.527,16.057l-0.278,0.357
				c0.418,0.33,10.197,8.2,1.823,21.729l1.76,1.087c4.775-7.714,4.087-13.903,2.265-18.125c5.356,3.709,13.467,7.092,25.738,9.928
				c14.255,3.293,23.127,4.698,29.674,4.698l0,0c11.106,0,16.579-4.146,19.447-14.603c0.403-0.796,3.887-7.885,2.079-11.754
				c-0.554-1.187-1.561-1.979-2.904-2.294c-2.692-0.626-65.99-15.362-71.439-16.295C529.359,188.899,527.679,188.61,526.081,188.61z
				 M603.452,208.636c1.176,2.513-1.081,8.034-2.123,10.142c-2.71,9.804-7.293,13.279-17.528,13.279l0,0
				c-6.382,0-15.117-1.393-29.209-4.646c-34.715-8.026-34.436-20.13-34.231-28.968c0.157-6.823,2.845-7.762,5.723-7.762
				c1.423,0,3.011,0.271,4.62,0.549c5.324,0.907,70.593,16.104,71.252,16.258C602.689,207.658,603.168,208.022,603.452,208.636z"/>
		</g>
	</g>
</g>
<g id="Layer_2">
	<rect x="174.5" y="399.651" fill="none" width="451" height="36"/>
	<g enable-background="new    ">
		<path fill="#FFFFFF" d="M185.828,403.94c-0.096-0.288-0.192-0.64-0.192-0.928c0-1.376,1.152-2.4,2.528-2.4
			c1.152,0,2.08,0.736,2.4,1.761l4.448,13.727l4.479-13.599c0.384-1.152,1.248-1.952,2.496-1.952h0.384
			c1.248,0,2.112,0.768,2.496,1.952l4.48,13.599l4.448-13.727c0.32-0.96,1.152-1.761,2.368-1.761c1.344,0,2.432,1.024,2.432,2.368
			c0,0.288-0.096,0.672-0.192,0.96l-6.271,17.599c-0.448,1.248-1.376,2.016-2.56,2.016h-0.512c-1.184,0-2.08-0.735-2.528-2.016
			l-4.416-12.831l-4.416,12.831c-0.448,1.28-1.344,2.016-2.528,2.016h-0.512c-1.184,0-2.112-0.768-2.56-2.016L185.828,403.94z"/>
		<path fill="#FFFFFF" d="M221.54,402.085c0-1.344,1.088-2.433,2.432-2.433c1.344,0,2.432,1.089,2.432,2.433v6.399
			c1.12-1.44,2.56-2.752,5.023-2.752c3.68,0,5.824,2.432,5.824,6.367v8.863c0,1.345-1.088,2.433-2.432,2.433
			c-1.344,0-2.432-1.088-2.432-2.433v-7.327c0-2.304-1.088-3.487-2.944-3.487c-1.855,0-3.04,1.184-3.04,3.487v7.327
			c0,1.345-1.088,2.433-2.432,2.433c-1.344,0-2.432-1.088-2.432-2.433V402.085z"/>
		<path fill="#FFFFFF" d="M240.451,418.275v-0.063c0-3.744,2.848-5.472,6.912-5.472c1.728,0,2.976,0.288,4.191,0.703v-0.287
			c0-2.017-1.248-3.136-3.68-3.136c-1.344,0-2.432,0.191-3.359,0.479c-0.288,0.096-0.48,0.128-0.704,0.128
			c-1.12,0-2.016-0.864-2.016-1.983c0-0.864,0.544-1.601,1.312-1.889c1.536-0.575,3.2-0.896,5.472-0.896
			c2.656,0,4.576,0.704,5.792,1.92c1.28,1.28,1.856,3.168,1.856,5.472v7.808c0,1.312-1.056,2.336-2.368,2.336
			c-1.408,0-2.336-0.992-2.336-2.017v-0.031c-1.184,1.312-2.816,2.176-5.184,2.176C243.107,423.523,240.451,421.667,240.451,418.275
			z M251.619,417.155v-0.863c-0.832-0.385-1.92-0.641-3.104-0.641c-2.08,0-3.36,0.832-3.36,2.368v0.064
			c0,1.312,1.088,2.079,2.656,2.079C250.083,420.163,251.619,418.915,251.619,417.155z"/>
		<path fill="#FFFFFF" d="M261.059,418.34v-8.128h-0.16c-1.152,0-2.08-0.928-2.08-2.08c0-1.151,0.928-2.079,2.08-2.079h0.16v-2.145
			c0-1.344,1.088-2.432,2.432-2.432c1.344,0,2.432,1.088,2.432,2.432v2.145h2.144c1.152,0,2.08,0.928,2.08,2.079
			c0,1.152-0.928,2.08-2.08,2.08h-2.144v7.327c0,1.12,0.48,1.664,1.568,1.664c0.16,0,0.48-0.031,0.576-0.031
			c1.088,0,2.016,0.896,2.016,2.016c0,0.863-0.576,1.567-1.248,1.823c-0.896,0.353-1.728,0.48-2.784,0.48
			C263.075,423.491,261.059,422.308,261.059,418.34z"/>
		<path fill="#FFFFFF" d="M283.075,401.957c0-1.408,1.184-2.272,2.72-2.272c1.536,0,2.72,0.864,2.72,2.272v0.063
			c0,1.408-1.184,2.304-2.72,2.304c-1.536,0-2.72-0.896-2.72-2.304V401.957z M283.363,408.292c0-1.344,1.088-2.432,2.432-2.432
			c1.344,0,2.432,1.088,2.432,2.432v12.671c0,1.345-1.088,2.433-2.432,2.433c-1.344,0-2.432-1.088-2.432-2.433V408.292z"/>
		<path fill="#FFFFFF" d="M292.354,421.571c-0.512-0.32-0.928-0.896-0.928-1.664c0-1.088,0.832-1.92,1.92-1.92
			c0.352,0,0.704,0.097,0.96,0.256c1.632,1.024,3.264,1.536,4.64,1.536c1.408,0,2.048-0.512,2.048-1.28v-0.063
			c0-1.056-1.664-1.408-3.552-1.984c-2.4-0.703-5.12-1.823-5.12-5.151v-0.063c0-3.488,2.816-5.439,6.271-5.439
			c1.792,0,3.648,0.479,5.312,1.312c0.704,0.352,1.152,0.992,1.152,1.824c0,1.088-0.864,1.919-1.952,1.919
			c-0.352,0-0.576-0.063-0.896-0.224c-1.376-0.672-2.688-1.088-3.711-1.088c-1.184,0-1.792,0.512-1.792,1.184v0.064
			c0,0.96,1.632,1.408,3.488,2.048c2.4,0.8,5.184,1.952,5.184,5.088v0.063c0,3.808-2.848,5.536-6.56,5.536
			C296.706,423.523,294.434,422.915,292.354,421.571z"/>
		<path fill="#FFFFFF" d="M318.53,420.835c-0.544-0.384-0.928-1.088-0.928-1.855c0-1.28,1.024-2.271,2.304-2.271
			c0.64,0,1.088,0.224,1.408,0.447c1.696,1.248,3.552,2.017,5.728,2.017c2.016,0,3.232-0.801,3.232-2.112v-0.064
			c0-1.247-0.768-1.888-4.512-2.848c-4.512-1.151-7.423-2.399-7.423-6.848v-0.063c0-4.063,3.264-6.752,7.839-6.752
			c2.72,0,5.088,0.704,7.104,1.984c0.544,0.32,1.088,0.992,1.088,1.952c0,1.279-1.024,2.271-2.304,2.271
			c-0.48,0-0.864-0.128-1.248-0.352c-1.632-0.96-3.167-1.504-4.704-1.504c-1.888,0-2.88,0.863-2.88,1.951v0.064
			c0,1.472,0.96,1.951,4.832,2.943c4.543,1.185,7.103,2.816,7.103,6.72v0.064c0,4.447-3.392,6.943-8.223,6.943
			C324.001,423.523,321.026,422.627,318.53,420.835z"/>
		<path fill="#FFFFFF" d="M338.946,402.085c0-1.344,1.088-2.433,2.432-2.433c1.344,0,2.432,1.089,2.432,2.433v6.399
			c1.12-1.44,2.56-2.752,5.023-2.752c3.68,0,5.824,2.432,5.824,6.367v8.863c0,1.345-1.088,2.433-2.432,2.433
			c-1.344,0-2.432-1.088-2.432-2.433v-7.327c0-2.304-1.088-3.487-2.944-3.487c-1.855,0-3.04,1.184-3.04,3.487v7.327
			c0,1.345-1.088,2.433-2.432,2.433c-1.344,0-2.432-1.088-2.432-2.433V402.085z"/>
		<path fill="#FFFFFF" d="M358.049,414.724v-0.063c0-4.928,3.968-8.928,9.312-8.928c5.312,0,9.247,3.936,9.247,8.863v0.064
			c0,4.927-3.967,8.927-9.311,8.927C361.985,423.587,358.049,419.651,358.049,414.724z M371.809,414.724v-0.063
			c0-2.528-1.824-4.736-4.512-4.736c-2.784,0-4.448,2.145-4.448,4.672v0.064c0,2.527,1.824,4.735,4.512,4.735
			C370.145,419.396,371.809,417.252,371.809,414.724z"/>
		<path fill="#FFFFFF" d="M380.929,418.34v-8.128h-0.16c-1.152,0-2.08-0.928-2.08-2.08c0-1.151,0.928-2.079,2.08-2.079h0.16v-2.145
			c0-1.344,1.088-2.432,2.432-2.432c1.344,0,2.432,1.088,2.432,2.432v2.145h2.144c1.152,0,2.08,0.928,2.08,2.079
			c0,1.152-0.928,2.08-2.08,2.08h-2.144v7.327c0,1.12,0.48,1.664,1.568,1.664c0.16,0,0.48-0.031,0.576-0.031
			c1.088,0,2.016,0.896,2.016,2.016c0,0.863-0.576,1.567-1.248,1.823c-0.896,0.353-1.728,0.48-2.784,0.48
			C382.945,423.491,380.929,422.308,380.929,418.34z"/>
		<path fill="#FFFFFF" d="M393.921,403.076c0-1.375,1.088-2.464,2.464-2.464c1.375,0,2.463,1.089,2.463,2.464v15.647h9.12
			c1.248,0,2.239,0.992,2.239,2.239c0,1.248-0.991,2.24-2.239,2.24h-11.583c-1.376,0-2.464-1.088-2.464-2.464V403.076z"/>
		<path fill="#FFFFFF" d="M413.152,401.957c0-1.408,1.184-2.272,2.72-2.272s2.72,0.864,2.72,2.272v0.063
			c0,1.408-1.184,2.304-2.72,2.304s-2.72-0.896-2.72-2.304V401.957z M413.44,408.292c0-1.344,1.088-2.432,2.432-2.432
			c1.345,0,2.433,1.088,2.433,2.432v12.671c0,1.345-1.088,2.433-2.433,2.433c-1.344,0-2.432-1.088-2.432-2.433V408.292z"/>
		<path fill="#FFFFFF" d="M422.432,421.571c-0.512-0.32-0.928-0.896-0.928-1.664c0-1.088,0.832-1.92,1.92-1.92
			c0.352,0,0.704,0.097,0.96,0.256c1.632,1.024,3.264,1.536,4.64,1.536c1.408,0,2.048-0.512,2.048-1.28v-0.063
			c0-1.056-1.664-1.408-3.552-1.984c-2.4-0.703-5.119-1.823-5.119-5.151v-0.063c0-3.488,2.815-5.439,6.271-5.439
			c1.791,0,3.647,0.479,5.311,1.312c0.705,0.352,1.152,0.992,1.152,1.824c0,1.088-0.863,1.919-1.951,1.919
			c-0.353,0-0.576-0.063-0.896-0.224c-1.376-0.672-2.688-1.088-3.711-1.088c-1.185,0-1.793,0.512-1.793,1.184v0.064
			c0,0.96,1.633,1.408,3.488,2.048c2.4,0.8,5.184,1.952,5.184,5.088v0.063c0,3.808-2.848,5.536-6.56,5.536
			C426.783,423.523,424.512,422.915,422.432,421.571z"/>
		<path fill="#FFFFFF" d="M439.424,418.34v-8.128h-0.16c-1.151,0-2.08-0.928-2.08-2.08c0-1.151,0.929-2.079,2.08-2.079h0.16v-2.145
			c0-1.344,1.088-2.432,2.432-2.432c1.345,0,2.433,1.088,2.433,2.432v2.145h2.144c1.151,0,2.08,0.928,2.08,2.079
			c0,1.152-0.929,2.08-2.08,2.08h-2.144v7.327c0,1.12,0.479,1.664,1.567,1.664c0.16,0,0.48-0.031,0.576-0.031
			c1.088,0,2.016,0.896,2.016,2.016c0,0.863-0.576,1.567-1.248,1.823c-0.896,0.353-1.728,0.48-2.783,0.48
			C441.439,423.491,439.424,422.308,439.424,418.34z"/>
		<path fill="#FFFFFF" d="M451.775,408.964c1.632-0.384,2.528-1.504,2.464-3.039c-1.119-0.288-2.239-1.248-2.239-2.624v-0.064
			c0-1.504,1.056-2.624,2.655-2.624c1.792,0,2.848,1.376,2.848,3.584v0.128c0,2.336-0.703,4.064-1.888,5.248
			c-0.96,0.96-2.399,1.536-3.584,1.536c-0.863,0-1.216-0.513-1.216-1.088C450.815,409.444,451.231,409.092,451.775,408.964z"/>
		<path fill="#FFFFFF" d="M460.447,421.571c-0.512-0.32-0.928-0.896-0.928-1.664c0-1.088,0.832-1.92,1.92-1.92
			c0.353,0,0.704,0.097,0.96,0.256c1.632,1.024,3.264,1.536,4.64,1.536c1.408,0,2.048-0.512,2.048-1.28v-0.063
			c0-1.056-1.664-1.408-3.552-1.984c-2.399-0.703-5.119-1.823-5.119-5.151v-0.063c0-3.488,2.815-5.439,6.271-5.439
			c1.792,0,3.647,0.479,5.312,1.312c0.704,0.352,1.151,0.992,1.151,1.824c0,1.088-0.863,1.919-1.951,1.919
			c-0.353,0-0.576-0.063-0.896-0.224c-1.376-0.672-2.688-1.088-3.712-1.088c-1.184,0-1.792,0.512-1.792,1.184v0.064
			c0,0.96,1.633,1.408,3.488,2.048c2.399,0.8,5.184,1.952,5.184,5.088v0.063c0,3.808-2.848,5.536-6.56,5.536
			C464.799,423.523,462.527,422.915,460.447,421.571z"/>
		<path fill="#FFFFFF" d="M487.359,418.34v-8.128h-0.16c-1.151,0-2.079-0.928-2.079-2.08c0-1.151,0.928-2.079,2.079-2.079h0.16
			v-2.145c0-1.344,1.088-2.432,2.432-2.432c1.345,0,2.433,1.088,2.433,2.432v2.145h2.144c1.151,0,2.08,0.928,2.08,2.079
			c0,1.152-0.929,2.08-2.08,2.08h-2.144v7.327c0,1.12,0.479,1.664,1.567,1.664c0.16,0,0.48-0.031,0.576-0.031
			c1.088,0,2.016,0.896,2.016,2.016c0,0.863-0.576,1.567-1.248,1.823c-0.896,0.353-1.728,0.48-2.783,0.48
			C489.375,423.491,487.359,422.308,487.359,418.34z"/>
		<path fill="#FFFFFF" d="M498.815,418.275v-0.063c0-3.744,2.848-5.472,6.911-5.472c1.728,0,2.976,0.288,4.191,0.703v-0.287
			c0-2.017-1.248-3.136-3.68-3.136c-1.344,0-2.432,0.191-3.359,0.479c-0.288,0.096-0.48,0.128-0.704,0.128
			c-1.12,0-2.016-0.864-2.016-1.983c0-0.864,0.544-1.601,1.312-1.889c1.536-0.575,3.2-0.896,5.472-0.896
			c2.656,0,4.576,0.704,5.792,1.92c1.279,1.28,1.855,3.168,1.855,5.472v7.808c0,1.312-1.056,2.336-2.368,2.336
			c-1.407,0-2.336-0.992-2.336-2.017v-0.031c-1.184,1.312-2.815,2.176-5.184,2.176C501.471,423.523,498.815,421.667,498.815,418.275
			z M509.982,417.155v-0.863c-0.832-0.385-1.92-0.641-3.104-0.641c-2.079,0-3.359,0.832-3.359,2.368v0.064
			c0,1.312,1.088,2.079,2.656,2.079C508.446,420.163,509.982,418.915,509.982,417.155z"/>
		<path fill="#FFFFFF" d="M520.19,427.203c-0.832-0.32-1.376-0.992-1.376-1.888c0-1.089,0.896-1.984,1.983-1.984
			c0.32,0,0.576,0.064,0.8,0.16c1.408,0.64,2.912,1.023,4.736,1.023c3.327,0,4.896-1.6,4.896-4.671v-0.832
			c-1.44,1.728-3.008,2.783-5.6,2.783c-4,0-7.615-2.911-7.615-7.999v-0.064c0-5.119,3.68-7.999,7.615-7.999
			c2.655,0,4.224,1.12,5.535,2.56v-0.032c0-1.312,1.088-2.399,2.433-2.399c1.344,0,2.432,1.088,2.432,2.432v11.039
			c0,3.072-0.736,5.312-2.176,6.752c-1.601,1.6-4.064,2.304-7.392,2.304C524.189,428.387,522.206,428.003,520.19,427.203z
			 M531.229,413.796v-0.064c0-2.336-1.824-3.968-4.191-3.968c-2.368,0-4.16,1.632-4.16,3.968v0.064c0,2.368,1.792,3.968,4.16,3.968
			C529.405,417.764,531.229,416.132,531.229,413.796z"/>
		<path fill="#FFFFFF" d="M540.605,402.085c0-1.344,1.088-2.433,2.433-2.433c1.344,0,2.432,1.089,2.432,2.433v18.878
			c0,1.345-1.088,2.433-2.432,2.433c-1.345,0-2.433-1.088-2.433-2.433V402.085z"/>
		<path fill="#FFFFFF" d="M549.982,401.957c0-1.408,1.184-2.272,2.72-2.272c1.535,0,2.72,0.864,2.72,2.272v0.063
			c0,1.408-1.185,2.304-2.72,2.304c-1.536,0-2.72-0.896-2.72-2.304V401.957z M550.27,408.292c0-1.344,1.088-2.432,2.433-2.432
			c1.344,0,2.432,1.088,2.432,2.432v12.671c0,1.345-1.088,2.433-2.432,2.433c-1.345,0-2.433-1.088-2.433-2.433V408.292z"/>
		<path fill="#FFFFFF" d="M559.71,408.292c0-1.344,1.088-2.432,2.432-2.432s2.432,1.088,2.432,2.432v0.192
			c1.12-1.44,2.561-2.752,5.024-2.752c3.68,0,5.823,2.432,5.823,6.367v8.863c0,1.345-1.088,2.433-2.432,2.433
			s-2.432-1.088-2.432-2.433v-7.327c0-2.304-1.088-3.487-2.944-3.487c-1.855,0-3.04,1.184-3.04,3.487v7.327
			c0,1.345-1.088,2.433-2.432,2.433s-2.432-1.088-2.432-2.433V408.292z"/>
		<path fill="#FFFFFF" d="M587.773,423.587c-5.152,0-8.96-3.615-8.96-8.863v-0.063c0-4.896,3.488-8.928,8.479-8.928
			c5.728,0,8.256,4.704,8.256,8.256c0,1.407-0.992,2.335-2.272,2.335h-9.631c0.479,2.208,2.016,3.36,4.191,3.36
			c1.344,0,2.464-0.416,3.456-1.152c0.352-0.256,0.672-0.384,1.184-0.384c1.088,0,1.888,0.832,1.888,1.92
			c0,0.64-0.288,1.12-0.64,1.439C592.221,422.787,590.269,423.587,587.773,423.587z M590.909,413.284
			c-0.288-2.176-1.568-3.648-3.616-3.648c-2.016,0-3.328,1.44-3.712,3.648H590.909z"/>
		<path fill="#FFFFFF" d="M603.646,415.779c-0.929,0-1.601-0.703-1.729-1.567l-0.319-2.176c-0.16-1.056,0.447-1.792,1.472-1.92
			c2.783-0.353,4.063-1.216,4.063-2.784v-0.063c0-1.44-1.088-2.272-2.943-2.272c-1.376,0-2.561,0.416-3.712,1.28
			c-0.384,0.288-0.896,0.512-1.44,0.512c-1.216,0-2.239-1.023-2.239-2.239c0-0.608,0.256-1.248,0.832-1.729
			c1.695-1.407,3.84-2.304,6.655-2.304c4.607,0,7.743,2.368,7.743,6.624v0.063c0,4.063-2.815,5.728-6.304,6.432l-0.096,0.576
			c-0.128,0.832-0.8,1.567-1.728,1.567H603.646z M603.646,417.892c1.6,0,2.783,1.184,2.783,2.72v0.064
			c0,1.535-1.184,2.72-2.783,2.72c-1.601,0-2.784-1.185-2.784-2.72v-0.064C600.861,419.075,602.045,417.892,603.646,417.892z"/>
	</g>
</g>
</svg>
