<?xml version="1.0" encoding="utf-8"?>
<!-- Generator: Adobe Illustrator 16.2.1, SVG Export Plug-In . SVG Version: 6.00 Build 0)  -->
<!DOCTYPE svg PUBLIC "-//W3C//DTD SVG 1.0//EN" "http://www.w3.org/TR/2001/REC-SVG-20010904/DTD/svg10.dtd">
<svg version="1.0" id="Layer_1" xmlns="http://www.w3.org/2000/svg" xmlns:xlink="http://www.w3.org/1999/xlink" x="0px" y="0px"
	 width="800px" height="450px" viewBox="0 0 800 450" enable-background="new 0 0 800 450" xml:space="preserve">
<g id="Layer_3">
	<g>
		<rect x="532.681" y="350.46" fill="#FFFFFF" width="2.067" height="10.338"/>
		<rect x="532.681" y="267.764" fill="#FFFFFF" width="2.067" height="10.338"/>
		<rect x="532.681" y="247.09" fill="#FFFFFF" width="2.067" height="10.337"/>
		<rect x="532.681" y="371.134" fill="#FFFFFF" width="2.067" height="10.337"/>
		<path fill="#FFFFFF" d="M532.681,435.824v7.67h2.067v-7.938C534.087,435.773,533.38,435.861,532.681,435.824z"/>
		<polygon fill="#FFFFFF" points="532.681,288.438 534.748,288.438 534.748,298.182 538.834,298.182 538.834,300.249 
			528.571,300.249 528.571,298.182 532.681,298.182 		"/>
		<rect x="532.681" y="329.785" fill="#FFFFFF" width="2.067" height="10.338"/>
		<rect x="532.681" y="185.067" fill="#FFFFFF" width="2.067" height="10.337"/>
		<rect x="532.681" y="205.741" fill="#FFFFFF" width="2.067" height="10.337"/>
		<rect x="532.681" y="226.416" fill="#FFFFFF" width="2.067" height="10.336"/>
		<rect x="532.681" y="164.393" fill="#FFFFFF" width="2.067" height="10.338"/>
		<rect x="532.681" y="309.111" fill="#FFFFFF" width="2.067" height="10.337"/>
		<rect x="532.681" y="102.371" fill="#FFFFFF" width="2.067" height="10.337"/>
		<rect x="532.681" y="123.045" fill="#FFFFFF" width="2.067" height="10.336"/>
		<rect x="532.681" y="61.022" fill="#FFFFFF" width="2.067" height="10.337"/>
		<rect x="532.681" y="81.697" fill="#FFFFFF" width="2.067" height="10.337"/>
		<rect x="532.681" y="19.674" fill="#FFFFFF" width="2.067" height="10.337"/>
		<rect x="532.681" y="40.349" fill="#FFFFFF" width="2.067" height="10.336"/>
		<rect x="532.681" y="-1" fill="#FFFFFF" width="2.067" height="10.337"/>
		<rect x="795.403" y="298.182" fill="#FFFFFF" width="5.169" height="2.067"/>
		<rect x="754.354" y="298.182" fill="#FFFFFF" width="10.264" height="2.067"/>
		<rect x="672.25" y="298.182" fill="#FFFFFF" width="10.264" height="2.067"/>
		<rect x="774.879" y="298.182" fill="#FFFFFF" width="10.262" height="2.067"/>
		<rect x="631.199" y="298.182" fill="#FFFFFF" width="10.262" height="2.067"/>
		<rect x="610.674" y="298.182" fill="#FFFFFF" width="10.262" height="2.067"/>
		<rect x="590.148" y="298.182" fill="#FFFFFF" width="10.262" height="2.067"/>
		<rect x="651.725" y="298.182" fill="#FFFFFF" width="10.266" height="2.067"/>
		<rect x="713.301" y="298.182" fill="#FFFFFF" width="10.265" height="2.067"/>
		<rect x="733.828" y="298.182" fill="#FFFFFF" width="10.262" height="2.067"/>
		<rect x="569.622" y="298.182" fill="#FFFFFF" width="10.263" height="2.067"/>
		<rect x="692.775" y="298.182" fill="#FFFFFF" width="10.264" height="2.067"/>
		<rect x="549.096" y="298.182" fill="#FFFFFF" width="10.266" height="2.067"/>
		<rect x="97.533" y="298.182" fill="#FFFFFF" width="10.263" height="2.067"/>
		<rect x="138.586" y="298.182" fill="#FFFFFF" width="10.262" height="2.067"/>
		<rect x="179.635" y="298.182" fill="#FFFFFF" width="10.265" height="2.067"/>
		<rect x="159.11" y="298.182" fill="#FFFFFF" width="10.264" height="2.067"/>
		<rect x="200.161" y="298.182" fill="#FFFFFF" width="10.261" height="2.067"/>
		<rect x="220.688" y="298.182" fill="#FFFFFF" width="10.26" height="2.067"/>
		<rect x="77.007" y="298.182" fill="#FFFFFF" width="10.264" height="2.067"/>
		<rect x="35.957" y="298.182" fill="#FFFFFF" width="10.263" height="2.067"/>
		<rect x="15.431" y="298.182" fill="#FFFFFF" width="10.263" height="2.067"/>
		<rect x="56.481" y="298.182" fill="#FFFFFF" width="10.263" height="2.067"/>
		<rect x="118.061" y="298.182" fill="#FFFFFF" width="10.261" height="2.067"/>
		<rect x="241.213" y="298.182" fill="#FFFFFF" width="10.262" height="2.067"/>
		<rect x="384.893" y="298.182" fill="#FFFFFF" width="10.262" height="2.067"/>
		<rect x="405.418" y="298.182" fill="#FFFFFF" width="10.263" height="2.067"/>
		<rect x="425.943" y="298.182" fill="#FFFFFF" width="10.263" height="2.067"/>
		<rect x="446.469" y="298.182" fill="#FFFFFF" width="10.265" height="2.067"/>
		<rect x="487.52" y="298.182" fill="#FFFFFF" width="10.265" height="2.067"/>
		<rect x="466.994" y="298.182" fill="#FFFFFF" width="10.263" height="2.067"/>
		<rect x="302.792" y="298.182" fill="#FFFFFF" width="10.258" height="2.067"/>
		<rect x="323.316" y="298.182" fill="#FFFFFF" width="10.261" height="2.067"/>
		<rect x="282.265" y="298.182" fill="#FFFFFF" width="10.261" height="2.067"/>
		<rect x="508.047" y="298.182" fill="#FFFFFF" width="10.262" height="2.067"/>
		<rect x="364.367" y="298.182" fill="#FFFFFF" width="10.261" height="2.067"/>
		<rect x="343.839" y="298.182" fill="#FFFFFF" width="10.265" height="2.067"/>
		<rect y="298.182" fill="#FFFFFF" width="5.168" height="2.067"/>
		<path fill="#FFFFFF" d="M263.758,434.555v14.19h6.201v-14.229C267.885,434.539,265.819,434.562,263.758,434.555z"/>
		<path fill="#FFFFFF" d="M534.748,146.008v-2.289h-2.067v2.289H269.959V-0.135h-6.201v146.143H0v6.202h263.758v145.972h-2.021
			v2.067h2.021v93.325c1.849-1.4,4.475-1.678,6.201,0.162v-93.487h2.044v-2.067h-2.044V152.21h262.722v1.846h2.067v-1.846h265.824
			v-6.202H534.748z"/>
		<path fill="#FFFFFF" d="M263.758,417.845c1.522-3.647,1.1-9.095,0-13.384V417.845z"/>
	</g>
	<g>
		<path fill="#FFFFFF" d="M238.381,169.6c0,0,6.684,4.392,1.512,12c-5.178,7.61-14.525,5.862-19.033-4.601
			C220.859,176.999,233.31,169.077,238.381,169.6z"/>
		<path fill="#FFFFFF" d="M328.349,148.958c0,0,1.425,11.605-7.882,10.721c-9.303-0.886-9.346-8.159-9.346-8.159
			S314.867,145.917,328.349,148.958z"/>
		<path fill="#FFFFFF" d="M291.522,134.397c0,0,0.628-9.82,15.993-12.405c15.364-2.583,25.955,2.292,31.646,8.27
			c5.688,5.978-3.617,1.55-7.236,0.259c-3.616-1.292-20.128-1.292-25.182,3.876C301.688,139.565,295.573,135.949,291.522,134.397z"
			/>
		<path fill="#FFFFFF" d="M238.381,143.7c0,0,5.146,0.776,3.472,6.461c-1.67,5.685-12.109,2.742-20.993,6.202
			c-13.496,5.255-27.191,21.566-27.191,21.566s-3.104-1.409,0-7.095C196.769,165.15,218.216,137.079,238.381,143.7z"/>
		<path fill="#FFFFFF" d="M302.548,227.689c0,0-7.061-4.396-13.781,0c-6.72,4.395-3.876,4.274-3.876,4.274
			S301.603,231.564,302.548,227.689z"/>
		<g>
			<path fill="#FFFFFF" d="M197.479,214.853c-13.77,4.373-19.218-2.825-19.218-2.825l-11.254-13.35l-2.628,5.284l12.777,14.191
				c4.105,7.414,19.991,6.034,23.199,4.581"/>
			<path fill="#FFFFFF" d="M280.492,197.631c0,0,22.021-3.212,32.223-8.898l1.352,4.891c0,0-19.769,8.147-32.534,7.775
				L280.492,197.631z"/>
			<polyline fill="#FFFFFF" points="368.442,164.719 345.099,137.079 346.239,144.735 371.003,174.022 			"/>
		</g>
		<g>
			<path fill="#FFFFFF" d="M424.188,435.393c-2.764,6.123-6.481,10.308-11.111,12.41l0.854,1.885
				c5.179-2.354,9.292-6.965,12.279-13.718C425.483,435.926,424.802,435.723,424.188,435.393z"/>
			<path fill="#FFFFFF" d="M518.484,435.884c-0.672,0.263-1.376,0.371-2.074,0.343c1.964,5.479,3.867,10.588,5.71,15.032l1.911-0.79
				C522.242,446.154,520.393,441.202,518.484,435.884z"/>
			<path fill="#FFFFFF" d="M502.128,390.521c-6.84-17.08-14.192-31.221-22.037-34.816c-15.626-7.161-63.938-25.698-68.816-27.566
				c-4.153-10.42-3.876-19.427,4.851-37.961c8.211-17.441,5.5-40.479,4.608-48.051c-4.485-38.099-16.117-59.051-35.39-93.764
				c-5.064-9.128-10.812-19.473-17.1-31.333c-3.692-6.962-6.894-13.18-9.772-18.775C337.7,57.914,333.379,49.519,281.6,26.98
				c-58.309-25.383-89.11-13.28-90.396-12.753l0.29,0.703c-28.836-4.735-63.258,14.68-91.687,52.345
				C71.551,104.714,63.91,210.1,66.524,238.208c2.608,28.041,4.249,60.294-3.359,86.974c-0.275,0.396-0.952,1.44-1.692,3.07
				c-1.654,1.512-42.003,38.266-60.015,41.025l0.313,2.046c16.206-2.484,48.253-30.073,58.2-38.938
				c-2.572,9.162-2.792,26.3,17.854,48.353C93.906,397.914,94.732,412.8,95.4,424.76c0.607,10.989,1.094,19.671,13.086,24.935
				l0.83-1.896c-10.829-4.749-11.26-12.47-11.854-23.153c-0.682-12.293-1.535-27.595-18.129-45.318
				c-29.979-32.02-14.565-52.852-14.408-53.059l0.178-0.349c7.756-27.038,6.111-59.608,3.48-87.899
				c-2.597-27.911,4.926-132.471,32.871-169.5c30.263-40.092,67.254-59.226,96.522-49.943l5.236,1.651
				c17.646,5.546,29.303,9.21,32.871,16.498c2.031,4.145,1.602,9.775-1.349,17.72c-5.289,14.234-7.258,15.364-12.523,18.389
				c-3.627,2.083-8.596,4.937-16.862,12.927c-17.924,17.328-18.452,19.794-23.492,43.369c-0.832,3.908-1.794,8.405-2.982,13.656
				c-1.749,7.727-3.125,14.997-4.454,22.031c-4.857,25.683-8.384,44.266-23.645,49.482c-5.384-1.562-12.644-1.985-18.794,3.578
				c-10.055,9.099,2.826,34.747,10.522,50.07c1.047,2.082,1.968,3.911,2.678,5.407c5.803,12.261,12.656,17.146,20.389,14.49
				c0.301-0.139,4.076-2.094,4.841-7.375c0.246,0.461,0.492,0.918,0.708,1.323c1.335,2.499,1.592,2.974,1.728,3.147
				c1.294,1.713,2.522,3.295,3.717,4.785c-1.731,2.391-6.058,11.039,0.335,32.754c2.022,6.865,3.5,13.396,4.931,19.721
				c3.296,14.562,6.451,28.439,15.659,43.02h-0.004c0.006,0.008,0.012,0.014,0.016,0.021c1.386,2.196,2.906,4.409,4.591,6.643
				c1.184-0.088,2.368-0.178,3.552-0.266c-2.148-2.408-4.301-4.933-6.458-7.586c-8.984-14.274-12.093-27.938-15.339-42.283
				c-1.438-6.354-2.925-12.921-4.963-19.851c-5.76-19.571-2.491-27.914-0.948-30.477c13.611,16.561,22.402,19.729,55.299,31.559
				c6.892,2.478,14.857,5.345,24.163,8.791c21.93,8.127,37.494,11.332,49.373,11.332c7.997,0,14.32-1.459,19.802-3.832
				c-2.132,6.276-8.045,23.925-11.923,37.771c-1.203,4.292-1.601,9.216-1.537,14.21c0.717,0.021,1.431,0.177,2.089,0.479
				c-0.104-5.006,0.26-9.924,1.438-14.135c4.396-15.688,11.411-36.281,12.532-39.546c6.195-3.151,11.393-7.479,16.946-12.108
				c1.236-1.033,2.486-2.076,3.775-3.127c20.396-16.642,22.723-44.556,25.186-74.107c1.659-19.898-3.383-42.292-8.956-58.992
				c1.253-1.592,2.41-3.434,3.502-5.626c3.26-6.56,3.232-14.24-0.071-19.567c-2.856-4.615-7.635-6.162-12.254-3.856
				c-0.974,0.486-1.988,0.92-3.003,1.361c-2.43-5.824-4.348-12.257-6.595-19.853c-1.491-5.029-3.181-10.728-5.234-16.891
				c-6.188-18.572-41.575-62.056-43.08-63.9l-0.181-0.176c-0.497-0.363-12.315-8.867-32.756-0.12
				c-15.043,6.438-17.496,5.568-24.79,2.977c-1.985-0.707-4.449-1.566-7.56-2.426c0.789-1.825,1.633-3.941,2.573-6.475
				c3.203-8.626,3.594-14.596,1.268-19.348c-3.954-8.083-15.309-11.65-34.108-17.56l-5.231-1.65
				c-1.454-0.46-2.933-0.834-4.422-1.161c7.982-2.223,37.74-7.832,86.592,13.43c51.105,22.246,54.886,29.588,75.862,70.329
				c2.882,5.601,6.088,11.825,9.783,18.796c6.296,11.878,12.044,22.233,17.116,31.368c19.801,35.664,30.707,55.308,35.143,93.004
				c0.875,7.423,3.534,30.018-4.426,46.925c-12.459,26.464-8.064,34.716,1.562,52.793l0.225,0.421
				c6.579,12.359,11.628,31.273,13.157,49.947c0.645-0.218,1.336-0.311,2.021-0.285c-1.567-18.949-6.688-38.105-13.354-50.633
				l-0.225-0.419c-2.043-3.837-3.807-7.179-5.236-10.334c10.292,3.952,52.471,20.217,66.828,26.799
				c7.311,3.353,14.389,17.134,21.058,33.866C500.841,391.02,501.467,390.693,502.128,390.521z M358.223,162.515
				c1.146-0.572,2.283-0.861,3.381-0.861c2.413,0,4.613,1.406,6.193,3.958c2.402,3.879,3.326,10.812-0.023,17.558
				c-0.777,1.56-1.598,2.916-2.467,4.144c-2.853-8.193-5.762-14.819-7.924-18.782c-0.816-1.499-1.555-3.039-2.261-4.61
				C356.164,163.467,357.214,163.018,358.223,162.515z M355.567,169.521c2.234,4.102,5.29,11.086,8.229,19.722
				c-4.722,5.416-11,7.496-20.568,10.642c-2.306,0.759-4.796,1.576-7.489,2.515c-7.633,2.661-13.74,1.888-17.655-2.211
				c-3.315-3.468-4.322-8.52-4.159-12.091c0.358-7.978,16.454-15.296,16.614-15.369c2.602-1.262,6.212-2.402,10.391-3.725
				c3.894-1.232,8.148-2.594,12.292-4.268C353.95,166.363,354.718,167.963,355.567,169.521z M240.97,66.014
				c7.645,2.717,10.505,3.732,26.295-3.025c18.341-7.854,29.475-0.949,30.612-0.188c2.043,2.515,36.707,45.369,42.628,63.135
				c2.043,6.13,3.729,11.812,5.213,16.825c2.271,7.664,4.205,14.157,6.676,20.078c-4.058,1.635-8.252,2.978-12.091,4.193
				c-4.255,1.347-7.929,2.51-10.635,3.822c-0.686,0.308-17.392,7.915-17.812,17.15c-0.104,2.267,0.243,5.069,1.229,7.792
				c-10.275-11.261-20.538-31.344-20.641-31.547l-1.846,0.937c0.108,0.213,10.874,21.282,21.535,32.631
				c6.401,6.815,9.404,13.274,8.687,18.677c-0.566,4.247-3.417,7.977-8.477,11.091l1.083,1.76c5.61-3.452,8.789-7.686,9.439-12.578
				c0.146-1.09,0.124-2.21,0.02-3.346c0.788,0.683,1.622,1.66,2.015,2.983c0.612,2.096-0.008,4.56-1.85,7.331l1.722,1.143
				c2.202-3.312,2.908-6.366,2.104-9.081c-0.916-3.071-3.471-4.69-4.497-5.236c-0.562-2.156-1.537-4.381-2.935-6.671
				c2.313,1.396,5.048,2.14,8.089,2.14c2.703,0,5.688-0.563,8.879-1.676c2.688-0.935,5.164-1.749,7.458-2.504
				c9.433-3.101,15.795-5.211,20.686-10.331c5.345,16.332,10.059,37.856,8.462,57.018c-2.428,29.104-4.717,56.596-24.436,72.678
				c-1.291,1.057-2.553,2.105-3.791,3.143c-17.443,14.545-31.221,26.037-86.678,5.479c-9.311-3.454-17.283-6.318-24.178-8.798
				c-37.142-13.354-42.851-15.408-59.443-37.339c-0.109-0.174-0.875-1.608-1.553-2.875c-2.979-5.592-2.979-5.575-3.883-5.292
				l-0.819,0.264l0.11,0.877c0.914,6.871-3.396,9.183-3.58,9.278c-6.525,2.218-12.364-2.169-17.72-13.477
				c-0.715-1.512-1.641-3.354-2.694-5.451c-6.945-13.827-19.874-39.567-10.982-47.609c10.115-9.158,23.488-0.292,24.051,0.089
				l1.16-1.712c-0.052-0.035-1.931-1.282-4.834-2.457c14.444-6.565,17.959-25.045,22.702-50.13
				c1.326-7.014,2.698-14.269,4.438-21.958c1.193-5.261,2.155-9.764,2.993-13.68c4.919-23.019,5.435-25.425,22.907-42.316
				c8.078-7.811,12.92-10.592,16.453-12.621c4.281-2.46,6.638-3.837,10.012-11.083C236.421,64.407,238.845,65.256,240.97,66.014z"/>
			<path fill="#FFFFFF" d="M308.922,434.889c-4.581,7.996-5.292,13.403-5.332,13.731l2.051,0.248
				c0.013-0.077,0.774-5.676,5.642-13.87C310.496,434.974,309.709,434.938,308.922,434.889z"/>
			<path fill="#FFFFFF" d="M220.817,435.453c-0.079,0.682-0.178,1.351-0.319,1.995c-1.188,5.395-4.578,9.603-10.084,12.502
				l0.962,1.829c6.07-3.195,9.816-7.869,11.142-13.892c0.208-0.943,0.338-1.909,0.427-2.889
				C222.257,435.288,221.528,435.446,220.817,435.453z"/>
			<path fill="#FFFFFF" d="M252.819,174.682l-1.923,0.757c-0.109-0.279-2.94-6.808-16.022-4.193
				c-14.85,2.969-23.681,18.293-23.77,18.447l-1.799-1.018c0.377-0.664,9.371-16.299,25.16-19.457
				C249.346,166.25,252.686,174.338,252.819,174.682z"/>
			<path fill="#FFFFFF" d="M341.382,148.103l-0.479,2.012c-29.376-7.026-37.077,11.114-37.394,11.89l-1.919-0.77
				C301.673,161.03,310.209,140.646,341.382,148.103z"/>
			<path fill="#FFFFFF" d="M271.018,280.876l-0.544,0.673l0.565,0.654c0.304,0.352,7.685,8.602,29.184,8.602
				c0.767,0,1.551-0.011,2.354-0.033c25.254-0.688,39.658-10.396,41.659-28.076l0.058-0.494l-0.352-0.354
				c-0.443-0.441-10.912-10.836-19.727-10.836c-1.866,0-3.55,0.467-4.999,1.391c-3.964,2.525-8.894,3.979-14.662,4.316
				C298.061,257.104,278.167,272.027,271.018,280.876z M273.231,281.449c7.729-9.074,26.046-22.348,31.444-22.666
				c6.127-0.361,11.395-1.922,15.653-4.637c1.112-0.709,2.422-1.068,3.888-1.068c7.122,0,16.026,8.1,17.903,9.884
				c-2.63,20.438-22.943,25.287-39.6,25.742C283.744,289.201,275.433,283.367,273.231,281.449z"/>
			<path fill="#FFFFFF" d="M287.988,278.436l-0.322,0.371l0.082,0.481c0.219,1.288,2.316,1.942,6.237,1.942
				c4,0,9.827-0.658,17.312-1.959c22.24-3.855,25.621-14.656,25.755-15.113l0.222-0.754l-0.668-0.412
				c-4.085-2.547-8.572-3.838-13.333-3.838C305.051,259.154,288.679,277.648,287.988,278.436z M290.412,278.864
				c3.593-3.769,17.854-17.644,32.859-17.644c4.076,0,7.936,1.032,11.483,3.073c-1.182,2.354-6.261,9.896-23.812,12.938
				c-7.37,1.277-13.077,1.929-16.959,1.929C292.13,279.163,291.041,279.014,290.412,278.864z"/>
			<path fill="#FFFFFF" d="M269.591,189.175c-5.451,0.933-68.748,15.669-71.441,16.295c-1.346,0.315-2.351,1.107-2.904,2.294
				c-1.808,3.87,1.676,10.958,2.079,11.754c2.868,10.457,8.341,14.603,19.447,14.603l0,0c6.547,0,15.419-1.405,29.674-4.698
				c12.272-2.836,20.382-6.219,25.738-9.928c-1.822,4.222-2.511,10.411,2.265,18.125l1.76-1.087
				c-8.374-13.529,1.405-21.398,1.823-21.729l-0.278-0.357c4.137-5.122,4.65-10.631,4.527-16.057
				c-0.151-6.582-2.7-9.782-7.789-9.782C272.894,188.61,271.213,188.899,269.591,189.175z M198.619,207.485
				c0.659-0.154,65.928-15.351,71.252-16.258c1.609-0.277,3.197-0.549,4.62-0.549c2.878,0,5.563,0.939,5.723,7.762
				c0.202,8.838,0.481,20.942-34.233,28.968c-14.092,3.255-22.827,4.646-29.209,4.646l0,0c-10.235,0-14.818-3.476-17.528-13.28
				c-1.042-2.108-3.299-7.628-2.123-10.142C197.404,208.022,197.883,207.658,198.619,207.485z"/>
		</g>
	</g>
</g>
<g id="QUESTION">
	<rect x="174.5" y="399.651" fill="none" width="451" height="36"/>
	<g enable-background="new    ">
		<path fill="#FFFFFF" d="M185.828,403.94c-0.096-0.288-0.192-0.64-0.192-0.928c0-1.376,1.152-2.4,2.528-2.4
			c1.152,0,2.08,0.736,2.4,1.761l4.448,13.727l4.479-13.599c0.384-1.152,1.248-1.952,2.496-1.952h0.384
			c1.248,0,2.112,0.768,2.496,1.952l4.48,13.599l4.448-13.727c0.32-0.96,1.152-1.761,2.368-1.761c1.344,0,2.432,1.024,2.432,2.368
			c0,0.288-0.096,0.672-0.192,0.96l-6.271,17.599c-0.448,1.248-1.376,2.016-2.56,2.016h-0.512c-1.184,0-2.08-0.735-2.528-2.016
			l-4.416-12.831l-4.416,12.831c-0.448,1.28-1.344,2.016-2.528,2.016h-0.512c-1.184,0-2.112-0.768-2.56-2.016L185.828,403.94z"/>
		<path fill="#FFFFFF" d="M221.54,402.085c0-1.344,1.088-2.433,2.432-2.433c1.344,0,2.432,1.089,2.432,2.433v6.399
			c1.12-1.44,2.56-2.752,5.023-2.752c3.68,0,5.824,2.432,5.824,6.367v8.863c0,1.345-1.088,2.433-2.432,2.433
			c-1.344,0-2.432-1.088-2.432-2.433v-7.327c0-2.304-1.088-3.487-2.944-3.487c-1.855,0-3.04,1.184-3.04,3.487v7.327
			c0,1.345-1.088,2.433-2.432,2.433c-1.344,0-2.432-1.088-2.432-2.433V402.085z"/>
		<path fill="#FFFFFF" d="M240.451,418.275v-0.063c0-3.744,2.848-5.472,6.912-5.472c1.728,0,2.976,0.288,4.191,0.703v-0.287
			c0-2.017-1.248-3.136-3.68-3.136c-1.344,0-2.432,0.191-3.359,0.479c-0.288,0.096-0.48,0.128-0.704,0.128
			c-1.12,0-2.016-0.864-2.016-1.983c0-0.864,0.544-1.601,1.312-1.889c1.536-0.575,3.2-0.896,5.472-0.896
			c2.656,0,4.576,0.704,5.792,1.92c1.28,1.28,1.856,3.168,1.856,5.472v7.808c0,1.312-1.056,2.336-2.368,2.336
			c-1.408,0-2.336-0.992-2.336-2.017v-0.031c-1.184,1.312-2.816,2.176-5.184,2.176C243.107,423.523,240.451,421.667,240.451,418.275
			z M251.619,417.155v-0.863c-0.832-0.385-1.92-0.641-3.104-0.641c-2.08,0-3.36,0.832-3.36,2.368v0.064
			c0,1.312,1.088,2.079,2.656,2.079C250.083,420.163,251.619,418.915,251.619,417.155z"/>
		<path fill="#FFFFFF" d="M261.059,418.34v-8.128h-0.16c-1.152,0-2.08-0.928-2.08-2.08c0-1.151,0.928-2.079,2.08-2.079h0.16v-2.145
			c0-1.344,1.088-2.432,2.432-2.432c1.344,0,2.432,1.088,2.432,2.432v2.145h2.144c1.152,0,2.08,0.928,2.08,2.079
			c0,1.152-0.928,2.08-2.08,2.08h-2.144v7.327c0,1.12,0.48,1.664,1.568,1.664c0.16,0,0.48-0.031,0.576-0.031
			c1.088,0,2.016,0.896,2.016,2.016c0,0.863-0.576,1.567-1.248,1.823c-0.896,0.353-1.728,0.48-2.784,0.48
			C263.075,423.491,261.059,422.308,261.059,418.34z"/>
		<path fill="#FFFFFF" d="M283.075,401.957c0-1.408,1.184-2.272,2.72-2.272c1.536,0,2.72,0.864,2.72,2.272v0.063
			c0,1.408-1.184,2.304-2.72,2.304c-1.536,0-2.72-0.896-2.72-2.304V401.957z M283.363,408.292c0-1.344,1.088-2.432,2.432-2.432
			c1.344,0,2.432,1.088,2.432,2.432v12.671c0,1.345-1.088,2.433-2.432,2.433c-1.344,0-2.432-1.088-2.432-2.433V408.292z"/>
		<path fill="#FFFFFF" d="M292.354,421.571c-0.512-0.32-0.928-0.896-0.928-1.664c0-1.088,0.832-1.92,1.92-1.92
			c0.352,0,0.704,0.097,0.96,0.256c1.632,1.024,3.264,1.536,4.64,1.536c1.408,0,2.048-0.512,2.048-1.28v-0.063
			c0-1.056-1.664-1.408-3.552-1.984c-2.4-0.703-5.12-1.823-5.12-5.151v-0.063c0-3.488,2.816-5.439,6.271-5.439
			c1.792,0,3.648,0.479,5.312,1.312c0.704,0.352,1.152,0.992,1.152,1.824c0,1.088-0.864,1.919-1.952,1.919
			c-0.352,0-0.576-0.063-0.896-0.224c-1.376-0.672-2.688-1.088-3.711-1.088c-1.184,0-1.792,0.512-1.792,1.184v0.064
			c0,0.96,1.632,1.408,3.488,2.048c2.4,0.8,5.184,1.952,5.184,5.088v0.063c0,3.808-2.848,5.536-6.56,5.536
			C296.706,423.523,294.434,422.915,292.354,421.571z"/>
		<path fill="#FFFFFF" d="M318.53,420.835c-0.544-0.384-0.928-1.088-0.928-1.855c0-1.28,1.024-2.271,2.304-2.271
			c0.64,0,1.088,0.224,1.408,0.447c1.696,1.248,3.552,2.017,5.728,2.017c2.016,0,3.232-0.801,3.232-2.112v-0.064
			c0-1.247-0.768-1.888-4.512-2.848c-4.512-1.151-7.423-2.399-7.423-6.848v-0.063c0-4.063,3.264-6.752,7.839-6.752
			c2.72,0,5.088,0.704,7.104,1.984c0.544,0.32,1.088,0.992,1.088,1.952c0,1.279-1.024,2.271-2.304,2.271
			c-0.48,0-0.864-0.128-1.248-0.352c-1.632-0.96-3.167-1.504-4.704-1.504c-1.888,0-2.88,0.863-2.88,1.951v0.064
			c0,1.472,0.96,1.951,4.832,2.943c4.543,1.185,7.103,2.816,7.103,6.72v0.064c0,4.447-3.392,6.943-8.223,6.943
			C324.001,423.523,321.026,422.627,318.53,420.835z"/>
		<path fill="#FFFFFF" d="M338.946,402.085c0-1.344,1.088-2.433,2.432-2.433c1.344,0,2.432,1.089,2.432,2.433v6.399
			c1.12-1.44,2.56-2.752,5.023-2.752c3.68,0,5.824,2.432,5.824,6.367v8.863c0,1.345-1.088,2.433-2.432,2.433
			c-1.344,0-2.432-1.088-2.432-2.433v-7.327c0-2.304-1.088-3.487-2.944-3.487c-1.855,0-3.04,1.184-3.04,3.487v7.327
			c0,1.345-1.088,2.433-2.432,2.433c-1.344,0-2.432-1.088-2.432-2.433V402.085z"/>
		<path fill="#FFFFFF" d="M358.049,414.724v-0.063c0-4.928,3.968-8.928,9.312-8.928c5.312,0,9.247,3.936,9.247,8.863v0.064
			c0,4.927-3.967,8.927-9.311,8.927C361.985,423.587,358.049,419.651,358.049,414.724z M371.809,414.724v-0.063
			c0-2.528-1.824-4.736-4.512-4.736c-2.784,0-4.448,2.145-4.448,4.672v0.064c0,2.527,1.824,4.735,4.512,4.735
			C370.145,419.396,371.809,417.252,371.809,414.724z"/>
		<path fill="#FFFFFF" d="M380.929,418.34v-8.128h-0.16c-1.152,0-2.08-0.928-2.08-2.08c0-1.151,0.928-2.079,2.08-2.079h0.16v-2.145
			c0-1.344,1.088-2.432,2.432-2.432c1.344,0,2.432,1.088,2.432,2.432v2.145h2.144c1.152,0,2.08,0.928,2.08,2.079
			c0,1.152-0.928,2.08-2.08,2.08h-2.144v7.327c0,1.12,0.48,1.664,1.568,1.664c0.16,0,0.48-0.031,0.576-0.031
			c1.088,0,2.016,0.896,2.016,2.016c0,0.863-0.576,1.567-1.248,1.823c-0.896,0.353-1.728,0.48-2.784,0.48
			C382.945,423.491,380.929,422.308,380.929,418.34z"/>
		<path fill="#FFFFFF" d="M393.921,403.076c0-1.375,1.088-2.464,2.464-2.464c1.375,0,2.463,1.089,2.463,2.464v15.647h9.12
			c1.248,0,2.239,0.992,2.239,2.239c0,1.248-0.991,2.24-2.239,2.24h-11.583c-1.376,0-2.464-1.088-2.464-2.464V403.076z"/>
		<path fill="#FFFFFF" d="M413.152,401.957c0-1.408,1.184-2.272,2.72-2.272s2.72,0.864,2.72,2.272v0.063
			c0,1.408-1.184,2.304-2.72,2.304s-2.72-0.896-2.72-2.304V401.957z M413.44,408.292c0-1.344,1.088-2.432,2.432-2.432
			c1.345,0,2.433,1.088,2.433,2.432v12.671c0,1.345-1.088,2.433-2.433,2.433c-1.344,0-2.432-1.088-2.432-2.433V408.292z"/>
		<path fill="#FFFFFF" d="M422.432,421.571c-0.512-0.32-0.928-0.896-0.928-1.664c0-1.088,0.832-1.92,1.92-1.92
			c0.352,0,0.704,0.097,0.96,0.256c1.632,1.024,3.264,1.536,4.64,1.536c1.408,0,2.048-0.512,2.048-1.28v-0.063
			c0-1.056-1.664-1.408-3.552-1.984c-2.4-0.703-5.119-1.823-5.119-5.151v-0.063c0-3.488,2.815-5.439,6.271-5.439
			c1.791,0,3.647,0.479,5.311,1.312c0.705,0.352,1.152,0.992,1.152,1.824c0,1.088-0.863,1.919-1.951,1.919
			c-0.353,0-0.576-0.063-0.896-0.224c-1.376-0.672-2.688-1.088-3.711-1.088c-1.185,0-1.793,0.512-1.793,1.184v0.064
			c0,0.96,1.633,1.408,3.488,2.048c2.4,0.8,5.184,1.952,5.184,5.088v0.063c0,3.808-2.848,5.536-6.56,5.536
			C426.783,423.523,424.512,422.915,422.432,421.571z"/>
		<path fill="#FFFFFF" d="M439.424,418.34v-8.128h-0.16c-1.151,0-2.08-0.928-2.08-2.08c0-1.151,0.929-2.079,2.08-2.079h0.16v-2.145
			c0-1.344,1.088-2.432,2.432-2.432c1.345,0,2.433,1.088,2.433,2.432v2.145h2.144c1.151,0,2.08,0.928,2.08,2.079
			c0,1.152-0.929,2.08-2.08,2.08h-2.144v7.327c0,1.12,0.479,1.664,1.567,1.664c0.16,0,0.48-0.031,0.576-0.031
			c1.088,0,2.016,0.896,2.016,2.016c0,0.863-0.576,1.567-1.248,1.823c-0.896,0.353-1.728,0.48-2.783,0.48
			C441.439,423.491,439.424,422.308,439.424,418.34z"/>
		<path fill="#FFFFFF" d="M451.775,408.964c1.632-0.384,2.528-1.504,2.464-3.039c-1.119-0.288-2.239-1.248-2.239-2.624v-0.064
			c0-1.504,1.056-2.624,2.655-2.624c1.792,0,2.848,1.376,2.848,3.584v0.128c0,2.336-0.703,4.064-1.888,5.248
			c-0.96,0.96-2.399,1.536-3.584,1.536c-0.863,0-1.216-0.513-1.216-1.088C450.815,409.444,451.231,409.092,451.775,408.964z"/>
		<path fill="#FFFFFF" d="M460.447,421.571c-0.512-0.32-0.928-0.896-0.928-1.664c0-1.088,0.832-1.92,1.92-1.92
			c0.353,0,0.704,0.097,0.96,0.256c1.632,1.024,3.264,1.536,4.64,1.536c1.408,0,2.048-0.512,2.048-1.28v-0.063
			c0-1.056-1.664-1.408-3.552-1.984c-2.399-0.703-5.119-1.823-5.119-5.151v-0.063c0-3.488,2.815-5.439,6.271-5.439
			c1.792,0,3.647,0.479,5.312,1.312c0.704,0.352,1.151,0.992,1.151,1.824c0,1.088-0.863,1.919-1.951,1.919
			c-0.353,0-0.576-0.063-0.896-0.224c-1.376-0.672-2.688-1.088-3.712-1.088c-1.184,0-1.792,0.512-1.792,1.184v0.064
			c0,0.96,1.633,1.408,3.488,2.048c2.399,0.8,5.184,1.952,5.184,5.088v0.063c0,3.808-2.848,5.536-6.56,5.536
			C464.799,423.523,462.527,422.915,460.447,421.571z"/>
		<path fill="#FFFFFF" d="M487.359,418.34v-8.128h-0.16c-1.151,0-2.079-0.928-2.079-2.08c0-1.151,0.928-2.079,2.079-2.079h0.16
			v-2.145c0-1.344,1.088-2.432,2.432-2.432c1.345,0,2.433,1.088,2.433,2.432v2.145h2.144c1.151,0,2.08,0.928,2.08,2.079
			c0,1.152-0.929,2.08-2.08,2.08h-2.144v7.327c0,1.12,0.479,1.664,1.567,1.664c0.16,0,0.48-0.031,0.576-0.031
			c1.088,0,2.016,0.896,2.016,2.016c0,0.863-0.576,1.567-1.248,1.823c-0.896,0.353-1.728,0.48-2.783,0.48
			C489.375,423.491,487.359,422.308,487.359,418.34z"/>
		<path fill="#FFFFFF" d="M498.815,418.275v-0.063c0-3.744,2.848-5.472,6.911-5.472c1.728,0,2.976,0.288,4.191,0.703v-0.287
			c0-2.017-1.248-3.136-3.68-3.136c-1.344,0-2.432,0.191-3.359,0.479c-0.288,0.096-0.48,0.128-0.704,0.128
			c-1.12,0-2.016-0.864-2.016-1.983c0-0.864,0.544-1.601,1.312-1.889c1.536-0.575,3.2-0.896,5.472-0.896
			c2.656,0,4.576,0.704,5.792,1.92c1.279,1.28,1.855,3.168,1.855,5.472v7.808c0,1.312-1.056,2.336-2.368,2.336
			c-1.407,0-2.336-0.992-2.336-2.017v-0.031c-1.184,1.312-2.815,2.176-5.184,2.176C501.471,423.523,498.815,421.667,498.815,418.275
			z M509.982,417.155v-0.863c-0.832-0.385-1.92-0.641-3.104-0.641c-2.079,0-3.359,0.832-3.359,2.368v0.064
			c0,1.312,1.088,2.079,2.656,2.079C508.446,420.163,509.982,418.915,509.982,417.155z"/>
		<path fill="#FFFFFF" d="M520.19,427.203c-0.832-0.32-1.376-0.992-1.376-1.888c0-1.089,0.896-1.984,1.983-1.984
			c0.32,0,0.576,0.064,0.8,0.16c1.408,0.64,2.912,1.023,4.736,1.023c3.327,0,4.896-1.6,4.896-4.671v-0.832
			c-1.44,1.728-3.008,2.783-5.6,2.783c-4,0-7.615-2.911-7.615-7.999v-0.064c0-5.119,3.68-7.999,7.615-7.999
			c2.655,0,4.224,1.12,5.535,2.56v-0.032c0-1.312,1.088-2.399,2.433-2.399c1.344,0,2.432,1.088,2.432,2.432v11.039
			c0,3.072-0.736,5.312-2.176,6.752c-1.601,1.6-4.064,2.304-7.392,2.304C524.189,428.387,522.206,428.003,520.19,427.203z
			 M531.229,413.796v-0.064c0-2.336-1.824-3.968-4.191-3.968c-2.368,0-4.16,1.632-4.16,3.968v0.064c0,2.368,1.792,3.968,4.16,3.968
			C529.405,417.764,531.229,416.132,531.229,413.796z"/>
		<path fill="#FFFFFF" d="M540.605,402.085c0-1.344,1.088-2.433,2.433-2.433c1.344,0,2.432,1.089,2.432,2.433v18.878
			c0,1.345-1.088,2.433-2.432,2.433c-1.345,0-2.433-1.088-2.433-2.433V402.085z"/>
		<path fill="#FFFFFF" d="M549.982,401.957c0-1.408,1.184-2.272,2.72-2.272c1.535,0,2.72,0.864,2.72,2.272v0.063
			c0,1.408-1.185,2.304-2.72,2.304c-1.536,0-2.72-0.896-2.72-2.304V401.957z M550.27,408.292c0-1.344,1.088-2.432,2.433-2.432
			c1.344,0,2.432,1.088,2.432,2.432v12.671c0,1.345-1.088,2.433-2.432,2.433c-1.345,0-2.433-1.088-2.433-2.433V408.292z"/>
		<path fill="#FFFFFF" d="M559.71,408.292c0-1.344,1.088-2.432,2.432-2.432s2.432,1.088,2.432,2.432v0.192
			c1.12-1.44,2.561-2.752,5.024-2.752c3.68,0,5.823,2.432,5.823,6.367v8.863c0,1.345-1.088,2.433-2.432,2.433
			s-2.432-1.088-2.432-2.433v-7.327c0-2.304-1.088-3.487-2.944-3.487c-1.855,0-3.04,1.184-3.04,3.487v7.327
			c0,1.345-1.088,2.433-2.432,2.433s-2.432-1.088-2.432-2.433V408.292z"/>
		<path fill="#FFFFFF" d="M587.773,423.587c-5.152,0-8.96-3.615-8.96-8.863v-0.063c0-4.896,3.488-8.928,8.479-8.928
			c5.728,0,8.256,4.704,8.256,8.256c0,1.407-0.992,2.335-2.272,2.335h-9.631c0.479,2.208,2.016,3.36,4.191,3.36
			c1.344,0,2.464-0.416,3.456-1.152c0.352-0.256,0.672-0.384,1.184-0.384c1.088,0,1.888,0.832,1.888,1.92
			c0,0.64-0.288,1.12-0.64,1.439C592.221,422.787,590.269,423.587,587.773,423.587z M590.909,413.284
			c-0.288-2.176-1.568-3.648-3.616-3.648c-2.016,0-3.328,1.44-3.712,3.648H590.909z"/>
		<path fill="#FFFFFF" d="M603.646,415.779c-0.929,0-1.601-0.703-1.729-1.567l-0.319-2.176c-0.16-1.056,0.447-1.792,1.472-1.92
			c2.783-0.353,4.063-1.216,4.063-2.784v-0.063c0-1.44-1.088-2.272-2.943-2.272c-1.376,0-2.561,0.416-3.712,1.28
			c-0.384,0.288-0.896,0.512-1.44,0.512c-1.216,0-2.239-1.023-2.239-2.239c0-0.608,0.256-1.248,0.832-1.729
			c1.695-1.407,3.84-2.304,6.655-2.304c4.607,0,7.743,2.368,7.743,6.624v0.063c0,4.063-2.815,5.728-6.304,6.432l-0.096,0.576
			c-0.128,0.832-0.8,1.567-1.728,1.567H603.646z M603.646,417.892c1.6,0,2.783,1.184,2.783,2.72v0.064
			c0,1.535-1.184,2.72-2.783,2.72c-1.601,0-2.784-1.185-2.784-2.72v-0.064C600.861,419.075,602.045,417.892,603.646,417.892z"/>
	</g>
</g>
</svg>
