<?xml version="1.0" encoding="utf-8"?>
<!-- Generator: Adobe Illustrator 16.2.1, SVG Export Plug-In . SVG Version: 6.00 Build 0)  -->
<!DOCTYPE svg PUBLIC "-//W3C//DTD SVG 1.0//EN" "http://www.w3.org/TR/2001/REC-SVG-20010904/DTD/svg10.dtd">
<svg version="1.0" id="Layer_1" xmlns="http://www.w3.org/2000/svg" xmlns:xlink="http://www.w3.org/1999/xlink" x="0px" y="0px"
	 width="800px" height="450px" viewBox="0 0 800 450" enable-background="new 0 0 800 450" xml:space="preserve">
<g id="Layer_3">
	<g>
		<g>
			<path fill="#FFFFFF" d="M75.803,332.297l-1.826-0.953c0.066-0.127,6.547-12.887,7.443-41.07
				c0.938-29.568-1.77-61.229-6.582-76.978l1.969-0.601c4.871,15.938,7.615,47.868,6.67,77.643
				C82.562,319.064,76.078,331.77,75.803,332.297z"/>
			<path fill="#FFFFFF" d="M281.318,435.615c-1.236,6.35-2.183,11.25-2.183,11.25l2.021,0.391c0,0,0.993-5.13,2.271-11.695
				C282.724,435.574,282.021,435.597,281.318,435.615z"/>
			<path fill="#FFFFFF" d="M62.215,122.177l-2.061-0.043c0.238-11.716,7.287-33.7,7.586-34.631
				c6.025-21.928,33.172-63.646,62.465-88.381l1.33,1.572c-29.008,24.494-55.861,65.719-61.82,87.397
				C69.627,88.36,62.443,110.762,62.215,122.177z"/>
			<path fill="#FFFFFF" d="M263.853,391.037c-20.325-3.188-44.42-11.799-69.854-33.859c-47.459-41.164-54.51-70.822-59.658-92.471
				c-0.69-2.9-1.342-5.643-2.053-8.23l-0.18-0.355c-0.286-0.371-7.247-9.176-28.268-18.512
				c-17.738-7.877-33.401-29.794-46.547-65.147c-6.992-18.797-6.176-37.416,2.078-47.432c4.857-5.897,11.88-8.274,20.312-6.883
				c23.518,3.892,25.201,9.688,25.215,9.746l1.01-0.193l-1.021,0.144l2.041-0.288c-0.103-0.732-1.736-7.273-26.908-11.439
				c-9.195-1.528-16.884,1.109-22.238,7.604c-8.715,10.572-9.664,29.987-2.42,49.461c13.539,36.396,29.122,58.085,47.643,66.313
				c19.014,8.44,26.352,16.552,27.354,17.737c0.68,2.494,1.311,5.146,1.979,7.955c5.212,21.924,12.353,51.949,60.312,93.551
				c24.704,21.425,48.141,30.336,68.167,33.893C261.514,391.787,262.525,391.186,263.853,391.037z"/>
			<path fill="#FFFFFF" d="M392.863,117.565c-1.799-14.136-9.875-36.035-9.957-36.255l-0.07,0.026
				C380.815,76.792,355.961,27.013,303.639-1l-0.974,1.812c53.493,28.64,78.096,80.761,78.309,81.211
				c0.08,0.217,8.074,21.897,9.844,35.797c1.727,13.576-4.41,44.375-10.08,56.602c-3.037,6.547-2.462,14.33-1.855,22.568
				c0.547,7.457,1.115,15.166-0.59,23.398l-0.326,1.58c-3.941,19.046-15.939,77.005-21.521,92.942
				c-1.027,2.934-2.232,7.365-3.625,12.496c-5.745,21.133-15.95,58.973-34.702,64.336c0.9,0.287,1.608,0.816,2.132,1.48
				c18.722-7.031,28.463-42.845,34.557-65.271c1.387-5.089,2.58-9.492,3.584-12.354c5.623-16.066,17.646-74.128,21.596-93.207
				l0.324-1.579c1.764-8.516,1.158-16.724,0.625-23.968c-0.609-8.312-1.14-15.489,1.674-21.551
				C388.381,162.84,394.625,131.431,392.863,117.565z"/>
			<path fill="#FFFFFF" d="M293.721,148.212c-0.061-0.088-6.031-8.865-14.682-9.51c-7.924-0.586-19.553,2.444-26.498,4.254
				c-1.018,0.265-1.932,0.504-2.721,0.699l-0.498-1.996c0.781-0.196,1.691-0.433,2.701-0.696c7.068-1.843,18.904-4.933,27.166-4.313
				c9.668,0.719,15.979,10.023,16.242,10.42L293.721,148.212z"/>
			<path fill="#FFFFFF" d="M286.211,139.956c0,0,1.494,13.197-8.812,13.54c-10.306,0.343-13.645-5.024-12.318-14.544
				C265.08,138.952,274.752,135.36,286.211,139.956z"/>
			<path fill="#FFFFFF" d="M280.555,154.892c-5.256,0-12.293-1.09-20.762-4.939l0.854-1.875c18.176,8.263,29.602,3.148,29.713,3.097
				l0.877,1.864C290.959,153.168,287.164,154.892,280.555,154.892z"/>
			<path fill="#FFFFFF" d="M379.166,163.89c-11.34-12.607-28.51-8.068-28.682-8.02l-0.549-1.985
				c0.188-0.05,18.578-4.916,30.762,8.628L379.166,163.89z"/>
			<path fill="#FFFFFF" d="M374.551,158.594c0,0,1.021,11.341-9.479,11.739c0,0-10.107-0.975-6.938-16.337
				C358.133,153.996,365.605,152.801,374.551,158.594z"/>
			<path fill="#FFFFFF" d="M371.09,171.645c-3.838,0-10.268-0.825-17.449-5.186l1.068-1.761c10.576,6.421,19.566,4.646,19.656,4.627
				l0.426,2.016C374.646,171.372,373.295,171.645,371.09,171.645z"/>
			<path fill="#FFFFFF" d="M350.543,247.367l-0.662-1.951c16.611-5.643,13.021-23.577,11.527-28.94
				c-1.025-3.675-3.531-12.084-6.18-20.987c-3.227-10.839-6.883-23.122-8.346-28.47c-2.611-9.572-4.674-18.973-4.693-19.065
				l2.012-0.44c0.021,0.093,2.072,9.443,4.67,18.962c1.455,5.325,5.109,17.599,8.33,28.427c2.654,8.911,5.16,17.329,6.188,21.021
				C365.01,221.726,368.865,241.141,350.543,247.367z"/>
			<path fill="#FFFFFF" d="M302.656,241.795c-6.043-3.457-9.4-10.311-8.979-18.333c0.49-9.322,16.979-14.008,17.682-14.203
				l0.551,1.984c-0.156,0.044-15.76,4.479-16.172,12.328c-0.383,7.229,2.588,13.375,7.941,16.435L302.656,241.795z"/>
			<path fill="#FFFFFF" d="M311.633,240.9c0,0,10.066-7.318,16.926-4.574C335.42,239.072,329.016,246.391,311.633,240.9z"/>
			<path fill="#FFFFFF" d="M340.908,245.984c0,0,4.803-6.16,9.254-3.498C354.615,245.148,351.359,250.25,340.908,245.984z"/>
			<path fill="#FFFFFF" d="M72.561,447.777c-31.863-32.797-42.693-67.238-42.287-86.771c0.104-5.107,1.053-8.771,2.67-10.307
				c3.711-3.52,5.355-5.979,9.33-11.93c2.152-3.227,4.828-7.23,8.836-12.93c6.121-8.695,8.416-13.688,10.094-17.33
				c1.461-3.174,2.424-5.27,5.01-7.549c5.439-4.805,15.465-4.229,15.883-4.205l1.062,0.066l-0.102,1.059c0,0-0.5,5.188-0.697,6.812
				c-0.385,3.17-2.209,5.229-3.975,7.229c-2.619,2.967-5.324,6.027-4.283,13.324c1.826,12.775,23.613,48.242,40.193,65.432
				c6.906,7.152,23.75,22.223,64.773,53.346c0.99,0.752,1.648,1.248,1.906,1.448l-1.262,1.63c-0.258-0.201-0.91-0.691-1.889-1.438
				c-41.129-31.203-58.057-46.346-65.012-53.556c-16.789-17.403-38.879-53.485-40.75-66.563c-1.176-8.237,1.988-11.815,4.777-14.979
				c1.699-1.924,3.168-3.584,3.473-6.117c0.141-1.145,0.43-4.055,0.586-5.658c-0.018,0-0.037,0-0.057,0
				c-2.67,0-9.453,0.354-13.266,3.723c-2.258,1.988-3.104,3.822-4.502,6.863c-1.613,3.507-4.051,8.803-10.283,17.654
				c-3.99,5.672-6.66,9.672-8.807,12.885c-3.945,5.908-5.746,8.604-9.625,12.279c-0.91,0.857-1.92,3.641-2.029,8.854
				c-0.394,19.135,10.289,52.948,41.709,85.29L72.561,447.777z"/>
			<path fill="#FFFFFF" d="M1.381,375.723l-0.393-2.021c8.027-1.566,21.469-16.765,25.721-22.836
				c1.654-2.363,3.504-3.652,5.492-3.83c2.51-0.229,4.246,1.459,4.316,1.528l-1.451,1.463c-0.006-0.012-1.168-1.103-2.705-0.938
				c-1.35,0.134-2.682,1.127-3.965,2.957C24.57,357.508,10.494,373.943,1.381,375.723z"/>
			<path fill="#FFFFFF" d="M38.908,448.422c-0.189-0.162-19.264-16.467-38.611-49.479l1.775-1.041
				c19.156,32.684,37.979,48.791,38.166,48.945L38.908,448.422z"/>
			<path fill="#FFFFFF" d="M115.395,226.979c-2.535,0-6.521-1.069-10.455-6.52c-2.648-3.668-6.752-5.509-11.502-7.641
				c-5.314-2.385-11.338-5.088-16.268-11.06c-9.215-11.175-18.643-54.782-18.166-64.196c0.189-3.732,1.939-6.722,4.93-8.421
				c4.672-2.656,11.844-1.916,19.182,1.975c12.27,6.508,26.229,40.7,26.818,42.153l-1.836,0.92
				c-2.832-4.675-7.773-11.22-9.943-11.22c-0.01,0-0.02,0-0.029,0c-0.107,0.002-0.33,0.01-0.586,0.493
				c-0.549,1.036-1.373,2.329-2.328,3.825c-3.801,5.949-9.541,14.94-5.564,19.904c2.91,3.633,6.75,5.652,10.816,7.791
				c3.303,1.736,6.719,3.533,9.674,6.279c4.18,3.881,7.422,4.973,8.059,4.492c0.271-0.202,0.537-1.596-1.445-5.563
				c-5.283-10.569-5.137-21.896-1.684-25.843l1.551,1.355c-2.953,3.374-2.865,13.881,1.975,23.566
				c2.146,4.289,2.42,6.949,0.84,8.133c-2.332,1.75-7.219-1.403-10.697-4.631c-2.756-2.561-6.047-4.293-9.23-5.967
				c-4.072-2.143-8.285-4.357-11.465-8.326c-4.898-6.114,1.32-15.854,5.436-22.299c0.932-1.459,1.734-2.719,2.244-3.682
				c0.674-1.275,1.646-1.568,2.346-1.588c1.77-0.086,3.936,1.791,5.955,4.082c-5.055-10.793-14.033-27.902-21.869-32.057
				c-6.711-3.561-13.143-4.307-17.201-2.004c-2.389,1.357-3.734,3.688-3.887,6.734c-0.457,8.983,8.949,52.175,17.695,62.78
				c4.623,5.601,10.164,8.087,15.523,10.492c4.812,2.159,9.355,4.198,12.328,8.313c5.348,7.406,10.453,5.456,10.668,5.372
				l0.793,1.899C117.967,226.568,116.957,226.979,115.395,226.979z"/>
			<path fill="#FFFFFF" d="M298.791,92.103c0,0,6.961,4.888,4.361,7.709c-2.598,2.822-5.07,6.35-6.127,5.998
				c-1.059-0.354-10.324-3.177-14.863-7.057c-4.541-3.881-20.061-8.819-25.707-9.879c-5.643-1.057-22.932-6.35-28.93-3.881
				c-5.994,2.471,4.236-8.466,17.289-6.35C257.867,80.761,289.521,84.993,298.791,92.103z"/>
			<path fill="#FFFFFF" d="M364.533,114.276c0,0-3.438,5.288-2.135,8.111c1.305,2.824,6.242-3.527,15.412-2.468
				c9.178,1.058,14.193,3.2,14.193,3.2s-1.262-10.865-1.729-12.59C389.812,108.806,371.008,109.688,364.533,114.276z"/>
			<path fill="#FFFFFF" d="M341.049,289.842c0,0-3.543-10.566-12.084-9.975c-8.537,0.592-13.055-8.23-33.287-1.615
				c-20.234,6.617-29.637,8.619-29.637,8.619s2.256,5.383,16.652,14.287c14.398,8.9,44.598,9.543,51.699,1.732
				C341.49,295.076,343.75,294.865,341.049,289.842z M288.764,282.305v-0.002c1.809-0.572,3.693-1.178,5.719-1.84
				c20.23-6.615,24.75,2.209,33.287,1.617c8.539-0.592,12.084,9.971,12.084,9.971S305.818,287.252,288.764,282.305z"/>
			<path fill="#FFFFFF" d="M308.34,323.096c-0.002,0-0.002,0-0.004,0c-7.479,0-14.695-1.549-19.795-4.244
				c-17.471-9.24-23.258-30.809-23.496-31.723l-0.199-0.764l0.688-0.391c1.209-0.688,29.773-16.857,44.5-18.312
				c2.102-0.207,4.09-0.312,5.906-0.312c6.734,0,10.398,1.428,13.348,2.573c1.465,0.572,2.727,1.063,4.146,1.312
				c5.734,0.994,9.225,17.912,9.865,21.293c1.107,7.693-0.615,14.209-5.117,19.399C332.123,318.922,320.967,323.096,308.34,323.096z
				 M267.26,287.367c1.195,3.9,7.375,21.795,22.246,29.662c4.811,2.545,11.674,4.008,18.83,4.008c0,0,0.002,0,0.004,0
				c12.039,0,22.609-3.908,28.285-10.455c4.092-4.725,5.652-10.684,4.641-17.715c-1.479-7.779-5.002-19.049-8.186-19.602
				c-1.623-0.283-3.041-0.834-4.543-1.426c-2.932-1.143-6.252-2.434-12.602-2.434c-1.75,0-3.67,0.104-5.703,0.301
				C297.189,271,271.818,284.832,267.26,287.367z"/>
			<path fill="#FFFFFF" d="M250.566,286.023l-1.99-0.523c0.273-1.035,6.826-25.502,20.219-39.812
				c13.176-14.078,35.422-44.058,35.646-44.354l1.654,1.227c-0.223,0.301-22.541,30.375-35.797,44.542
				C257.266,261.02,250.633,285.775,250.566,286.023z"/>
			<path fill="#FFFFFF" d="M352.988,295.738l-1.771-1.057c9.039-15.152-1.873-47.637-1.979-47.957l1.949-0.668
				C351.654,247.428,362.516,279.768,352.988,295.738z"/>
			<path fill="#FFFFFF" d="M73.299,335.594"/>
		</g>
		<g>
			<rect x="530.629" y="143.207" fill="#FFFFFF" width="2.062" height="10.298"/>
			<rect x="530.629" y="102.018" fill="#FFFFFF" width="2.062" height="10.297"/>
			<rect x="530.629" y="204.991" fill="#FFFFFF" width="2.062" height="10.297"/>
			<rect x="530.629" y="163.802" fill="#FFFFFF" width="2.062" height="10.297"/>
			<rect x="530.629" y="184.397" fill="#FFFFFF" width="2.062" height="10.297"/>
			<rect x="530.629" y="122.612" fill="#FFFFFF" width="2.062" height="10.298"/>
			<rect x="530.629" y="19.64" fill="#FFFFFF" width="2.062" height="10.297"/>
			<rect x="530.629" y="-0.955" fill="#FFFFFF" width="2.062" height="10.298"/>
			<rect x="530.629" y="60.829" fill="#FFFFFF" width="2.062" height="10.297"/>
			<rect x="530.629" y="81.423" fill="#FFFFFF" width="2.062" height="10.298"/>
			<rect x="530.629" y="40.233" fill="#FFFFFF" width="2.062" height="10.298"/>
			<rect x="530.629" y="287.369" fill="#FFFFFF" width="2.062" height="10.299"/>
			<rect x="530.629" y="369.748" fill="#FFFFFF" width="2.062" height="10.299"/>
			<path fill="#FFFFFF" d="M530.629,435.488v6.342h2.062v-6.291C532.004,435.524,531.316,435.51,530.629,435.488z"/>
			<rect x="530.629" y="349.154" fill="#FFFFFF" width="2.062" height="10.297"/>
			<rect x="530.629" y="328.555" fill="#FFFFFF" width="2.062" height="10.303"/>
			<rect x="530.629" y="246.182" fill="#FFFFFF" width="2.062" height="10.297"/>
			<rect x="530.629" y="225.586" fill="#FFFFFF" width="2.062" height="10.298"/>
			<rect x="530.629" y="266.775" fill="#FFFFFF" width="2.062" height="10.297"/>
			<rect x="530.629" y="307.965" fill="#FFFFFF" width="2.062" height="10.297"/>
			<path fill="#FFFFFF" d="M264.5,391c1.474,0.002,2.947,0.021,4.42,0.027V-0.093h-6.178v391.382
				C263.263,391.105,263.847,390.999,264.5,391z"/>
			<path fill="#FFFFFF" d="M262.742,435.509v11.545h6.178v-11.135C266.849,435.891,264.776,435.771,262.742,435.509z"/>
			<rect y="145.487" fill="#FFFFFF" width="797.492" height="6.178"/>
			<g>
				<rect x="792.344" y="297.076" fill="#FFFFFF" width="5.148" height="2.059"/>
				<path fill="#FFFFFF" d="M782.121,299.135h-10.223v-2.059h10.223V299.135z M761.674,299.135h-10.221v-2.059h10.221V299.135z
					 M741.227,299.135h-10.223v-2.059h10.223V299.135z M720.781,299.135h-10.229v-2.059h10.229V299.135z M700.336,299.135h-10.225
					v-2.059h10.225V299.135z M679.889,299.135h-10.225v-2.059h10.225V299.135z M659.441,299.135h-10.229v-2.059h10.229V299.135z
					 M638.994,299.135h-10.223v-2.059h10.223V299.135z M618.549,299.135h-10.225v-2.059h10.225V299.135z M598.1,299.135h-10.223
					v-2.059H598.1V299.135z M577.654,299.135H567.43v-2.059h10.229L577.654,299.135L577.654,299.135z M557.209,299.135h-10.225
					v-2.059h10.225V299.135z M536.762,299.135h-10.223v-2.059h10.223V299.135z M516.314,299.135H506.09v-2.059h10.229
					L516.314,299.135L516.314,299.135z M495.867,299.135h-10.225v-2.059h10.225V299.135z M475.422,299.135h-10.223v-2.059h10.223
					V299.135z M454.973,299.135H444.75v-2.059h10.223V299.135z M434.527,299.135H424.3v-2.059h10.229L434.527,299.135
					L434.527,299.135z M414.082,299.135h-10.225v-2.059h10.225V299.135z M393.635,299.135h-10.223v-2.059h10.223V299.135z
					 M373.189,299.135h-10.225v-2.059h10.225V299.135z M352.74,299.135h-10.225v-2.059h10.225V299.135z M332.295,299.135h-10.223
					v-2.059h10.223V299.135z M311.848,299.135h-10.223v-2.059h10.223V299.135z M291.402,299.135H281.18v-2.059h10.223
					L291.402,299.135L291.402,299.135z M270.953,299.135H260.73v-2.059h10.223V299.135z M250.508,299.135h-10.223v-2.059h10.223
					V299.135z M230.062,299.135h-10.225v-2.059h10.225V299.135z M209.615,299.135h-10.223v-2.059h10.223V299.135L209.615,299.135z
					 M189.17,299.135h-10.227v-2.059h10.227V299.135z M168.721,299.135h-10.223v-2.059h10.223V299.135L168.721,299.135z
					 M148.275,299.135h-10.223v-2.059h10.223V299.135z M127.828,299.135h-10.223v-2.059h10.223V299.135z M107.381,299.135H97.158
					v-2.059h10.223V299.135z M86.934,299.135H76.711v-2.059h10.223V299.135z M66.488,299.135H56.266v-2.059h10.223L66.488,299.135
					L66.488,299.135z M46.043,299.135H35.818v-2.059h10.225V299.135z M25.594,299.135H15.371v-2.059h10.223V299.135z"/>
				<rect y="297.076" fill="#FFFFFF" width="5.148" height="2.059"/>
			</g>
		</g>
	</g>
</g>
<g id="Layer_2">
	<rect x="174.5" y="399.651" fill="none" width="451" height="36"/>
	<g enable-background="new    ">
		<path fill="#FFFFFF" d="M185.828,403.94c-0.096-0.288-0.192-0.64-0.192-0.928c0-1.376,1.152-2.4,2.528-2.4
			c1.152,0,2.08,0.736,2.4,1.761l4.448,13.727l4.479-13.599c0.384-1.152,1.248-1.952,2.496-1.952h0.384
			c1.248,0,2.112,0.768,2.496,1.952l4.48,13.599l4.448-13.727c0.32-0.96,1.152-1.761,2.368-1.761c1.344,0,2.432,1.024,2.432,2.368
			c0,0.288-0.096,0.672-0.192,0.96l-6.271,17.599c-0.448,1.248-1.376,2.016-2.56,2.016h-0.512c-1.184,0-2.08-0.735-2.528-2.016
			l-4.416-12.831l-4.416,12.831c-0.448,1.28-1.344,2.016-2.528,2.016h-0.512c-1.184,0-2.112-0.768-2.56-2.016L185.828,403.94z"/>
		<path fill="#FFFFFF" d="M221.54,402.085c0-1.344,1.088-2.433,2.432-2.433c1.344,0,2.432,1.089,2.432,2.433v6.399
			c1.12-1.44,2.56-2.752,5.023-2.752c3.68,0,5.824,2.432,5.824,6.367v8.863c0,1.345-1.088,2.433-2.432,2.433
			c-1.344,0-2.432-1.088-2.432-2.433v-7.327c0-2.304-1.088-3.487-2.944-3.487c-1.855,0-3.04,1.184-3.04,3.487v7.327
			c0,1.345-1.088,2.433-2.432,2.433c-1.344,0-2.432-1.088-2.432-2.433V402.085z"/>
		<path fill="#FFFFFF" d="M240.451,418.275v-0.063c0-3.744,2.848-5.472,6.912-5.472c1.728,0,2.976,0.288,4.191,0.703v-0.287
			c0-2.017-1.248-3.136-3.68-3.136c-1.344,0-2.432,0.191-3.359,0.479c-0.288,0.096-0.48,0.128-0.704,0.128
			c-1.12,0-2.016-0.864-2.016-1.983c0-0.864,0.544-1.601,1.312-1.889c1.536-0.575,3.2-0.896,5.472-0.896
			c2.656,0,4.576,0.704,5.792,1.92c1.28,1.28,1.856,3.168,1.856,5.472v7.808c0,1.312-1.056,2.336-2.368,2.336
			c-1.408,0-2.336-0.992-2.336-2.017v-0.031c-1.184,1.312-2.816,2.176-5.184,2.176C243.107,423.523,240.451,421.667,240.451,418.275
			z M251.619,417.155v-0.863c-0.832-0.385-1.92-0.641-3.104-0.641c-2.08,0-3.36,0.832-3.36,2.368v0.064
			c0,1.312,1.088,2.079,2.656,2.079C250.083,420.163,251.619,418.915,251.619,417.155z"/>
		<path fill="#FFFFFF" d="M261.059,418.34v-8.128h-0.16c-1.152,0-2.08-0.928-2.08-2.08c0-1.151,0.928-2.079,2.08-2.079h0.16v-2.145
			c0-1.344,1.088-2.432,2.432-2.432c1.344,0,2.432,1.088,2.432,2.432v2.145h2.144c1.152,0,2.08,0.928,2.08,2.079
			c0,1.152-0.928,2.08-2.08,2.08h-2.144v7.327c0,1.12,0.48,1.664,1.568,1.664c0.16,0,0.48-0.031,0.576-0.031
			c1.088,0,2.016,0.896,2.016,2.016c0,0.863-0.576,1.567-1.248,1.823c-0.896,0.353-1.728,0.48-2.784,0.48
			C263.075,423.491,261.059,422.308,261.059,418.34z"/>
		<path fill="#FFFFFF" d="M283.075,401.957c0-1.408,1.184-2.272,2.72-2.272c1.536,0,2.72,0.864,2.72,2.272v0.063
			c0,1.408-1.184,2.304-2.72,2.304c-1.536,0-2.72-0.896-2.72-2.304V401.957z M283.363,408.292c0-1.344,1.088-2.432,2.432-2.432
			c1.344,0,2.432,1.088,2.432,2.432v12.671c0,1.345-1.088,2.433-2.432,2.433c-1.344,0-2.432-1.088-2.432-2.433V408.292z"/>
		<path fill="#FFFFFF" d="M292.354,421.571c-0.512-0.32-0.928-0.896-0.928-1.664c0-1.088,0.832-1.92,1.92-1.92
			c0.352,0,0.704,0.097,0.96,0.256c1.632,1.024,3.264,1.536,4.64,1.536c1.408,0,2.048-0.512,2.048-1.28v-0.063
			c0-1.056-1.664-1.408-3.552-1.984c-2.4-0.703-5.12-1.823-5.12-5.151v-0.063c0-3.488,2.816-5.439,6.271-5.439
			c1.792,0,3.648,0.479,5.312,1.312c0.704,0.352,1.152,0.992,1.152,1.824c0,1.088-0.864,1.919-1.952,1.919
			c-0.352,0-0.576-0.063-0.896-0.224c-1.376-0.672-2.688-1.088-3.711-1.088c-1.184,0-1.792,0.512-1.792,1.184v0.064
			c0,0.96,1.632,1.408,3.488,2.048c2.4,0.8,5.184,1.952,5.184,5.088v0.063c0,3.808-2.848,5.536-6.56,5.536
			C296.706,423.523,294.434,422.915,292.354,421.571z"/>
		<path fill="#FFFFFF" d="M318.53,420.835c-0.544-0.384-0.928-1.088-0.928-1.855c0-1.28,1.024-2.271,2.304-2.271
			c0.64,0,1.088,0.224,1.408,0.447c1.696,1.248,3.552,2.017,5.728,2.017c2.016,0,3.232-0.801,3.232-2.112v-0.064
			c0-1.247-0.768-1.888-4.512-2.848c-4.512-1.151-7.423-2.399-7.423-6.848v-0.063c0-4.063,3.264-6.752,7.839-6.752
			c2.72,0,5.088,0.704,7.104,1.984c0.544,0.32,1.088,0.992,1.088,1.952c0,1.279-1.024,2.271-2.304,2.271
			c-0.48,0-0.864-0.128-1.248-0.352c-1.632-0.96-3.167-1.504-4.704-1.504c-1.888,0-2.88,0.863-2.88,1.951v0.064
			c0,1.472,0.96,1.951,4.832,2.943c4.543,1.185,7.103,2.816,7.103,6.72v0.064c0,4.447-3.392,6.943-8.223,6.943
			C324.001,423.523,321.026,422.627,318.53,420.835z"/>
		<path fill="#FFFFFF" d="M338.946,402.085c0-1.344,1.088-2.433,2.432-2.433c1.344,0,2.432,1.089,2.432,2.433v6.399
			c1.12-1.44,2.56-2.752,5.023-2.752c3.68,0,5.824,2.432,5.824,6.367v8.863c0,1.345-1.088,2.433-2.432,2.433
			c-1.344,0-2.432-1.088-2.432-2.433v-7.327c0-2.304-1.088-3.487-2.944-3.487c-1.855,0-3.04,1.184-3.04,3.487v7.327
			c0,1.345-1.088,2.433-2.432,2.433c-1.344,0-2.432-1.088-2.432-2.433V402.085z"/>
		<path fill="#FFFFFF" d="M358.049,414.724v-0.063c0-4.928,3.968-8.928,9.312-8.928c5.312,0,9.247,3.936,9.247,8.863v0.064
			c0,4.927-3.967,8.927-9.311,8.927C361.985,423.587,358.049,419.651,358.049,414.724z M371.809,414.724v-0.063
			c0-2.528-1.824-4.736-4.512-4.736c-2.784,0-4.448,2.145-4.448,4.672v0.064c0,2.527,1.824,4.735,4.512,4.735
			C370.145,419.396,371.809,417.252,371.809,414.724z"/>
		<path fill="#FFFFFF" d="M380.929,418.34v-8.128h-0.16c-1.152,0-2.08-0.928-2.08-2.08c0-1.151,0.928-2.079,2.08-2.079h0.16v-2.145
			c0-1.344,1.088-2.432,2.432-2.432c1.344,0,2.432,1.088,2.432,2.432v2.145h2.144c1.152,0,2.08,0.928,2.08,2.079
			c0,1.152-0.928,2.08-2.08,2.08h-2.144v7.327c0,1.12,0.48,1.664,1.568,1.664c0.16,0,0.48-0.031,0.576-0.031
			c1.088,0,2.016,0.896,2.016,2.016c0,0.863-0.576,1.567-1.248,1.823c-0.896,0.353-1.728,0.48-2.784,0.48
			C382.945,423.491,380.929,422.308,380.929,418.34z"/>
		<path fill="#FFFFFF" d="M393.921,403.076c0-1.375,1.088-2.464,2.464-2.464c1.375,0,2.463,1.089,2.463,2.464v15.647h9.12
			c1.248,0,2.239,0.992,2.239,2.239c0,1.248-0.991,2.24-2.239,2.24h-11.583c-1.376,0-2.464-1.088-2.464-2.464V403.076z"/>
		<path fill="#FFFFFF" d="M413.152,401.957c0-1.408,1.184-2.272,2.72-2.272s2.72,0.864,2.72,2.272v0.063
			c0,1.408-1.184,2.304-2.72,2.304s-2.72-0.896-2.72-2.304V401.957z M413.44,408.292c0-1.344,1.088-2.432,2.432-2.432
			c1.345,0,2.433,1.088,2.433,2.432v12.671c0,1.345-1.088,2.433-2.433,2.433c-1.344,0-2.432-1.088-2.432-2.433V408.292z"/>
		<path fill="#FFFFFF" d="M422.432,421.571c-0.512-0.32-0.928-0.896-0.928-1.664c0-1.088,0.832-1.92,1.92-1.92
			c0.352,0,0.704,0.097,0.96,0.256c1.632,1.024,3.264,1.536,4.64,1.536c1.408,0,2.048-0.512,2.048-1.28v-0.063
			c0-1.056-1.664-1.408-3.552-1.984c-2.4-0.703-5.119-1.823-5.119-5.151v-0.063c0-3.488,2.815-5.439,6.271-5.439
			c1.791,0,3.647,0.479,5.311,1.312c0.705,0.352,1.152,0.992,1.152,1.824c0,1.088-0.863,1.919-1.951,1.919
			c-0.353,0-0.576-0.063-0.896-0.224c-1.376-0.672-2.688-1.088-3.711-1.088c-1.185,0-1.793,0.512-1.793,1.184v0.064
			c0,0.96,1.633,1.408,3.488,2.048c2.4,0.8,5.184,1.952,5.184,5.088v0.063c0,3.808-2.848,5.536-6.56,5.536
			C426.783,423.523,424.512,422.915,422.432,421.571z"/>
		<path fill="#FFFFFF" d="M439.424,418.34v-8.128h-0.16c-1.151,0-2.08-0.928-2.08-2.08c0-1.151,0.929-2.079,2.08-2.079h0.16v-2.145
			c0-1.344,1.088-2.432,2.432-2.432c1.345,0,2.433,1.088,2.433,2.432v2.145h2.144c1.151,0,2.08,0.928,2.08,2.079
			c0,1.152-0.929,2.08-2.08,2.08h-2.144v7.327c0,1.12,0.479,1.664,1.567,1.664c0.16,0,0.48-0.031,0.576-0.031
			c1.088,0,2.016,0.896,2.016,2.016c0,0.863-0.576,1.567-1.248,1.823c-0.896,0.353-1.728,0.48-2.783,0.48
			C441.439,423.491,439.424,422.308,439.424,418.34z"/>
		<path fill="#FFFFFF" d="M451.775,408.964c1.632-0.384,2.528-1.504,2.464-3.039c-1.119-0.288-2.239-1.248-2.239-2.624v-0.064
			c0-1.504,1.056-2.624,2.655-2.624c1.792,0,2.848,1.376,2.848,3.584v0.128c0,2.336-0.703,4.064-1.888,5.248
			c-0.96,0.96-2.399,1.536-3.584,1.536c-0.863,0-1.216-0.513-1.216-1.088C450.815,409.444,451.231,409.092,451.775,408.964z"/>
		<path fill="#FFFFFF" d="M460.447,421.571c-0.512-0.32-0.928-0.896-0.928-1.664c0-1.088,0.832-1.92,1.92-1.92
			c0.353,0,0.704,0.097,0.96,0.256c1.632,1.024,3.264,1.536,4.64,1.536c1.408,0,2.048-0.512,2.048-1.28v-0.063
			c0-1.056-1.664-1.408-3.552-1.984c-2.399-0.703-5.119-1.823-5.119-5.151v-0.063c0-3.488,2.815-5.439,6.271-5.439
			c1.792,0,3.647,0.479,5.312,1.312c0.704,0.352,1.151,0.992,1.151,1.824c0,1.088-0.863,1.919-1.951,1.919
			c-0.353,0-0.576-0.063-0.896-0.224c-1.376-0.672-2.688-1.088-3.712-1.088c-1.184,0-1.792,0.512-1.792,1.184v0.064
			c0,0.96,1.633,1.408,3.488,2.048c2.399,0.8,5.184,1.952,5.184,5.088v0.063c0,3.808-2.848,5.536-6.56,5.536
			C464.799,423.523,462.527,422.915,460.447,421.571z"/>
		<path fill="#FFFFFF" d="M487.359,418.34v-8.128h-0.16c-1.151,0-2.079-0.928-2.079-2.08c0-1.151,0.928-2.079,2.079-2.079h0.16
			v-2.145c0-1.344,1.088-2.432,2.432-2.432c1.345,0,2.433,1.088,2.433,2.432v2.145h2.144c1.151,0,2.08,0.928,2.08,2.079
			c0,1.152-0.929,2.08-2.08,2.08h-2.144v7.327c0,1.12,0.479,1.664,1.567,1.664c0.16,0,0.48-0.031,0.576-0.031
			c1.088,0,2.016,0.896,2.016,2.016c0,0.863-0.576,1.567-1.248,1.823c-0.896,0.353-1.728,0.48-2.783,0.48
			C489.375,423.491,487.359,422.308,487.359,418.34z"/>
		<path fill="#FFFFFF" d="M498.815,418.275v-0.063c0-3.744,2.848-5.472,6.911-5.472c1.728,0,2.976,0.288,4.191,0.703v-0.287
			c0-2.017-1.248-3.136-3.68-3.136c-1.344,0-2.432,0.191-3.359,0.479c-0.288,0.096-0.48,0.128-0.704,0.128
			c-1.12,0-2.016-0.864-2.016-1.983c0-0.864,0.544-1.601,1.312-1.889c1.536-0.575,3.2-0.896,5.472-0.896
			c2.656,0,4.576,0.704,5.792,1.92c1.279,1.28,1.855,3.168,1.855,5.472v7.808c0,1.312-1.056,2.336-2.368,2.336
			c-1.407,0-2.336-0.992-2.336-2.017v-0.031c-1.184,1.312-2.815,2.176-5.184,2.176C501.471,423.523,498.815,421.667,498.815,418.275
			z M509.982,417.155v-0.863c-0.832-0.385-1.92-0.641-3.104-0.641c-2.079,0-3.359,0.832-3.359,2.368v0.064
			c0,1.312,1.088,2.079,2.656,2.079C508.446,420.163,509.982,418.915,509.982,417.155z"/>
		<path fill="#FFFFFF" d="M520.19,427.203c-0.832-0.32-1.376-0.992-1.376-1.888c0-1.089,0.896-1.984,1.983-1.984
			c0.32,0,0.576,0.064,0.8,0.16c1.408,0.64,2.912,1.023,4.736,1.023c3.327,0,4.896-1.6,4.896-4.671v-0.832
			c-1.44,1.728-3.008,2.783-5.6,2.783c-4,0-7.615-2.911-7.615-7.999v-0.064c0-5.119,3.68-7.999,7.615-7.999
			c2.655,0,4.224,1.12,5.535,2.56v-0.032c0-1.312,1.088-2.399,2.433-2.399c1.344,0,2.432,1.088,2.432,2.432v11.039
			c0,3.072-0.736,5.312-2.176,6.752c-1.601,1.6-4.064,2.304-7.392,2.304C524.189,428.387,522.206,428.003,520.19,427.203z
			 M531.229,413.796v-0.064c0-2.336-1.824-3.968-4.191-3.968c-2.368,0-4.16,1.632-4.16,3.968v0.064c0,2.368,1.792,3.968,4.16,3.968
			C529.405,417.764,531.229,416.132,531.229,413.796z"/>
		<path fill="#FFFFFF" d="M540.605,402.085c0-1.344,1.088-2.433,2.433-2.433c1.344,0,2.432,1.089,2.432,2.433v18.878
			c0,1.345-1.088,2.433-2.432,2.433c-1.345,0-2.433-1.088-2.433-2.433V402.085z"/>
		<path fill="#FFFFFF" d="M549.982,401.957c0-1.408,1.184-2.272,2.72-2.272c1.535,0,2.72,0.864,2.72,2.272v0.063
			c0,1.408-1.185,2.304-2.72,2.304c-1.536,0-2.72-0.896-2.72-2.304V401.957z M550.27,408.292c0-1.344,1.088-2.432,2.433-2.432
			c1.344,0,2.432,1.088,2.432,2.432v12.671c0,1.345-1.088,2.433-2.432,2.433c-1.345,0-2.433-1.088-2.433-2.433V408.292z"/>
		<path fill="#FFFFFF" d="M559.71,408.292c0-1.344,1.088-2.432,2.432-2.432s2.432,1.088,2.432,2.432v0.192
			c1.12-1.44,2.561-2.752,5.024-2.752c3.68,0,5.823,2.432,5.823,6.367v8.863c0,1.345-1.088,2.433-2.432,2.433
			s-2.432-1.088-2.432-2.433v-7.327c0-2.304-1.088-3.487-2.944-3.487c-1.855,0-3.04,1.184-3.04,3.487v7.327
			c0,1.345-1.088,2.433-2.432,2.433s-2.432-1.088-2.432-2.433V408.292z"/>
		<path fill="#FFFFFF" d="M587.773,423.587c-5.152,0-8.96-3.615-8.96-8.863v-0.063c0-4.896,3.488-8.928,8.479-8.928
			c5.728,0,8.256,4.704,8.256,8.256c0,1.407-0.992,2.335-2.272,2.335h-9.631c0.479,2.208,2.016,3.36,4.191,3.36
			c1.344,0,2.464-0.416,3.456-1.152c0.352-0.256,0.672-0.384,1.184-0.384c1.088,0,1.888,0.832,1.888,1.92
			c0,0.64-0.288,1.12-0.64,1.439C592.221,422.787,590.269,423.587,587.773,423.587z M590.909,413.284
			c-0.288-2.176-1.568-3.648-3.616-3.648c-2.016,0-3.328,1.44-3.712,3.648H590.909z"/>
		<path fill="#FFFFFF" d="M603.646,415.779c-0.929,0-1.601-0.703-1.729-1.567l-0.319-2.176c-0.16-1.056,0.447-1.792,1.472-1.92
			c2.783-0.353,4.063-1.216,4.063-2.784v-0.063c0-1.44-1.088-2.272-2.943-2.272c-1.376,0-2.561,0.416-3.712,1.28
			c-0.384,0.288-0.896,0.512-1.44,0.512c-1.216,0-2.239-1.023-2.239-2.239c0-0.608,0.256-1.248,0.832-1.729
			c1.695-1.407,3.84-2.304,6.655-2.304c4.607,0,7.743,2.368,7.743,6.624v0.063c0,4.063-2.815,5.728-6.304,6.432l-0.096,0.576
			c-0.128,0.832-0.8,1.567-1.728,1.567H603.646z M603.646,417.892c1.6,0,2.783,1.184,2.783,2.72v0.064
			c0,1.535-1.184,2.72-2.783,2.72c-1.601,0-2.784-1.185-2.784-2.72v-0.064C600.861,419.075,602.045,417.892,603.646,417.892z"/>
	</g>
</g>
</svg>
